<svg width="253" height="193" viewBox="0 0 253 193" fill="none" xmlns="http://www.w3.org/2000/svg">
    <mask id="mask0_44_15484" style="mask-type:alpha" maskUnits="userSpaceOnUse" x="0" y="0" width="253" height="193">
        <path d="M0 0H243C248.523 0 253 4.47715 253 10V183C253 188.523 248.523 193 243 193H0V0Z" fill="#D9D9D9"/>
    </mask>
    <g mask="url(#mask0_44_15484)">
        <path fill-rule="evenodd" clip-rule="evenodd" d="M266.48 77.1991C265.907 78.0812 252.054 88.3239 242.272 95.2961L127.87 -61.8534C137.554 -69.0397 151.559 -79.087 152.515 -79.3503C153.884 -79.7362 156.157 -79.4642 157.729 -78.7294C158.795 -78.2368 160.376 -76.1935 173.144 -58.8494C180.954 -48.1854 187.418 -39.5009 187.479 -39.5458C187.541 -39.5907 191.748 -48.9015 196.793 -60.2328C201.87 -71.5865 206.368 -81.5326 206.823 -82.3332C208.492 -85.2864 211.908 -86.5517 215.125 -85.3702C216.132 -85.0228 224.435 -81.3888 233.569 -77.326C248.91 -70.4999 250.3 -69.8206 251.585 -68.3136C252.961 -66.6836 253.722 -64.278 253.309 -62.7086C253.227 -62.3673 248.826 -52.3515 243.506 -40.4912L233.849 -18.8501L235.565 -19.0187C236.503 -19.0906 247.174 -20.2342 259.286 -21.5346C275.647 -23.3444 281.663 -23.824 282.838 -23.5049C284.187 -23.0772 284.623 -22.737 285.986 -20.8638L287.574 -18.6836L289.572 0.251744C290.662 10.6866 291.443 19.9841 291.322 20.9182C290.975 23.097 289.489 25.0712 287.504 25.9058C286.714 26.2457 275.59 27.6727 262.783 29.0556C249.977 30.4386 239.435 31.6295 239.373 31.6743C239.312 31.7192 245.559 40.5607 253.286 51.2388C265.891 68.7483 267.349 70.8813 267.491 72.0469C267.707 73.7687 267.268 76.0147 266.48 77.1991ZM219.376 111.964L104.975 -45.1856C95.1606 -38.1781 81.2966 -27.9373 80.7522 -27.1082C79.9643 -25.9239 79.525 -23.6779 79.7413 -21.956C79.8827 -20.7904 81.3412 -18.6574 93.9239 -1.17871C101.673 9.53011 107.951 18.3492 107.89 18.394C107.828 18.4389 97.675 19.5814 85.3416 20.9019C72.9773 22.2448 62.1302 23.4698 61.2287 23.6562C57.9056 24.3371 55.6519 27.1992 55.7878 30.6239C55.8089 31.6891 56.7163 40.7068 57.7765 50.6468C59.5592 67.3431 59.7785 68.8748 60.8177 70.5613C61.9463 72.3707 64.0018 73.8342 65.6222 73.9231C65.9721 73.9503 76.8554 72.8398 89.7768 71.4203L113.338 68.8795L112.65 70.4607C112.294 71.331 107.927 81.1342 102.968 92.2612C96.2193 107.275 93.9149 112.853 93.8574 114.069C93.8502 115.484 94.0399 116.003 95.4035 117.876L96.9907 120.057L114.396 127.776C123.991 132.02 132.599 135.619 133.526 135.791C135.705 136.13 138.041 135.323 139.445 133.69C140.011 133.043 144.787 122.895 150.037 111.132C155.288 99.3702 159.66 89.7039 159.722 89.659C159.783 89.6142 166.278 98.2762 174.066 108.909C186.856 126.284 188.437 128.328 189.503 128.82C191.075 129.555 193.348 129.827 194.717 129.441C195.732 129.168 209.735 119.131 219.376 111.964Z" fill="#277C9C"/>
    </g>
</svg>
