<svg width="80" height="50" viewBox="0 0 80 50" fill="none" xmlns="http://www.w3.org/2000/svg">
    <rect width="80" height="50" rx="10" fill="white"/>
    <g clip-path="url(#clip0_136_133)">
        <path d="M71.5802 25.1111C71.5832 35.9858 63.1224 44.8031 52.6827 44.806C42.2428 44.8087 33.7784 35.9958 33.7756 25.1211C33.7756 25.1176 33.7756 25.1147 33.7756 25.1111C33.7729 14.2367 42.2337 5.41891 52.6729 5.41602C63.1128 5.41313 71.5774 14.2265 71.5802 25.1011C71.5802 25.1045 71.5802 25.1076 71.5802 25.1111Z" fill="#FF9900"/>
        <path d="M27.2003 5.421C16.8225 5.48966 8.41968 14.2846 8.41968 25.111C8.41968 35.9797 16.8879 44.8008 27.3221 44.8008C32.2191 44.8008 36.6829 42.8568 40.0419 39.6706C40.0419 39.6706 40.0412 39.6701 40.0404 39.6697H40.0444C40.7322 39.0168 41.3737 38.3123 41.9634 37.5612H38.0907C37.5736 36.9106 37.1036 36.2326 36.6814 35.533H43.3605C43.7667 34.8559 44.1345 34.1528 44.4609 33.4246H35.5787C35.276 32.7486 35.0132 32.0572 34.7887 31.3559H45.2517C45.8823 29.3932 46.2245 27.2934 46.2245 25.1108C46.2245 23.6637 46.0739 22.2528 45.7889 20.8943H34.2339C34.377 20.1952 34.5577 19.5046 34.7732 18.8259H45.2399C45.0059 18.1037 44.7341 17.3999 44.425 16.7177H35.5777C35.8968 16.0074 36.2584 15.3166 36.6622 14.6494H43.3364C42.8922 13.9123 42.4007 13.2081 41.8693 12.541H38.1481C38.7235 11.8357 39.3569 11.1714 40.0444 10.5521C36.6853 7.36544 32.2202 5.421 27.3221 5.421C27.2813 5.421 27.241 5.42077 27.2003 5.421Z" fill="#CC0000"/>
        <path d="M69.6839 35.4043C69.7867 35.4043 69.8868 35.4321 69.9845 35.4867C70.0826 35.5414 70.1581 35.6203 70.2127 35.7227C70.2674 35.8241 70.2947 35.931 70.2947 36.0416C70.2947 36.151 70.2676 36.2567 70.2138 36.3581C70.1603 36.4592 70.0847 36.5381 69.9875 36.5943C69.8913 36.6496 69.7895 36.6776 69.6837 36.6776C69.5779 36.6776 69.4763 36.6496 69.3795 36.5943C69.2824 36.5379 69.2073 36.4594 69.1527 36.3581C69.0989 36.2567 69.0723 36.151 69.0723 36.0416C69.0723 35.931 69.0994 35.8241 69.1542 35.7227C69.2092 35.6203 69.2852 35.5421 69.3827 35.4867C69.4812 35.4321 69.5813 35.4043 69.6839 35.4043ZM69.6839 35.5099C69.5983 35.5099 69.5147 35.533 69.433 35.579C69.3519 35.625 69.2886 35.6901 69.2429 35.7763C69.1966 35.8612 69.1736 35.9492 69.1736 36.0416C69.1736 36.1332 69.1962 36.2216 69.2408 36.3056C69.2865 36.3894 69.3496 36.4552 69.4302 36.5023C69.5115 36.5492 69.5958 36.5723 69.6837 36.5723C69.772 36.5723 69.8565 36.5492 69.9373 36.5023C70.018 36.4552 70.0809 36.3894 70.1259 36.3056C70.1705 36.2216 70.1927 36.1334 70.1927 36.0416C70.1927 35.9492 70.1701 35.861 70.1242 35.7763C70.0788 35.6901 70.0152 35.625 69.9335 35.579C69.8526 35.5327 69.7694 35.5099 69.6839 35.5099ZM69.4159 36.3932V35.7083H69.6425C69.7193 35.7083 69.7752 35.7145 69.8098 35.7279C69.8443 35.7405 69.8718 35.7621 69.8925 35.7939C69.9128 35.8252 69.9233 35.8585 69.9233 35.8941C69.9233 35.9443 69.9062 35.9879 69.8716 36.0247C69.8379 36.0616 69.7921 36.0827 69.7353 36.0872C69.7586 36.0972 69.7771 36.1099 69.7916 36.1236C69.8183 36.1503 69.8503 36.1954 69.8887 36.2592L69.9687 36.3932H69.8394L69.7814 36.2854C69.7355 36.2005 69.6986 36.1476 69.6702 36.1259C69.6508 36.1105 69.6225 36.1025 69.5855 36.1025H69.523V36.3938H69.4164M69.5222 36.0076H69.651C69.7125 36.0076 69.7541 35.9979 69.7765 35.979C69.7991 35.9594 69.8104 35.9345 69.8104 35.903C69.8104 35.8825 69.8053 35.8643 69.7944 35.8487C69.7833 35.8325 69.7684 35.821 69.749 35.8127C69.73 35.805 69.6946 35.8005 69.6429 35.8005H69.5226V36.0076" fill="#FCB340"/>
        <path d="M33.5948 30.7604L33.8465 28.9782C33.7089 28.9782 33.5067 29.0402 33.3279 29.0402C32.6273 29.0402 32.5399 28.6502 32.5949 28.3653L33.2853 24.7809H34.3502L34.5697 22.758H33.566L33.7704 21.5322H31.6707C31.6264 21.5784 30.4829 28.426 30.4829 29.2602C30.4829 30.4947 31.1481 31.044 32.0863 31.0353C32.8206 31.0289 33.393 30.8171 33.5948 30.7604Z" fill="#000066"/>
        <path d="M34.2319 27.3629C34.2319 30.3255 36.1091 31.0293 37.7086 31.0293C39.1851 31.0293 39.9593 30.6729 39.9593 30.6729L40.3139 28.6506C40.3139 28.6506 39.0663 29.1791 38.0523 29.1791C35.891 29.1791 36.2699 27.5004 36.2699 27.5004L40.422 27.5135C40.422 27.5135 40.6863 26.1555 40.6863 25.602C40.6863 24.2204 39.9638 22.5244 37.7541 22.5244C35.7304 22.5249 34.2319 24.7962 34.2319 27.3629ZM37.7617 24.4017C38.8975 24.4017 38.688 25.7315 38.688 25.8393H36.4536C36.4536 25.7015 36.6646 24.4017 37.7617 24.4017Z" fill="#000066"/>
        <path d="M50.5059 30.7595L50.8663 28.4741C50.8663 28.4741 49.8781 28.9899 49.2008 28.9899C47.7729 28.9899 47.2001 27.8543 47.2001 26.6341C47.2001 24.1592 48.4285 22.7975 49.796 22.7975C50.8217 22.7975 51.6445 23.3972 51.6445 23.3972L51.973 21.1766C51.973 21.1766 51.0015 20.4457 49.9557 20.4415C46.8101 20.4286 45.0103 22.7099 45.0103 26.6537C45.0103 29.2677 46.3432 31.0466 48.7449 31.0466C49.4239 31.0466 50.5059 30.7595 50.5059 30.7595Z" fill="#000066"/>
        <path d="M22.5251 22.5566C21.145 22.5566 20.0873 23.0186 20.0873 23.0186L19.795 24.8246C19.795 24.8246 20.6682 24.4551 21.9883 24.4551C22.7378 24.4551 23.286 24.5429 23.286 25.1773C23.286 25.5626 23.219 25.7049 23.219 25.7049C23.219 25.7049 22.6277 25.6535 22.3538 25.6535C20.389 25.6535 18.7849 26.4273 18.7849 28.7602C18.7849 30.5986 19.9845 31.0202 20.728 31.0202C22.1481 31.0202 22.7102 30.0862 22.7427 30.0835L22.7262 30.8586H24.4984L25.289 25.0853C25.289 22.6353 23.2376 22.5566 22.5251 22.5566ZM22.8318 27.2446C22.8705 27.5971 22.7444 29.2638 21.5322 29.2638C20.9072 29.2638 20.7448 28.766 20.7448 28.4722C20.7448 27.898 21.0441 27.2093 22.5187 27.2093C22.8621 27.2093 22.774 27.2351 22.8318 27.2446Z" fill="#000066"/>
        <path d="M27.1726 30.9783C27.626 30.9783 30.2173 31.0985 30.2173 28.313C30.2173 25.7083 27.8186 26.2232 27.8186 25.1765C27.8186 24.6561 28.2096 24.4921 28.9245 24.4921C29.208 24.4921 30.2999 24.5861 30.2999 24.5861L30.5535 22.735C30.5535 22.735 29.847 22.5703 28.6967 22.5703C27.2078 22.5703 25.6966 23.1894 25.6966 25.3076C25.6966 27.7081 28.2165 27.467 28.2165 28.4781C28.2165 29.153 27.5125 29.2085 26.9697 29.2085C26.0309 29.2085 25.1856 28.8728 25.1826 28.889L24.9141 30.7212C24.9629 30.7368 25.4845 30.9783 27.1726 30.9783Z" fill="#000066"/>
        <path d="M67.1067 20.8779L66.743 23.7022C66.743 23.7022 65.985 22.6122 64.7991 22.6122C62.5678 22.6122 61.418 24.9284 61.418 27.589C61.418 29.3068 62.238 30.9906 63.9138 30.9906C65.1193 30.9906 65.7877 30.1148 65.7877 30.1148L65.6991 30.8626H67.6571L69.1946 20.8933L67.1067 20.8779ZM66.2423 26.367C66.2423 27.4744 65.7158 28.9537 64.625 28.9537C63.9005 28.9537 63.5609 28.3202 63.5609 27.3262C63.5609 25.7006 64.2617 24.6284 65.1464 24.6284C65.8705 24.6284 66.2423 25.1462 66.2423 26.367Z" fill="#000066"/>
        <path d="M11.6278 30.871L12.853 23.3443L13.033 30.871H14.4195L17.0062 23.3443L15.8603 30.871H17.9207L19.5073 20.8883L16.2343 20.8623L14.2874 26.9743L14.2341 20.8883H11.2346L9.62524 30.871H11.6278Z" fill="#000066"/>
        <path d="M42.6363 30.8846C43.2221 27.4146 43.4308 24.6741 45.1391 25.2417C45.3845 23.8986 45.9692 22.7306 46.2363 22.1621C46.2363 22.1621 46.1518 22.0312 45.6238 22.0312C44.7225 22.0312 43.5191 23.9366 43.5191 23.9366L43.6989 22.7586H41.8246L40.5693 30.8844L42.6363 30.8846Z" fill="#000066"/>
        <path d="M54.7213 22.5566C53.3406 22.5566 52.2829 23.0186 52.2829 23.0186L51.9909 24.8246C51.9909 24.8246 52.8645 24.4551 54.184 24.4551C54.9336 24.4551 55.4816 24.5429 55.4816 25.1773C55.4816 25.5626 55.4149 25.7049 55.4149 25.7049C55.4149 25.7049 54.8237 25.6535 54.5498 25.6535C52.5848 25.6535 50.981 26.4273 50.981 28.7602C50.981 30.5986 52.1803 31.0202 52.9238 31.0202C54.3435 31.0202 54.9061 30.0862 54.9383 30.0835L54.9216 30.8586H56.6942L57.4846 25.0853C57.4849 22.6353 55.4334 22.5566 54.7213 22.5566ZM55.0277 27.2446C55.0661 27.5971 54.94 29.2638 53.7281 29.2638C53.1026 29.2638 52.9404 28.766 52.9404 28.4722C52.9404 27.898 53.2395 27.2093 54.7143 27.2093C55.058 27.2093 54.9701 27.2351 55.0277 27.2446Z" fill="#000066"/>
        <path d="M59.5247 30.885C59.8464 28.3321 60.4418 24.7481 62.0273 25.2421C62.2724 23.899 62.036 23.9026 61.5083 23.9026C60.6063 23.9026 60.4066 23.9368 60.4066 23.9368L60.5867 22.7588H58.7125L57.4573 30.8848L59.5247 30.885Z" fill="#000066"/>
        <path d="M34.1194 30.124L34.3713 28.342C34.2337 28.342 34.0313 28.4033 33.8527 28.4033C33.1521 28.4033 33.0749 28.0153 33.1195 27.7284L33.6855 24.0924H34.7502L35.0073 22.1213H34.0033L34.2077 20.8955H32.1951C32.1508 20.9417 31.0071 27.7895 31.0071 28.6233C31.0071 29.8577 31.6725 30.4075 32.6107 30.3986C33.3454 30.3922 33.9176 30.1804 34.1194 30.124Z" fill="white"/>
        <path d="M34.7571 26.7264C34.7571 29.689 36.6344 30.393 38.2338 30.393C39.71 30.393 40.3596 30.0493 40.3596 30.0493L40.7142 28.0273C40.7142 28.0273 39.5912 28.5426 38.577 28.5426C36.416 28.5426 36.7944 26.8641 36.7944 26.8641H40.8844C40.8844 26.8641 41.1485 25.5057 41.1485 24.9521C41.1485 23.5708 40.4885 21.8877 38.2788 21.8877C36.2551 21.8881 34.7571 24.1595 34.7571 26.7264ZM38.2865 23.7653C39.4223 23.7653 39.2128 25.0948 39.2128 25.2024H36.9783C36.9783 25.065 37.1895 23.7653 38.2865 23.7653Z" fill="white"/>
        <path d="M51.031 30.1235L51.3911 27.8379C51.3911 27.8379 50.4036 28.3537 49.7258 28.3537C48.2982 28.3537 47.7256 27.2181 47.7256 25.9981C47.7256 23.5233 48.954 22.1617 50.3215 22.1617C51.347 22.1617 52.17 22.7615 52.17 22.7615L52.4985 20.5408C52.4985 20.5408 51.2781 20.0264 50.2319 20.0264C47.9085 20.0264 45.6482 22.1259 45.6482 26.069C45.6482 28.6837 46.8687 30.4106 49.2704 30.4106C49.9494 30.4108 51.031 30.1235 51.031 30.1235Z" fill="white"/>
        <path d="M23.0502 21.9209C21.6701 21.9209 20.6122 22.3829 20.6122 22.3829L20.3202 24.1889C20.3202 24.1889 21.1933 23.8193 22.5132 23.8193C23.2627 23.8193 23.8109 23.9071 23.8109 24.5416C23.8109 24.9269 23.7437 25.0691 23.7437 25.0691C23.7437 25.0691 23.1526 25.0176 22.8789 25.0176C21.1383 25.0176 19.3098 25.7913 19.3098 28.1242C19.3098 29.9625 20.5094 30.3842 21.2529 30.3842C22.6728 30.3842 23.2849 29.4245 23.3175 29.4216L23.2511 30.2227H25.0233L25.8139 24.4491C25.8139 21.9998 23.7627 21.9209 23.0502 21.9209ZM23.4813 26.6218C23.5197 26.9745 23.2691 28.6276 22.0573 28.6276C21.4323 28.6276 21.2697 28.1302 21.2697 27.836C21.2697 27.2622 21.569 26.5733 23.0438 26.5733C23.3868 26.5738 23.4235 26.612 23.4813 26.6218Z" fill="white"/>
        <path d="M27.6973 30.3418C28.1506 30.3418 30.7422 30.4618 30.7422 27.6763C30.7422 25.072 28.3433 25.5865 28.3433 24.5403C28.3433 24.0194 28.7343 23.8554 29.449 23.8554C29.7327 23.8554 30.8244 23.9494 30.8244 23.9494L31.0782 22.0983C31.0782 22.0983 30.3717 21.9336 29.2214 21.9336C27.7325 21.9336 26.2213 22.5527 26.2213 24.6709C26.2213 27.0711 28.7412 26.8303 28.7412 27.8414C28.7412 28.5163 28.0372 28.5711 27.4946 28.5711C26.5558 28.5711 25.7103 28.2356 25.7073 28.2516L25.439 30.084C25.4876 30.0996 26.009 30.3418 27.6973 30.3418Z" fill="white"/>
        <path d="M67.7018 20.2602L67.2677 23.0662C67.2677 23.0662 66.5102 21.9762 65.3242 21.9762C63.4802 21.9762 61.9431 24.2922 61.9431 26.9533C61.9431 28.6711 62.763 30.3542 64.4389 30.3542C65.6444 30.3542 66.3128 29.4786 66.3128 29.4786L66.2243 30.2264H68.1818L69.7193 20.2568L67.7018 20.2602ZM66.7672 25.7313C66.7672 26.8386 66.2409 28.3177 65.1497 28.3177C64.4255 28.3177 64.0861 27.6844 64.0861 26.6904C64.0861 25.0651 64.7868 23.9926 65.6711 23.9926C66.3956 23.9924 66.7672 24.5108 66.7672 25.7313Z" fill="white"/>
        <path d="M12.1529 30.2348L13.3781 22.7082L13.5579 30.2348H14.9446L17.5312 22.7082L16.3854 30.2348H18.4458L20.0326 20.252H16.8464L14.8622 26.3771L14.759 20.252H11.822L10.2124 30.2348H12.1529Z" fill="white"/>
        <path d="M43.1613 30.2482C43.7471 26.778 43.8557 23.9602 45.2536 24.476C45.4983 23.1329 45.7345 22.6134 46.0016 22.0449C46.0016 22.0449 45.8763 22.0176 45.6135 22.0176C44.7122 22.0176 44.0445 23.3002 44.0445 23.3002L44.2239 22.1222H42.3499L41.0945 30.2482H43.1613Z" fill="white"/>
        <path d="M55.675 21.9209C54.2949 21.9209 53.237 22.3829 53.237 22.3829L52.9452 24.1889C52.9452 24.1889 53.8183 23.8193 55.1382 23.8193C55.8877 23.8193 56.4355 23.9071 56.4355 24.5416C56.4355 24.9269 56.3687 25.0691 56.3687 25.0691C56.3687 25.0691 55.7776 25.0176 55.5037 25.0176C53.7633 25.0176 51.9348 25.7913 51.9348 28.1242C51.9348 29.9625 53.1342 30.3842 53.8776 30.3842C55.2976 30.3842 55.9096 29.4245 55.9421 29.4216L55.8761 30.2227C55.8761 30.2227 57.6477 30.2227 57.6483 30.2227L58.4387 24.4491C58.4389 21.9998 56.3875 21.9209 55.675 21.9209ZM56.1068 26.6218C56.1452 26.9745 55.8943 28.6276 54.6821 28.6276C54.0571 28.6276 53.8949 28.1302 53.8949 27.836C53.8949 27.2622 54.1942 26.5733 55.6688 26.5733C56.0118 26.5738 56.0483 26.612 56.1068 26.6218Z" fill="white"/>
        <path d="M60.0583 30.2482C60.6443 26.778 60.7529 23.9602 62.1504 24.476C62.3955 23.1329 62.6319 22.6134 62.8988 22.0449C62.8988 22.0449 62.7736 22.0176 62.5107 22.0176C61.6094 22.0176 60.9417 23.3002 60.9417 23.3002L61.1211 22.1222H59.2472L57.9917 30.2482H60.0583Z" fill="white"/>
        <path d="M69.676 28.9941C69.7782 28.9941 69.8789 29.0215 69.976 29.077C70.0739 29.1308 70.15 29.2099 70.2047 29.3124C70.2595 29.4141 70.2864 29.5201 70.2864 29.631C70.2864 29.7406 70.2595 29.8464 70.2055 29.9475C70.152 30.0486 70.0767 30.1279 69.9796 30.1837C69.8827 30.2393 69.7812 30.2673 69.6758 30.2673C69.5696 30.2673 69.468 30.2393 69.371 30.1837C69.2741 30.1275 69.199 30.0486 69.1452 29.9475C69.0906 29.8464 69.064 29.7406 69.064 29.631C69.064 29.5201 69.0911 29.4141 69.1459 29.3124C69.2009 29.2099 69.2773 29.1313 69.3748 29.077C69.4731 29.0215 69.5738 28.9941 69.676 28.9941ZM69.676 29.099C69.5905 29.099 69.5068 29.1221 69.4251 29.1686C69.3436 29.2139 69.2803 29.2795 69.2344 29.3653C69.1888 29.4499 69.1657 29.5386 69.1657 29.6306C69.1657 29.7226 69.1879 29.8106 69.2325 29.8946C69.2779 29.9784 69.3411 30.0441 69.4226 30.0915C69.5032 30.1377 69.5875 30.161 69.676 30.161C69.7639 30.161 69.8488 30.1377 69.9295 30.0915C70.0101 30.0441 70.0732 29.9784 70.118 29.8946C70.1631 29.8099 70.185 29.7226 70.185 29.6306C70.185 29.5386 70.1622 29.4499 70.1166 29.3653C70.0711 29.2795 70.0078 29.2139 69.9258 29.1686C69.8448 29.1224 69.7618 29.099 69.676 29.099ZM69.4083 29.9826V29.2975H69.6346C69.7116 29.2975 69.768 29.3039 69.8021 29.317C69.8367 29.3293 69.8638 29.3513 69.8849 29.383C69.9056 29.4146 69.916 29.4477 69.916 29.4833C69.916 29.5333 69.8985 29.577 69.864 29.6139C69.8303 29.6508 69.7848 29.6721 69.7281 29.6761C69.7507 29.6864 69.7695 29.6986 69.784 29.7124C69.8102 29.7395 69.8426 29.7848 69.881 29.8481L69.9615 29.9824H69.8315L69.7737 29.8746C69.7276 29.7895 69.6907 29.7366 69.6626 29.715C69.6432 29.6993 69.6148 29.6915 69.5775 29.6915H69.5154V29.9828L69.4083 29.9826ZM69.5145 29.597H69.6434C69.705 29.597 69.7466 29.5875 69.7688 29.5684C69.7912 29.5497 69.803 29.5241 69.803 29.4924C69.803 29.4721 69.7976 29.4539 69.787 29.4386C69.7761 29.4221 69.7609 29.4104 69.7415 29.4021C69.7221 29.3944 69.6873 29.3904 69.6353 29.3904H69.5147V29.597" fill="white"/>
    </g>
    <defs>
        <clipPath id="clip0_136_133">
            <rect width="64" height="40" fill="white" transform="translate(8 5)"/>
        </clipPath>
    </defs>
</svg>
