<svg width="80" height="50" viewBox="0 0 80 50" fill="none" xmlns="http://www.w3.org/2000/svg">
    <rect width="80" height="50" rx="10" fill="white"/>
    <g clip-path="url(#clip0_136_168)">
        <path d="M47.8153 16.0264C43.914 16.0264 40.4276 17.9514 40.4276 21.508C40.4276 25.5867 46.6108 25.8685 46.6108 27.9175C46.6108 28.7803 45.5722 29.5526 43.7983 29.5526C41.2808 29.5526 39.3992 28.4734 39.3992 28.4734L38.5941 32.0625C38.5941 32.0625 40.7616 32.974 43.6394 32.974C47.9048 32.974 51.2611 30.9545 51.2611 27.3371C51.2611 23.0271 45.0521 22.7538 45.0521 20.8519C45.0521 20.1761 45.9047 19.4355 47.6736 19.4355C49.6693 19.4355 51.2976 20.2204 51.2976 20.2204L52.0856 16.754C52.0856 16.754 50.3138 16.0264 47.8153 16.0264ZM12.1221 16.288L12.0276 16.8112C12.0276 16.8112 13.6689 17.0972 15.1471 17.6676C17.0505 18.3217 17.1861 18.7025 17.5066 19.8852L20.9997 32.7042H25.6823L32.896 16.288H28.2243L23.589 27.4495L21.6975 17.9885C21.524 16.9057 20.6454 16.288 19.5699 16.288H12.1221ZM34.7746 16.288L31.1098 32.7042H35.5647L39.2167 16.288H34.7746ZM59.6214 16.288C58.5471 16.288 57.978 16.8355 57.5603 17.7923L51.0336 32.7042H55.7053L56.6092 30.2189H62.3008L62.8504 32.7042H66.9726L63.3764 16.288H59.6214ZM60.229 20.7231L61.6138 26.8833H57.9038L60.229 20.7231Z" fill="#1434CB"/>
    </g>
    <defs>
        <clipPath id="clip0_136_168">
            <rect width="55" height="17" fill="white" transform="translate(12 16)"/>
        </clipPath>
    </defs>
</svg>
