<svg width="28" height="28" viewBox="0 0 28 28" fill="none" xmlns="http://www.w3.org/2000/svg">
    <path d="M15.6385 20.4199C15.4449 20.2216 15.3469 19.9847 15.3446 19.7091C15.3423 19.4335 15.4305 19.2063 15.6093 19.0275L19.7085 14.9352H5.51383C5.22852 14.9352 4.9916 14.841 4.80306 14.6525C4.61453 14.4639 4.52026 14.227 4.52026 13.9417C4.52026 13.6563 4.61453 13.4194 4.80306 13.2309C4.9916 13.0424 5.22852 12.9481 5.51383 12.9481H19.7085L15.5801 8.81974C15.3865 8.62615 15.2946 8.39642 15.3043 8.13053C15.314 7.86465 15.4157 7.63258 15.6093 7.43432C15.8076 7.25553 16.0445 7.16614 16.3201 7.16614C16.5957 7.16614 16.8229 7.25553 17.0017 7.43432L22.8059 13.2455C22.9124 13.352 22.9897 13.462 23.0379 13.5755C23.0861 13.689 23.1102 13.8111 23.1102 13.9417C23.1102 14.0723 23.0861 14.1943 23.0379 14.3078C22.9897 14.4213 22.9124 14.5313 22.8059 14.6379L17.0309 20.4199C16.8326 20.6181 16.6005 20.716 16.3347 20.7137C16.0688 20.7114 15.8367 20.6134 15.6385 20.4199Z" fill="white"/>
</svg>
