<svg width="15" height="15" viewBox="0 0 15 15" fill="none" xmlns="http://www.w3.org/2000/svg">
    <path d="M3.4375 13.125C3.17969 13.125 2.95898 13.0332 2.77539 12.8496C2.5918 12.666 2.5 12.4453 2.5 12.1875V6.09375C2.5 5.94531 2.5332 5.80469 2.59961 5.67188C2.66602 5.53906 2.75781 5.42969 2.875 5.34375L6.9375 2.29688C7.02391 2.23438 7.11424 2.1875 7.2085 2.15625C7.30276 2.125 7.40095 2.10938 7.50308 2.10938C7.60519 2.10938 7.70268 2.125 7.79553 2.15625C7.8884 2.1875 7.97739 2.23438 8.0625 2.29688L12.125 5.34375C12.2422 5.42969 12.334 5.53906 12.4004 5.67188C12.4668 5.80469 12.5 5.94531 12.5 6.09375V12.1875C12.5 12.4453 12.4082 12.666 12.2246 12.8496C12.041 13.0332 11.8203 13.125 11.5625 13.125H8.75V8.75H6.25V13.125H3.4375Z" fill="#6A777D"/>
</svg>
