<svg width="18" height="18" viewBox="0 0 18 18" fill="none" xmlns="http://www.w3.org/2000/svg">
    <path d="M11.5119 9.88799C11.5119 9.97161 11.4971 10.0498 11.4675 10.1226C11.4378 10.1955 11.3889 10.2663 11.3207 10.335L7.60821 14.0475C7.49252 14.1625 7.34078 14.2168 7.15298 14.2106C6.96516 14.2043 6.81304 14.1437 6.6966 14.0288C6.55516 13.8888 6.49382 13.7365 6.51257 13.5719C6.53132 13.4072 6.59816 13.2611 6.7131 13.1337L9.95931 9.88748L6.7131 6.64129C6.59816 6.52484 6.53444 6.37215 6.52194 6.18323C6.50944 5.9943 6.57381 5.84237 6.71503 5.72742C6.83126 5.58748 6.98044 5.52689 7.16258 5.54564C7.34473 5.56439 7.49952 5.63123 7.62696 5.74617L11.3207 9.43992C11.3889 9.50889 11.4378 9.5799 11.4675 9.65295C11.4971 9.726 11.5119 9.80435 11.5119 9.88799Z" fill="#6A777D"/>
</svg>
