<svg width="142" height="14" viewBox="0 0 142 14" fill="none" xmlns="http://www.w3.org/2000/svg">
    <path d="M1.60414 13.9615C1.08314 13.9615 0.68553 13.8267 0.411318 13.5571C0.137106 13.2875 0 12.9088 0 12.4209V1.73315C0 1.23246 0.137106 0.853737 0.411318 0.596973C0.699241 0.34021 1.1037 0.211829 1.62471 0.211829H6.62222C8.24007 0.211829 9.48774 0.596973 10.3652 1.36726C11.2427 2.12471 11.6814 3.18386 11.6814 4.5447C11.6814 5.90555 11.2427 6.97111 10.3652 7.7414C9.48774 8.51169 8.24007 8.89684 6.62222 8.89684H3.18772V12.4209C3.18772 12.9088 3.05061 13.2875 2.7764 13.5571C2.5159 13.8267 2.12514 13.9615 1.60414 13.9615ZM3.18772 6.58597H6.08751C6.91015 6.58597 7.53398 6.41265 7.95901 6.06602C8.39775 5.71939 8.61712 5.21229 8.61712 4.5447C8.61712 3.87712 8.39775 3.37643 7.95901 3.04264C7.53398 2.70885 6.91015 2.54195 6.08751 2.54195H3.18772V6.58597Z" fill="#F04A25"/>
    <path d="M17.3795 13.7882C16.8448 13.7882 16.4334 13.6534 16.1455 13.3838C15.8576 13.1142 15.7136 12.729 15.7136 12.2283V1.77166C15.7136 1.27098 15.8576 0.885832 16.1455 0.616231C16.4334 0.34663 16.8448 0.211829 17.3795 0.211829H24.557C24.9683 0.211829 25.2768 0.314534 25.4824 0.519945C25.7018 0.712517 25.8115 0.994956 25.8115 1.36726C25.8115 1.75241 25.7018 2.04768 25.4824 2.25309C25.2768 2.44567 24.9683 2.54195 24.557 2.54195H18.7574V5.71939H24.084C24.509 5.71939 24.8243 5.8221 25.03 6.02751C25.2494 6.22008 25.3591 6.50894 25.3591 6.89409C25.3591 7.27923 25.2494 7.57451 25.03 7.77992C24.8243 7.97249 24.509 8.06878 24.084 8.06878H18.7574V11.458H24.557C24.9683 11.458 25.2768 11.5608 25.4824 11.7662C25.7018 11.9587 25.8115 12.2412 25.8115 12.6135C25.8115 12.9986 25.7018 13.2939 25.4824 13.4993C25.2768 13.6919 24.9683 13.7882 24.557 13.7882H17.3795Z" fill="#F04A25"/>
    <path d="M31.8264 13.9615C31.3054 13.9615 30.9078 13.8267 30.6336 13.5571C30.3594 13.2875 30.2222 12.9088 30.2222 12.4209V1.57909C30.2222 1.09124 30.3594 0.712517 30.6336 0.442916C30.9078 0.173315 31.3054 0.0385139 31.8264 0.0385139C32.3337 0.0385139 32.7244 0.173315 32.9986 0.442916C33.2729 0.712517 33.41 1.09124 33.41 1.57909V5.66162H40.1556V1.57909C40.1556 1.09124 40.2927 0.712517 40.5669 0.442916C40.8411 0.173315 41.2319 0.0385139 41.7392 0.0385139C42.2602 0.0385139 42.6578 0.173315 42.932 0.442916C43.2062 0.712517 43.3433 1.09124 43.3433 1.57909V12.4209C43.3433 12.9088 43.2062 13.2875 42.932 13.5571C42.6578 13.8267 42.2602 13.9615 41.7392 13.9615C41.2319 13.9615 40.8411 13.8267 40.5669 13.5571C40.2927 13.2875 40.1556 12.9088 40.1556 12.4209V8.1458H33.41V12.4209C33.41 12.9088 33.2729 13.2875 32.9986 13.5571C32.7381 13.8267 32.3474 13.9615 31.8264 13.9615Z" fill="#F04A25"/>
    <path d="M49.9917 13.7882C49.457 13.7882 49.0457 13.6534 48.7577 13.3838C48.4698 13.1142 48.3259 12.729 48.3259 12.2283V1.77166C48.3259 1.27098 48.4698 0.885832 48.7577 0.616231C49.0457 0.34663 49.457 0.211829 49.9917 0.211829H57.1692C57.5805 0.211829 57.889 0.314534 58.0947 0.519945C58.314 0.712517 58.4237 0.994956 58.4237 1.36726C58.4237 1.75241 58.314 2.04768 58.0947 2.25309C57.889 2.44567 57.5805 2.54195 57.1692 2.54195H51.3696V5.71939H56.6962C57.1212 5.71939 57.4366 5.8221 57.6422 6.02751C57.8616 6.22008 57.9713 6.50894 57.9713 6.89409C57.9713 7.27923 57.8616 7.57451 57.6422 7.77992C57.4366 7.97249 57.1212 8.06878 56.6962 8.06878H51.3696V11.458H57.1692C57.5805 11.458 57.889 11.5608 58.0947 11.7662C58.314 11.9587 58.4237 12.2412 58.4237 12.6135C58.4237 12.9986 58.314 13.2939 58.0947 13.4993C57.889 13.6919 57.5805 13.7882 57.1692 13.7882H49.9917Z" fill="#F04A25"/>
    <path d="M69.868 14C68.305 14 66.9682 13.7111 65.8577 13.1334C64.7471 12.5557 63.8902 11.7469 63.2869 10.707C62.6974 9.65429 62.4026 8.41541 62.4026 6.99037C62.4026 5.92481 62.5671 4.96836 62.8962 4.12105C63.2389 3.26089 63.7325 2.52911 64.3769 1.92572C65.0213 1.30949 65.8028 0.834479 66.7214 0.500687C67.6538 0.166896 68.7026 0 69.868 0C70.5536 0 71.2459 0.083448 71.9452 0.250344C72.6581 0.404401 73.2751 0.629069 73.7961 0.924346C74.1389 1.10408 74.3719 1.32875 74.4953 1.59835C74.6187 1.86795 74.653 2.13755 74.5982 2.40715C74.557 2.67675 74.4405 2.90784 74.2486 3.10041C74.0703 3.29298 73.8441 3.41495 73.5699 3.4663C73.2957 3.51765 72.9872 3.45988 72.6444 3.29298C72.2331 3.0619 71.8012 2.895 71.3488 2.7923C70.8963 2.68959 70.437 2.63824 69.9708 2.63824C69.0522 2.63824 68.2776 2.81155 67.6469 3.15818C67.0299 3.49198 66.5638 3.97983 66.2484 4.62173C65.9331 5.26364 65.7754 6.05319 65.7754 6.99037C65.7754 7.91472 65.9331 8.70426 66.2484 9.35901C66.5638 10.0138 67.0299 10.5144 67.6469 10.8611C68.2776 11.1949 69.0522 11.3618 69.9708 11.3618C70.4096 11.3618 70.8552 11.3104 71.3076 11.2077C71.7738 11.105 72.2194 10.9445 72.6444 10.7263C73.0009 10.5594 73.3162 10.5016 73.5904 10.553C73.8784 10.5915 74.1115 10.707 74.2897 10.8996C74.4816 11.0793 74.5982 11.2976 74.6393 11.5543C74.6942 11.8111 74.6667 12.0679 74.557 12.3246C74.4474 12.5814 74.2417 12.7996 73.9401 12.9794C73.4328 13.3003 72.8089 13.5507 72.0686 13.7304C71.3282 13.9101 70.5947 14 69.868 14Z" fill="#F04A25"/>
    <path d="M85.7022 14C84.1391 14 82.8024 13.7111 81.6918 13.1334C80.5812 12.5557 79.7243 11.7469 79.1211 10.707C78.5315 9.65429 78.2367 8.41541 78.2367 6.99037C78.2367 5.92481 78.4013 4.96836 78.7303 4.12105C79.0731 3.26089 79.5667 2.52911 80.2111 1.92572C80.8555 1.30949 81.637 0.834479 82.5556 0.500687C83.4879 0.166896 84.5368 0 85.7022 0C86.3877 0 87.0801 0.083448 87.7793 0.250344C88.4923 0.404401 89.1092 0.629069 89.6302 0.924346C89.973 1.10408 90.2061 1.32875 90.3295 1.59835C90.4529 1.86795 90.4872 2.13755 90.4323 2.40715C90.3912 2.67675 90.2746 2.90784 90.0827 3.10041C89.9045 3.29298 89.6782 3.41495 89.404 3.4663C89.1298 3.51765 88.8213 3.45988 88.4786 3.29298C88.0672 3.0619 87.6354 2.895 87.1829 2.7923C86.7305 2.68959 86.2711 2.63824 85.805 2.63824C84.8864 2.63824 84.1117 2.81155 83.481 3.15818C82.8641 3.49198 82.3979 3.97983 82.0826 4.62173C81.7672 5.26364 81.6095 6.05319 81.6095 6.99037C81.6095 7.91472 81.7672 8.70426 82.0826 9.35901C82.3979 10.0138 82.8641 10.5144 83.481 10.8611C84.1117 11.1949 84.8864 11.3618 85.805 11.3618C86.2437 11.3618 86.6893 11.3104 87.1418 11.2077C87.6079 11.105 88.0535 10.9445 88.4786 10.7263C88.835 10.5594 89.1504 10.5016 89.4246 10.553C89.7125 10.5915 89.9456 10.707 90.1238 10.8996C90.3158 11.0793 90.4323 11.2976 90.4734 11.5543C90.5283 11.8111 90.5009 12.0679 90.3912 12.3246C90.2815 12.5814 90.0758 12.7996 89.7742 12.9794C89.2669 13.3003 88.6431 13.5507 87.9027 13.7304C87.1623 13.9101 86.4288 14 85.7022 14Z" fill="#F04A25"/>
    <path d="M94.9342 13.9615C94.5503 13.9615 94.2349 13.878 93.9881 13.7111C93.755 13.5442 93.6042 13.3196 93.5357 13.0371C93.4808 12.7547 93.5425 12.4402 93.7208 12.0935L98.9856 1.29023C99.205 0.853737 99.4655 0.539202 99.7672 0.34663C100.069 0.141219 100.418 0.0385139 100.816 0.0385139C101.214 0.0385139 101.563 0.141219 101.865 0.34663C102.167 0.539202 102.42 0.853737 102.626 1.29023L107.932 12.0935C108.11 12.4402 108.172 12.7611 108.117 13.0564C108.076 13.3388 107.939 13.5635 107.706 13.7304C107.473 13.8845 107.171 13.9615 106.801 13.9615C106.335 13.9615 105.971 13.8588 105.711 13.6534C105.464 13.448 105.245 13.127 105.053 12.6905L103.819 10.0138L105.094 10.8418H96.5177L97.7928 10.0138L96.5794 12.6905C96.3738 13.1398 96.1544 13.4672 95.9213 13.6726C95.702 13.8652 95.3729 13.9615 94.9342 13.9615ZM100.775 3.38927L98.1424 9.26272L97.5872 8.51169H104.024L103.469 9.26272L100.816 3.38927H100.775Z" fill="#F04A25"/>
    <path d="M113.668 13.9615C113.147 13.9615 112.75 13.8267 112.475 13.5571C112.201 13.2875 112.064 12.9088 112.064 12.4209V1.57909C112.064 1.09124 112.201 0.712517 112.475 0.442916C112.75 0.173315 113.147 0.0385139 113.668 0.0385139C114.176 0.0385139 114.566 0.173315 114.841 0.442916C115.115 0.712517 115.252 1.09124 115.252 1.57909V5.66162H121.997V1.57909C121.997 1.09124 122.135 0.712517 122.409 0.442916C122.683 0.173315 123.074 0.0385139 123.581 0.0385139C124.102 0.0385139 124.5 0.173315 124.774 0.442916C125.048 0.712517 125.185 1.09124 125.185 1.57909V12.4209C125.185 12.9088 125.048 13.2875 124.774 13.5571C124.5 13.8267 124.102 13.9615 123.581 13.9615C123.074 13.9615 122.683 13.8267 122.409 13.5571C122.135 13.2875 121.997 12.9088 121.997 12.4209V8.1458H115.252V12.4209C115.252 12.9088 115.115 13.2875 114.841 13.5571C114.58 13.8267 114.189 13.9615 113.668 13.9615Z" fill="#F04A25"/>
    <path d="M137.201 14C135.638 14 134.301 13.7111 133.191 13.1334C132.08 12.5557 131.223 11.7469 130.62 10.707C130.031 9.65429 129.736 8.41541 129.736 6.99037C129.736 5.92481 129.9 4.96836 130.229 4.12105C130.572 3.26089 131.066 2.52911 131.71 1.92572C132.355 1.30949 133.136 0.834479 134.055 0.500687C134.987 0.166896 136.036 0 137.201 0C137.887 0 138.579 0.083448 139.278 0.250344C139.991 0.404401 140.608 0.629069 141.129 0.924346C141.472 1.10408 141.705 1.32875 141.829 1.59835C141.952 1.86795 141.986 2.13755 141.931 2.40715C141.89 2.67675 141.774 2.90784 141.582 3.10041C141.404 3.29298 141.177 3.41495 140.903 3.4663C140.629 3.51765 140.32 3.45988 139.978 3.29298C139.566 3.0619 139.134 2.895 138.682 2.7923C138.23 2.68959 137.77 2.63824 137.304 2.63824C136.386 2.63824 135.611 2.81155 134.98 3.15818C134.363 3.49198 133.897 3.97983 133.582 4.62173C133.266 5.26364 133.109 6.05319 133.109 6.99037C133.109 7.91472 133.266 8.70426 133.582 9.35901C133.897 10.0138 134.363 10.5144 134.98 10.8611C135.611 11.1949 136.386 11.3618 137.304 11.3618C137.743 11.3618 138.188 11.3104 138.641 11.2077C139.107 11.105 139.553 10.9445 139.978 10.7263C140.334 10.5594 140.65 10.5016 140.924 10.553C141.212 10.5915 141.445 10.707 141.623 10.8996C141.815 11.0793 141.931 11.2976 141.973 11.5543C142.027 11.8111 142 12.0679 141.89 12.3246C141.781 12.5814 141.575 12.7996 141.273 12.9794C140.766 13.3003 140.142 13.5507 139.402 13.7304C138.661 13.9101 137.928 14 137.201 14Z" fill="#F04A25"/>
</svg>
