<svg width="339" height="80" viewBox="0 0 339 80" fill="none" xmlns="http://www.w3.org/2000/svg">
    <path fill-rule="evenodd" clip-rule="evenodd" d="M42.7185 0.0163979V79.9819C37.7767 80.0316 30.6894 79.979 30.2855 79.8242C29.7367 79.6211 29.0468 78.9804 28.7018 78.3554C28.4666 77.9335 28.4353 76.8709 28.3882 67.9955C28.3725 62.5734 28.3098 58.12 28.2785 58.12C28.2471 58.12 24.4526 60.2764 19.8584 62.9171C15.2642 65.5579 11.2188 67.7767 10.8738 67.8549C10.0114 68.058 9.03929 67.7611 8.39642 67.1205C8.12986 66.8392 6.13852 63.5578 3.9747 59.8232L0.0547371 53.0416V51.9322C0.0547371 50.979 0.117458 50.7603 0.462414 50.2915C0.776012 49.9009 2.89279 48.6039 8.77273 45.2444C13.116 42.7443 16.9419 40.541 17.2712 40.3379L17.8827 39.9785L9.43129 35.1189C4.79005 32.4625 0.901451 30.1968 0.791691 30.103C0.274258 29.6811 -0.0550194 28.6967 0.00769806 27.8217C0.0704193 27.0091 0.368336 26.4466 3.8179 20.4619C5.87196 16.8993 7.75354 13.6804 8.00442 13.321C8.78841 12.149 10.231 11.7428 11.501 12.3209C11.846 12.4772 15.7503 14.696 20.1877 17.243C24.6094 19.79 28.2628 21.8683 28.2941 21.8683C28.3255 21.8683 28.3725 17.4149 28.3882 11.9771C28.4353 3.11734 28.4666 2.05479 28.7018 1.63289C29.0468 1.00786 29.7367 0.367205 30.2855 0.164071C30.6673 0.0201107 37.7578 -0.0291135 42.7185 0.0163979Z" fill="#F04A25"/>
    <path fill-rule="evenodd" clip-rule="evenodd" d="M54.3689 0.0163979V79.9819C59.3107 80.0316 66.398 79.979 66.8019 79.8242C67.3507 79.6211 68.0406 78.9804 68.3856 78.3554C68.6208 77.9335 68.6521 76.8709 68.6992 67.9955C68.7149 62.5734 68.7776 58.12 68.8089 58.12C68.8403 58.12 72.6348 60.2764 77.229 62.9171C81.8232 65.5579 85.8686 67.7767 86.2136 67.8549C87.076 68.058 88.0481 67.7611 88.691 67.1205C88.9575 66.8392 90.9489 63.5578 93.1127 59.8232L97.0327 53.0416V51.9322C97.0327 50.979 96.9699 50.7603 96.625 50.2915C96.3114 49.9009 94.1946 48.6039 88.3147 45.2444C83.9714 42.7443 80.1455 40.541 79.8162 40.3379L79.2047 39.9785L87.6561 35.1189C92.2974 32.4625 96.186 30.1968 96.2957 30.103C96.8131 29.6811 97.1424 28.6967 97.0797 27.8217C97.017 27.0091 96.7191 26.4466 93.2695 20.4619C91.2154 16.8993 89.3339 13.6804 89.083 13.321C88.299 12.149 86.8564 11.7428 85.5864 12.3209C85.2414 12.4772 81.3371 14.696 76.8997 17.243C72.478 19.79 68.8246 21.8683 68.7933 21.8683C68.7619 21.8683 68.7149 17.4149 68.6992 11.9771C68.6521 3.11734 68.6208 2.05479 68.3856 1.63289C68.0406 1.00786 67.3507 0.367205 66.8019 0.164071C66.4201 0.0201107 59.3296 -0.0291135 54.3689 0.0163979Z" fill="#1C7597"/>
    <path d="M136.316 35.9395C135.564 35.9395 134.99 35.7276 134.594 35.304C134.198 34.8803 134 34.2852 134 33.5186V16.7235C134 15.9367 134.198 15.3416 134.594 14.9381C135.01 14.5346 135.594 14.3329 136.346 14.3329H143.56C145.896 14.3329 147.697 14.9381 148.964 16.1486C150.231 17.3388 150.864 19.0032 150.864 21.1417C150.864 23.2801 150.231 24.9546 148.964 26.1651C147.697 27.3755 145.896 27.9807 143.56 27.9807H138.602V33.5186C138.602 34.2852 138.404 34.8803 138.008 35.304C137.632 35.7276 137.068 35.9395 136.316 35.9395ZM138.602 24.3494H142.789C143.976 24.3494 144.877 24.077 145.49 23.5323C146.124 22.9876 146.44 22.1907 146.44 21.1417C146.44 20.0926 146.124 19.3058 145.49 18.7813C144.877 18.2568 143.976 17.9945 142.789 17.9945H138.602V24.3494Z" fill="#F04A25"/>
    <path d="M159.09 35.6671C158.318 35.6671 157.725 35.4553 157.309 35.0316C156.893 34.608 156.685 34.0028 156.685 33.216V16.784C156.685 15.9972 156.893 15.392 157.309 14.9684C157.725 14.5447 158.318 14.3329 159.09 14.3329H169.452C170.046 14.3329 170.491 14.4943 170.788 14.8171C171.105 15.1197 171.263 15.5635 171.263 16.1486C171.263 16.7538 171.105 17.2178 170.788 17.5406C170.491 17.8432 170.046 17.9945 169.452 17.9945H161.08V22.9876H168.769C169.383 22.9876 169.838 23.149 170.135 23.4718C170.452 23.7744 170.61 24.2283 170.61 24.8336C170.61 25.4388 170.452 25.9028 170.135 26.2256C169.838 26.5282 169.383 26.6795 168.769 26.6795H161.08V32.0055H169.452C170.046 32.0055 170.491 32.1669 170.788 32.4897C171.105 32.7923 171.263 33.2361 171.263 33.8212C171.263 34.4264 171.105 34.8904 170.788 35.2132C170.491 35.5158 170.046 35.6671 169.452 35.6671H159.09Z" fill="#F04A25"/>
    <path d="M179.947 35.9395C179.195 35.9395 178.621 35.7276 178.225 35.304C177.829 34.8803 177.631 34.2852 177.631 33.5186V16.4814C177.631 15.7148 177.829 15.1197 178.225 14.696C178.621 14.2724 179.195 14.0605 179.947 14.0605C180.679 14.0605 181.243 14.2724 181.639 14.696C182.035 15.1197 182.233 15.7148 182.233 16.4814V22.8968H191.971V16.4814C191.971 15.7148 192.169 15.1197 192.565 14.696C192.961 14.2724 193.525 14.0605 194.257 14.0605C195.01 14.0605 195.584 14.2724 195.98 14.696C196.375 15.1197 196.573 15.7148 196.573 16.4814V33.5186C196.573 34.2852 196.375 34.8803 195.98 35.304C195.584 35.7276 195.01 35.9395 194.257 35.9395C193.525 35.9395 192.961 35.7276 192.565 35.304C192.169 34.8803 191.971 34.2852 191.971 33.5186V26.8006H182.233V33.5186C182.233 34.2852 182.035 34.8803 181.639 35.304C181.263 35.7276 180.699 35.9395 179.947 35.9395Z" fill="#F04A25"/>
    <path d="M206.171 35.6671C205.399 35.6671 204.806 35.4553 204.39 35.0316C203.974 34.608 203.766 34.0028 203.766 33.216V16.784C203.766 15.9972 203.974 15.392 204.39 14.9684C204.806 14.5447 205.399 14.3329 206.171 14.3329H216.533C217.127 14.3329 217.572 14.4943 217.869 14.8171C218.186 15.1197 218.344 15.5635 218.344 16.1486C218.344 16.7538 218.186 17.2178 217.869 17.5406C217.572 17.8432 217.127 17.9945 216.533 17.9945H208.161V22.9876H215.85C216.464 22.9876 216.919 23.149 217.216 23.4718C217.533 23.7744 217.691 24.2283 217.691 24.8336C217.691 25.4388 217.533 25.9028 217.216 26.2256C216.919 26.5282 216.464 26.6795 215.85 26.6795H208.161V32.0055H216.533C217.127 32.0055 217.572 32.1669 217.869 32.4897C218.186 32.7923 218.344 33.2361 218.344 33.8212C218.344 34.4264 218.186 34.8904 217.869 35.2132C217.572 35.5158 217.127 35.6671 216.533 35.6671H206.171Z" fill="#F04A25"/>
    <path d="M234.866 36C232.61 36 230.68 35.5461 229.076 34.6382C227.473 33.7304 226.236 32.4594 225.365 30.8253C224.514 29.171 224.088 27.2242 224.088 24.9849C224.088 23.3104 224.326 21.8074 224.801 20.4759C225.296 19.1243 226.008 17.9743 226.939 17.0261C227.869 16.0578 228.997 15.3113 230.323 14.7868C231.669 14.2623 233.184 14 234.866 14C235.856 14 236.855 14.1311 237.865 14.3934C238.894 14.6355 239.785 14.9885 240.537 15.4525C241.032 15.735 241.368 16.088 241.546 16.5117C241.724 16.9354 241.774 17.359 241.695 17.7827C241.635 18.2063 241.467 18.5695 241.19 18.8721C240.933 19.1747 240.606 19.3663 240.21 19.447C239.814 19.5277 239.369 19.437 238.874 19.1747C238.28 18.8116 237.657 18.5493 237.004 18.3879C236.351 18.2265 235.687 18.1458 235.014 18.1458C233.688 18.1458 232.57 18.4182 231.66 18.9629C230.769 19.4874 230.096 20.254 229.641 21.2627C229.185 22.2714 228.958 23.5122 228.958 24.9849C228.958 26.4374 229.185 27.6781 229.641 28.707C230.096 29.7359 230.769 30.5227 231.66 31.0674C232.57 31.5919 233.688 31.8542 235.014 31.8542C235.648 31.8542 236.291 31.7735 236.944 31.6121C237.617 31.4507 238.261 31.1985 238.874 30.8556C239.389 30.5933 239.844 30.5025 240.24 30.5832C240.656 30.6437 240.992 30.8253 241.249 31.1279C241.527 31.4104 241.695 31.7533 241.754 32.1568C241.833 32.5603 241.794 32.9638 241.635 33.3673C241.477 33.7707 241.18 34.1137 240.745 34.3962C240.012 34.9005 239.112 35.2939 238.043 35.5763C236.974 35.8588 235.915 36 234.866 36Z" fill="#F04A25"/>
    <path d="M257.725 36C255.469 36 253.539 35.5461 251.936 34.6382C250.332 33.7304 249.095 32.4594 248.224 30.8253C247.373 29.171 246.948 27.2242 246.948 24.9849C246.948 23.3104 247.185 21.8074 247.66 20.4759C248.155 19.1243 248.868 17.9743 249.798 17.0261C250.728 16.0578 251.856 15.3113 253.183 14.7868C254.529 14.2623 256.043 14 257.725 14C258.715 14 259.714 14.1311 260.724 14.3934C261.753 14.6355 262.644 14.9885 263.396 15.4525C263.891 15.735 264.227 16.088 264.405 16.5117C264.584 16.9354 264.633 17.359 264.554 17.7827C264.495 18.2063 264.326 18.5695 264.049 18.8721C263.792 19.1747 263.465 19.3663 263.069 19.447C262.674 19.5277 262.228 19.437 261.733 19.1747C261.14 18.8116 260.516 18.5493 259.863 18.3879C259.21 18.2265 258.547 18.1458 257.874 18.1458C256.547 18.1458 255.429 18.4182 254.519 18.9629C253.628 19.4874 252.955 20.254 252.5 21.2627C252.044 22.2714 251.817 23.5122 251.817 24.9849C251.817 26.4374 252.044 27.6781 252.5 28.707C252.955 29.7359 253.628 30.5227 254.519 31.0674C255.429 31.5919 256.547 31.8542 257.874 31.8542C258.507 31.8542 259.15 31.7735 259.804 31.6121C260.476 31.4507 261.12 31.1985 261.733 30.8556C262.248 30.5933 262.703 30.5025 263.099 30.5832C263.515 30.6437 263.851 30.8253 264.109 31.1279C264.386 31.4104 264.554 31.7533 264.613 32.1568C264.692 32.5603 264.653 32.9638 264.495 33.3673C264.336 33.7707 264.039 34.1137 263.604 34.3962C262.871 34.9005 261.971 35.2939 260.902 35.5763C259.833 35.8588 258.774 36 257.725 36Z" fill="#F04A25"/>
    <path d="M271.053 35.9395C270.499 35.9395 270.044 35.8083 269.687 35.5461C269.351 35.2838 269.133 34.9308 269.034 34.4869C268.955 34.0431 269.044 33.5488 269.301 33.0041L276.902 16.0275C277.219 15.3416 277.595 14.8473 278.03 14.5447C278.466 14.2219 278.97 14.0605 279.544 14.0605C280.118 14.0605 280.623 14.2219 281.059 14.5447C281.494 14.8473 281.86 15.3416 282.157 16.0275L289.817 33.0041C290.075 33.5488 290.164 34.0532 290.085 34.5172C290.025 34.961 289.827 35.3141 289.491 35.5763C289.154 35.8184 288.719 35.9395 288.184 35.9395C287.511 35.9395 286.987 35.7781 286.611 35.4553C286.254 35.1325 285.938 34.6282 285.661 33.9422L283.879 29.7359L285.72 31.0371H273.339L275.18 29.7359L273.428 33.9422C273.131 34.6483 272.815 35.1628 272.478 35.4856C272.162 35.7882 271.686 35.9395 271.053 35.9395ZM279.485 19.326L275.685 28.5557L274.883 27.3755H284.176L283.375 28.5557L279.544 19.326H279.485Z" fill="#F04A25"/>
    <path d="M298.099 35.9395C297.347 35.9395 296.773 35.7276 296.377 35.304C295.981 34.8803 295.783 34.2852 295.783 33.5186V16.4814C295.783 15.7148 295.981 15.1197 296.377 14.696C296.773 14.2724 297.347 14.0605 298.099 14.0605C298.831 14.0605 299.395 14.2724 299.791 14.696C300.187 15.1197 300.385 15.7148 300.385 16.4814V22.8968H310.123V16.4814C310.123 15.7148 310.321 15.1197 310.717 14.696C311.113 14.2724 311.677 14.0605 312.409 14.0605C313.162 14.0605 313.736 14.2724 314.132 14.696C314.527 15.1197 314.725 15.7148 314.725 16.4814V33.5186C314.725 34.2852 314.527 34.8803 314.132 35.304C313.736 35.7276 313.162 35.9395 312.409 35.9395C311.677 35.9395 311.113 35.7276 310.717 35.304C310.321 34.8803 310.123 34.2852 310.123 33.5186V26.8006H300.385V33.5186C300.385 34.2852 300.187 34.8803 299.791 35.304C299.415 35.7276 298.851 35.9395 298.099 35.9395Z" fill="#F04A25"/>
    <path d="M332.073 36C329.816 36 327.886 35.5461 326.283 34.6382C324.68 33.7304 323.443 32.4594 322.572 30.8253C321.721 29.171 321.295 27.2242 321.295 24.9849C321.295 23.3104 321.532 21.8074 322.008 20.4759C322.502 19.1243 323.215 17.9743 324.145 17.0261C325.076 16.0578 326.204 15.3113 327.53 14.7868C328.876 14.2623 330.39 14 332.073 14C333.062 14 334.062 14.1311 335.071 14.3934C336.1 14.6355 336.991 14.9885 337.743 15.4525C338.238 15.735 338.575 16.088 338.753 16.5117C338.931 16.9354 338.98 17.359 338.901 17.7827C338.842 18.2063 338.674 18.5695 338.397 18.8721C338.139 19.1747 337.813 19.3663 337.417 19.447C337.021 19.5277 336.576 19.437 336.081 19.1747C335.487 18.8116 334.863 18.5493 334.21 18.3879C333.557 18.2265 332.894 18.1458 332.221 18.1458C330.895 18.1458 329.776 18.4182 328.866 18.9629C327.975 19.4874 327.302 20.254 326.847 21.2627C326.392 22.2714 326.164 23.5122 326.164 24.9849C326.164 26.4374 326.392 27.6781 326.847 28.707C327.302 29.7359 327.975 30.5227 328.866 31.0674C329.776 31.5919 330.895 31.8542 332.221 31.8542C332.854 31.8542 333.498 31.7735 334.151 31.6121C334.824 31.4507 335.467 31.1985 336.081 30.8556C336.595 30.5933 337.051 30.5025 337.446 30.5832C337.862 30.6437 338.199 30.8253 338.456 31.1279C338.733 31.4104 338.901 31.7533 338.961 32.1568C339.04 32.5603 339 32.9638 338.842 33.3673C338.684 33.7707 338.387 34.1137 337.951 34.3962C337.219 34.9005 336.318 35.2939 335.249 35.5763C334.181 35.8588 333.122 36 332.073 36Z" fill="#F04A25"/>
    <path d="M134.692 66.8328C134.467 66.8328 134.293 66.7683 134.169 66.6393C134.056 66.5103 134 66.3284 134 66.0938V58.7566C134 58.5103 134.056 58.3284 134.169 58.2111C134.293 58.0938 134.467 58.0352 134.692 58.0352C134.906 58.0352 135.069 58.0938 135.181 58.2111C135.305 58.3284 135.367 58.5103 135.367 58.7566V61.7126H139.837V58.7566C139.837 58.5103 139.893 58.3284 140.006 58.2111C140.129 58.0938 140.298 58.0352 140.512 58.0352C140.725 58.0352 140.894 58.0938 141.018 58.2111C141.141 58.3284 141.203 58.5103 141.203 58.7566V66.0938C141.203 66.3284 141.141 66.5103 141.018 66.6393C140.894 66.7683 140.725 66.8328 140.512 66.8328C140.298 66.8328 140.129 66.7683 140.006 66.6393C139.893 66.5103 139.837 66.3284 139.837 66.0938V62.8739H135.367V66.0938C135.367 66.3284 135.31 66.5103 135.198 66.6393C135.085 66.7683 134.917 66.8328 134.692 66.8328Z" fill="#6A777D"/>
    <path d="M146.499 66.868C145.936 66.868 145.43 66.7566 144.981 66.5337C144.542 66.2991 144.193 65.9824 143.935 65.5836C143.676 65.1848 143.547 64.739 143.547 64.2463C143.547 63.6129 143.698 63.1144 144.002 62.7507C144.317 62.3871 144.829 62.129 145.537 61.9765C146.257 61.824 147.235 61.7478 148.472 61.7478H149.231V62.6804H148.489C147.578 62.6804 146.859 62.7273 146.33 62.8211C145.813 62.9032 145.447 63.0499 145.234 63.261C145.031 63.4721 144.93 63.7713 144.93 64.1584C144.93 64.6393 145.087 65.0323 145.402 65.3372C145.728 65.6422 146.167 65.7947 146.718 65.7947C147.168 65.7947 147.561 65.6833 147.899 65.4604C148.247 65.2375 148.517 64.9326 148.709 64.5455C148.911 64.1584 149.012 63.7126 149.012 63.2082V61.2023C149.012 60.4751 148.872 59.9531 148.59 59.6364C148.309 59.3079 147.848 59.1437 147.207 59.1437C146.814 59.1437 146.42 59.1965 146.026 59.3021C145.633 59.4076 145.217 59.5777 144.778 59.8123C144.621 59.8944 144.486 59.9238 144.373 59.9003C144.261 59.8651 144.171 59.8006 144.103 59.7067C144.036 59.6129 143.996 59.5073 143.985 59.39C143.974 59.261 143.996 59.1378 144.053 59.0205C144.12 58.9032 144.221 58.8094 144.356 58.739C144.851 58.4809 145.34 58.2933 145.824 58.176C146.308 58.0587 146.769 58 147.207 58C147.916 58 148.5 58.1232 148.962 58.3695C149.423 58.6041 149.766 58.9677 149.991 59.4604C150.216 59.9413 150.328 60.5631 150.328 61.3255V66.0938C150.328 66.3284 150.272 66.5103 150.159 66.6393C150.058 66.7683 149.906 66.8328 149.704 66.8328C149.49 66.8328 149.327 66.7683 149.215 66.6393C149.102 66.5103 149.046 66.3284 149.046 66.0938V64.7214H149.198C149.108 65.1672 148.933 65.5484 148.675 65.8651C148.427 66.1818 148.118 66.4282 147.747 66.6041C147.376 66.7801 146.96 66.868 146.499 66.868Z" fill="#6A777D"/>
    <path d="M153.686 70C153.461 70 153.292 69.9355 153.18 69.8065C153.067 69.6892 153.011 69.5132 153.011 69.2786V58.7566C153.011 58.522 153.067 58.346 153.18 58.2287C153.292 58.0997 153.455 58.0352 153.669 58.0352C153.894 58.0352 154.063 58.0997 154.175 58.2287C154.299 58.346 154.361 58.522 154.361 58.7566V60.4282L154.175 60.1818C154.355 59.5132 154.709 58.9853 155.238 58.5982C155.778 58.1994 156.419 58 157.161 58C157.892 58 158.527 58.1818 159.067 58.5455C159.618 58.8974 160.04 59.4076 160.332 60.0762C160.636 60.7331 160.788 61.5191 160.788 62.434C160.788 63.3372 160.636 64.1232 160.332 64.7918C160.04 65.4487 159.624 65.9589 159.084 66.3226C158.544 66.6862 157.903 66.868 157.161 66.868C156.419 66.868 155.783 66.6745 155.255 66.2874C154.726 65.8886 154.366 65.3607 154.175 64.7038H154.378V69.2786C154.378 69.5132 154.316 69.6892 154.192 69.8065C154.068 69.9355 153.9 70 153.686 70ZM156.874 65.7243C157.391 65.7243 157.836 65.5953 158.207 65.3372C158.589 65.0792 158.882 64.7038 159.084 64.2111C159.298 63.7185 159.405 63.1261 159.405 62.434C159.405 61.3666 159.174 60.5513 158.713 59.9883C158.263 59.4252 157.65 59.1437 156.874 59.1437C156.368 59.1437 155.924 59.2727 155.542 59.5308C155.159 59.7771 154.861 60.1466 154.647 60.6393C154.445 61.1202 154.344 61.7185 154.344 62.434C154.344 63.4897 154.574 64.305 155.035 64.8798C155.497 65.4428 156.109 65.7243 156.874 65.7243Z" fill="#6A777D"/>
    <path d="M163.685 66.8328C163.461 66.8328 163.286 66.7683 163.162 66.6393C163.05 66.5103 162.994 66.3284 162.994 66.0938V58.8094C162.994 58.563 163.05 58.3812 163.162 58.2639C163.286 58.1349 163.461 58.0704 163.685 58.0704C163.899 58.0704 164.062 58.1349 164.175 58.2639C164.298 58.3812 164.36 58.563 164.36 58.8094V61.7302H165.895L168.392 58.3871C168.504 58.2463 168.628 58.1584 168.763 58.1232C168.898 58.0762 169.022 58.0762 169.134 58.1232C169.258 58.1584 169.353 58.2287 169.421 58.3343C169.5 58.4282 169.539 58.5455 169.539 58.6862C169.539 58.827 169.488 58.9736 169.387 59.1261L167.009 62.3109L166.621 61.8534C166.936 61.8886 167.211 61.9707 167.447 62.0997C167.683 62.2287 167.908 62.4223 168.122 62.6804C168.336 62.9384 168.566 63.2962 168.814 63.7537L170.028 65.8475C170.107 66.0117 170.135 66.1584 170.113 66.2874C170.101 66.4164 170.045 66.5337 169.944 66.6393C169.843 66.7331 169.725 66.7918 169.59 66.8152C169.466 66.8387 169.342 66.8211 169.218 66.7625C169.095 66.7038 168.982 66.5982 168.881 66.4457L167.548 64.1232C167.357 63.7947 167.177 63.5425 167.009 63.3666C166.84 63.1789 166.649 63.0499 166.435 62.9795C166.221 62.9091 165.957 62.8739 165.642 62.8739H164.36V66.0938C164.36 66.3284 164.298 66.5103 164.175 66.6393C164.062 66.7683 163.899 66.8328 163.685 66.8328Z" fill="#6A777D"/>
    <path d="M175.297 66.868C174.499 66.868 173.807 66.6862 173.223 66.3226C172.638 65.9589 172.182 65.4487 171.856 64.7918C171.541 64.1232 171.384 63.3372 171.384 62.434C171.384 61.7537 171.474 61.1437 171.654 60.6041C171.834 60.0528 172.098 59.5836 172.447 59.1965C172.795 58.8094 173.206 58.5161 173.678 58.3167C174.162 58.1056 174.701 58 175.297 58C176.096 58 176.788 58.1818 177.372 58.5455C177.957 58.9091 178.407 59.4252 178.722 60.0938C179.048 60.7507 179.211 61.5308 179.211 62.434C179.211 63.1144 179.121 63.7243 178.941 64.2639C178.761 64.8035 178.497 65.2727 178.148 65.6716C177.8 66.0587 177.384 66.3578 176.9 66.5689C176.428 66.7683 175.894 66.868 175.297 66.868ZM175.297 65.7243C175.804 65.7243 176.248 65.5953 176.63 65.3372C177.012 65.0792 177.305 64.7038 177.507 64.2111C177.721 63.7185 177.828 63.1261 177.828 62.434C177.828 61.3666 177.597 60.5513 177.136 59.9883C176.686 59.4252 176.073 59.1437 175.297 59.1437C174.78 59.1437 174.33 59.2727 173.948 59.5308C173.577 59.7771 173.284 60.1466 173.071 60.6393C172.868 61.1202 172.767 61.7185 172.767 62.434C172.767 63.4897 172.998 64.305 173.459 64.8798C173.92 65.4428 174.533 65.7243 175.297 65.7243Z" fill="#6A777D"/>
    <path d="M187.555 66.8328C187.341 66.8328 187.173 66.7683 187.049 66.6393C186.937 66.5103 186.88 66.3284 186.88 66.0938V59.3021H183.574V60.393C183.574 61.3079 183.529 62.1173 183.439 62.8211C183.36 63.5132 183.231 64.1114 183.051 64.6158C182.871 65.1202 182.629 65.5425 182.326 65.8827C182.033 66.2229 181.668 66.5103 181.229 66.7449C181.083 66.8153 180.943 66.8328 180.808 66.7977C180.673 66.7742 180.56 66.7214 180.47 66.6393C180.391 66.5455 180.335 66.434 180.302 66.305C180.279 66.176 180.296 66.0469 180.352 65.9179C180.408 65.7889 180.51 65.6833 180.656 65.6012C180.982 65.4135 181.246 65.1789 181.449 64.8974C181.662 64.6158 181.831 64.2639 181.955 63.8416C182.078 63.4194 182.163 62.9267 182.208 62.3636C182.264 61.7889 182.292 61.1144 182.292 60.3402V58.9677C182.292 58.6979 182.36 58.4985 182.494 58.3695C182.629 58.2287 182.821 58.1584 183.068 58.1584H187.471C187.718 58.1584 187.909 58.2287 188.044 58.3695C188.179 58.4985 188.247 58.6979 188.247 58.9677V66.0938C188.247 66.3284 188.185 66.5103 188.061 66.6393C187.949 66.7683 187.78 66.8328 187.555 66.8328Z" fill="#6A777D"/>
    <path d="M194.374 66.868C193.575 66.868 192.884 66.6862 192.299 66.3226C191.714 65.9589 191.259 65.4487 190.933 64.7918C190.618 64.1232 190.46 63.3372 190.46 62.434C190.46 61.7537 190.55 61.1437 190.73 60.6041C190.91 60.0528 191.174 59.5836 191.523 59.1965C191.872 58.8094 192.282 58.5161 192.755 58.3167C193.238 58.1056 193.778 58 194.374 58C195.172 58 195.864 58.1818 196.449 58.5455C197.034 58.9091 197.483 59.4252 197.798 60.0938C198.124 60.7507 198.288 61.5308 198.288 62.434C198.288 63.1144 198.198 63.7243 198.018 64.2639C197.838 64.8035 197.573 65.2727 197.225 65.6716C196.876 66.0587 196.46 66.3578 195.976 66.5689C195.504 66.7683 194.97 66.868 194.374 66.868ZM194.374 65.7243C194.88 65.7243 195.324 65.5953 195.707 65.3372C196.089 65.0792 196.381 64.7038 196.584 64.2111C196.797 63.7185 196.904 63.1261 196.904 62.434C196.904 61.3666 196.674 60.5513 196.213 59.9883C195.763 59.4252 195.15 59.1437 194.374 59.1437C193.857 59.1437 193.407 59.2727 193.024 59.5308C192.653 59.7771 192.361 60.1466 192.147 60.6393C191.945 61.1202 191.844 61.7185 191.844 62.434C191.844 63.4897 192.074 64.305 192.535 64.8798C192.996 65.4428 193.609 65.7243 194.374 65.7243Z" fill="#6A777D"/>
    <path d="M201.196 66.8328C200.971 66.8328 200.797 66.7683 200.673 66.6393C200.56 66.4985 200.504 66.305 200.504 66.0587V58.9677C200.504 58.6979 200.572 58.4985 200.707 58.3695C200.842 58.2287 201.033 58.1584 201.28 58.1584H205.75C205.964 58.1584 206.122 58.2053 206.223 58.2991C206.324 58.393 206.375 58.5337 206.375 58.7214C206.375 58.9091 206.324 59.0557 206.223 59.1613C206.122 59.2551 205.964 59.3021 205.75 59.3021H201.871V66.0587C201.871 66.5748 201.646 66.8328 201.196 66.8328Z" fill="#6A777D"/>
    <path d="M208.459 66.8328C208.335 66.8328 208.223 66.8035 208.122 66.7449C208.032 66.6979 207.959 66.6158 207.902 66.4985C207.857 66.3812 207.835 66.2346 207.835 66.0587V58.739C207.835 58.5044 207.891 58.3284 208.004 58.2111C208.116 58.0938 208.268 58.0352 208.459 58.0352C208.662 58.0352 208.813 58.0938 208.915 58.2111C209.027 58.3284 209.083 58.5044 209.083 58.739V65.3548H208.662L213.57 58.4927C213.66 58.3636 213.767 58.2581 213.891 58.176C214.015 58.0821 214.172 58.0352 214.363 58.0352C214.498 58.0352 214.611 58.0587 214.701 58.1056C214.791 58.1525 214.858 58.2346 214.903 58.3519C214.959 58.4575 214.987 58.6041 214.987 58.7918V66.129C214.987 66.3519 214.931 66.5279 214.819 66.6569C214.718 66.7742 214.566 66.8328 214.363 66.8328C214.161 66.8328 214.003 66.7742 213.891 66.6569C213.79 66.5279 213.739 66.3519 213.739 66.129V59.4956H214.161L209.235 66.3754C209.156 66.4927 209.055 66.5982 208.931 66.6921C208.819 66.7859 208.662 66.8328 208.459 66.8328Z" fill="#6A777D"/>
    <path d="M223.624 66.8328C223.41 66.8328 223.242 66.7683 223.118 66.6393C223.006 66.4985 222.949 66.3109 222.949 66.0762V63.2434C222.634 63.4428 222.291 63.5953 221.92 63.7009C221.56 63.7947 221.178 63.8416 220.773 63.8416C219.604 63.8416 218.738 63.5543 218.175 62.9795C217.613 62.393 217.332 61.5073 217.332 60.3226V58.7566C217.332 58.522 217.388 58.346 217.501 58.2287C217.624 58.0997 217.799 58.0352 218.024 58.0352C218.237 58.0352 218.4 58.0997 218.513 58.2287C218.636 58.346 218.698 58.522 218.698 58.7566V60.217C218.698 61.0616 218.873 61.6774 219.221 62.0645C219.581 62.4516 220.155 62.6452 220.942 62.6452C221.347 62.6452 221.707 62.5982 222.022 62.5044C222.336 62.4106 222.64 62.2581 222.932 62.0469V58.7742C222.932 58.2815 223.157 58.0352 223.607 58.0352C223.832 58.0352 224.001 58.0997 224.113 58.2287C224.237 58.3578 224.299 58.5396 224.299 58.7742V66.0762C224.299 66.3109 224.243 66.4985 224.13 66.6393C224.018 66.7683 223.849 66.8328 223.624 66.8328Z" fill="#6A777D"/>
    <path d="M230.705 66.868C229.839 66.868 229.091 66.6921 228.461 66.3402C227.843 65.9765 227.359 65.4663 227.011 64.8094C226.673 64.1525 226.505 63.3666 226.505 62.4516C226.505 61.5601 226.673 60.7859 227.011 60.129C227.348 59.4604 227.809 58.9384 228.394 58.563C228.99 58.1877 229.676 58 230.452 58C231.003 58 231.498 58.0997 231.936 58.2991C232.375 58.4868 232.746 58.7625 233.05 59.1261C233.365 59.4897 233.601 59.9296 233.758 60.4457C233.927 60.9619 234.011 61.5425 234.011 62.1877C234.011 62.3754 233.961 62.5161 233.859 62.61C233.758 62.6921 233.612 62.7331 233.421 62.7331H227.55V61.8006H233.1L232.83 62.0293C232.83 61.3959 232.74 60.8622 232.561 60.4282C232.381 59.9824 232.116 59.6422 231.768 59.4076C231.43 59.173 231.003 59.0557 230.486 59.0557C229.912 59.0557 229.423 59.1965 229.018 59.478C228.624 59.7478 228.326 60.129 228.124 60.6217C227.922 61.1026 227.82 61.6657 227.82 62.3109V62.4164C227.82 63.4956 228.068 64.3167 228.563 64.8798C229.069 65.4428 229.783 65.7243 230.705 65.7243C231.087 65.7243 231.464 65.6716 231.835 65.566C232.218 65.4604 232.589 65.2845 232.949 65.0381C233.106 64.9326 233.247 64.8856 233.37 64.8974C233.505 64.8974 233.612 64.9384 233.691 65.0205C233.769 65.0909 233.82 65.1848 233.843 65.3021C233.876 65.4076 233.865 65.5249 233.809 65.654C233.764 65.783 233.668 65.8944 233.522 65.9883C233.151 66.2698 232.712 66.4868 232.206 66.6393C231.7 66.7918 231.2 66.868 230.705 66.868Z" fill="#6A777D"/>
    <path d="M239.629 66.868C238.808 66.868 238.099 66.6804 237.503 66.305C236.907 65.9296 236.446 65.4076 236.12 64.739C235.805 64.0587 235.647 63.2727 235.647 62.3812C235.647 61.7009 235.737 61.0909 235.917 60.5513C236.097 60.0117 236.362 59.5543 236.71 59.1789C237.059 58.7918 237.475 58.4985 237.958 58.2991C238.453 58.0997 239.01 58 239.629 58C240.033 58 240.455 58.0645 240.894 58.1935C241.332 58.3226 241.732 58.5455 242.091 58.8622C242.204 58.9443 242.277 59.044 242.311 59.1613C242.344 59.2786 242.344 59.3959 242.311 59.5132C242.277 59.6188 242.221 59.7126 242.142 59.7947C242.063 59.8651 241.962 59.9062 241.838 59.9179C241.726 59.9296 241.608 59.8886 241.484 59.7947C241.192 59.5601 240.894 59.3959 240.59 59.3021C240.286 59.2082 239.994 59.1613 239.713 59.1613C239.274 59.1613 238.892 59.2375 238.566 59.39C238.24 59.5308 237.964 59.7361 237.739 60.0059C237.514 60.2757 237.34 60.61 237.216 61.0088C237.104 61.4076 237.048 61.871 237.048 62.3988C237.048 63.4194 237.278 64.2287 237.739 64.827C238.2 65.4135 238.858 65.7067 239.713 65.7067C239.994 65.7067 240.281 65.6598 240.573 65.566C240.877 65.4721 241.18 65.3079 241.484 65.0733C241.608 64.9795 241.726 64.9384 241.838 64.9501C241.951 64.9619 242.046 65.0088 242.125 65.0909C242.204 65.1613 242.254 65.2551 242.277 65.3724C242.311 65.4897 242.311 65.607 242.277 65.7243C242.243 65.8299 242.17 65.9238 242.058 66.0059C241.698 66.3109 241.304 66.5337 240.877 66.6745C240.449 66.8035 240.033 66.868 239.629 66.868Z" fill="#6A777D"/>
    <path d="M244.801 66.8328C244.577 66.8328 244.402 66.7683 244.279 66.6393C244.166 66.5103 244.11 66.3284 244.11 66.0938V58.8094C244.11 58.563 244.166 58.3812 244.279 58.2639C244.402 58.1349 244.577 58.0704 244.801 58.0704C245.015 58.0704 245.178 58.1349 245.291 58.2639C245.414 58.3812 245.476 58.563 245.476 58.8094V61.7302H247.011L249.508 58.3871C249.62 58.2463 249.744 58.1584 249.879 58.1232C250.014 58.0762 250.138 58.0762 250.25 58.1232C250.374 58.1584 250.469 58.2287 250.537 58.3343C250.616 58.4282 250.655 58.5455 250.655 58.6862C250.655 58.827 250.604 58.9736 250.503 59.1261L248.125 62.3109L247.737 61.8534C248.052 61.8886 248.327 61.9707 248.563 62.0997C248.799 62.2287 249.024 62.4223 249.238 62.6804C249.452 62.9384 249.682 63.2962 249.93 63.7537L251.144 65.8475C251.223 66.0117 251.251 66.1584 251.229 66.2874C251.217 66.4164 251.161 66.5337 251.06 66.6393C250.959 66.7331 250.841 66.7918 250.706 66.8152C250.582 66.8387 250.458 66.8211 250.335 66.7625C250.211 66.7038 250.098 66.5982 249.997 66.4457L248.664 64.1232C248.473 63.7947 248.293 63.5425 248.125 63.3666C247.956 63.1789 247.765 63.0499 247.551 62.9795C247.337 62.9091 247.073 62.8739 246.758 62.8739H245.476V66.0938C245.476 66.3284 245.414 66.5103 245.291 66.6393C245.178 66.7683 245.015 66.8328 244.801 66.8328Z" fill="#6A777D"/>
    <path d="M255.587 66.868C255.025 66.868 254.519 66.7566 254.069 66.5337C253.63 66.2991 253.282 65.9824 253.023 65.5836C252.764 65.1848 252.635 64.739 252.635 64.2463C252.635 63.6129 252.787 63.1144 253.09 62.7507C253.405 62.3871 253.917 62.129 254.625 61.9765C255.345 61.824 256.324 61.7478 257.561 61.7478H258.32V62.6804H257.578C256.667 62.6804 255.947 62.7273 255.418 62.8211C254.901 62.9032 254.535 63.0499 254.322 63.261C254.119 63.4721 254.018 63.7713 254.018 64.1584C254.018 64.6393 254.176 65.0323 254.49 65.3372C254.817 65.6422 255.255 65.7947 255.806 65.7947C256.256 65.7947 256.65 65.6833 256.987 65.4604C257.336 65.2375 257.606 64.9326 257.797 64.5455C257.999 64.1584 258.1 63.7126 258.1 63.2082V61.2023C258.1 60.4751 257.96 59.9531 257.679 59.6364C257.398 59.3079 256.936 59.1437 256.295 59.1437C255.902 59.1437 255.508 59.1965 255.115 59.3021C254.721 59.4076 254.305 59.5777 253.866 59.8123C253.709 59.8944 253.574 59.9238 253.461 59.9003C253.349 59.8651 253.259 59.8006 253.192 59.7067C253.124 59.6129 253.085 59.5073 253.073 59.39C253.062 59.261 253.085 59.1378 253.141 59.0205C253.208 58.9032 253.31 58.8094 253.445 58.739C253.939 58.4809 254.429 58.2933 254.912 58.176C255.396 58.0587 255.857 58 256.295 58C257.004 58 257.589 58.1232 258.05 58.3695C258.511 58.6041 258.854 58.9677 259.079 59.4604C259.304 59.9413 259.416 60.5631 259.416 61.3255V66.0938C259.416 66.3284 259.36 66.5103 259.248 66.6393C259.146 66.7683 258.995 66.8328 258.792 66.8328C258.578 66.8328 258.415 66.7683 258.303 66.6393C258.19 66.5103 258.134 66.3284 258.134 66.0938V64.7214H258.286C258.196 65.1672 258.022 65.5484 257.763 65.8651C257.516 66.1818 257.206 66.4282 256.835 66.6041C256.464 66.7801 256.048 66.868 255.587 66.868Z" fill="#6A777D"/>
    <path d="M267.835 66.8328C267.621 66.8328 267.458 66.7742 267.346 66.6569C267.233 66.5279 267.177 66.3578 267.177 66.1466V63.4545H265.979C265.541 63.4545 265.164 63.5718 264.849 63.8065C264.534 64.0411 264.281 64.3284 264.09 64.6686L263.128 66.4282C263.027 66.6041 262.909 66.7214 262.774 66.7801C262.639 66.8387 262.504 66.8504 262.369 66.8152C262.234 66.7801 262.116 66.7097 262.015 66.6041C261.914 66.4985 261.852 66.3754 261.83 66.2346C261.807 66.0821 261.841 65.9238 261.931 65.7595L262.74 64.3343C262.932 63.9824 263.185 63.6892 263.5 63.4545C263.814 63.2199 264.135 63.1026 264.461 63.1026H264.68V63.261C263.758 63.261 263.044 63.0381 262.538 62.5924C262.032 62.1466 261.779 61.5249 261.779 60.7273C261.779 60.1994 261.886 59.7478 262.099 59.3724C262.324 58.9853 262.662 58.6862 263.112 58.4751C263.561 58.2639 264.118 58.1584 264.782 58.1584H267.751C267.987 58.1584 268.167 58.2229 268.29 58.3519C268.414 58.4809 268.476 58.6628 268.476 58.8974V66.1466C268.476 66.3578 268.414 66.5279 268.29 66.6569C268.178 66.7742 268.026 66.8328 267.835 66.8328ZM265.035 62.4164H267.177V59.1613H265.035C264.371 59.1613 263.882 59.3079 263.567 59.6012C263.252 59.8827 263.095 60.2757 263.095 60.7801C263.095 61.2962 263.252 61.7009 263.567 61.9941C263.882 62.2757 264.371 62.4164 265.035 62.4164Z" fill="#6A777D"/>
    <path d="M276.217 66.8328C275.992 66.8328 275.817 66.7683 275.694 66.6393C275.581 66.5103 275.525 66.3284 275.525 66.0938V58.8094C275.525 58.563 275.581 58.3812 275.694 58.2639C275.817 58.1349 275.992 58.0704 276.217 58.0704C276.43 58.0704 276.593 58.1349 276.706 58.2639C276.83 58.3812 276.891 58.563 276.891 58.8094V61.7302H278.427L280.923 58.3871C281.036 58.2463 281.159 58.1584 281.294 58.1232C281.429 58.0762 281.553 58.0762 281.665 58.1232C281.789 58.1584 281.885 58.2287 281.952 58.3343C282.031 58.4282 282.07 58.5455 282.07 58.6862C282.07 58.827 282.02 58.9736 281.918 59.1261L279.54 62.3109L279.152 61.8534C279.467 61.8886 279.742 61.9707 279.978 62.0997C280.215 62.2287 280.44 62.4223 280.653 62.6804C280.867 62.9384 281.097 63.2962 281.345 63.7537L282.559 65.8475C282.638 66.0117 282.666 66.1584 282.644 66.2874C282.633 66.4164 282.576 66.5337 282.475 66.6393C282.374 66.7331 282.256 66.7918 282.121 66.8152C281.997 66.8387 281.873 66.8211 281.75 66.7625C281.626 66.7038 281.514 66.5982 281.412 66.4457L280.08 64.1232C279.888 63.7947 279.709 63.5425 279.54 63.3666C279.371 63.1789 279.18 63.0499 278.966 62.9795C278.753 62.9091 278.488 62.8739 278.173 62.8739H276.891V66.0938C276.891 66.3284 276.83 66.5103 276.706 66.6393C276.593 66.7683 276.43 66.8328 276.217 66.8328Z" fill="#6A777D"/>
    <path d="M290.696 66.8328C290.483 66.8328 290.314 66.7683 290.19 66.6393C290.078 66.5103 290.022 66.3284 290.022 66.0938V59.3021H286.715V60.393C286.715 61.3079 286.67 62.1173 286.58 62.8211C286.502 63.5132 286.372 64.1114 286.192 64.6158C286.012 65.1202 285.771 65.5425 285.467 65.8827C285.175 66.2229 284.809 66.5103 284.371 66.7449C284.224 66.8153 284.084 66.8328 283.949 66.7977C283.814 66.7742 283.701 66.7214 283.611 66.6393C283.533 66.5455 283.477 66.434 283.443 66.305C283.42 66.176 283.437 66.0469 283.493 65.9179C283.55 65.7889 283.651 65.6833 283.797 65.6012C284.123 65.4135 284.387 65.1789 284.59 64.8974C284.804 64.6158 284.972 64.2639 285.096 63.8416C285.22 63.4194 285.304 62.9267 285.349 62.3636C285.405 61.7889 285.433 61.1144 285.433 60.3402V58.9677C285.433 58.6979 285.501 58.4985 285.636 58.3695C285.771 58.2287 285.962 58.1584 286.209 58.1584H290.612C290.86 58.1584 291.051 58.2287 291.186 58.3695C291.321 58.4985 291.388 58.6979 291.388 58.9677V66.0938C291.388 66.3284 291.326 66.5103 291.203 66.6393C291.09 66.7683 290.921 66.8328 290.696 66.8328Z" fill="#6A777D"/>
    <path d="M294.715 66.8328C294.591 66.8328 294.479 66.8035 294.378 66.7449C294.288 66.6979 294.215 66.6158 294.158 66.4985C294.113 66.3812 294.091 66.2346 294.091 66.0587V58.739C294.091 58.5044 294.147 58.3284 294.26 58.2111C294.372 58.0938 294.524 58.0352 294.715 58.0352C294.917 58.0352 295.069 58.0938 295.17 58.2111C295.283 58.3284 295.339 58.5044 295.339 58.739V65.3548H294.917L299.826 58.4927C299.916 58.3636 300.023 58.2581 300.147 58.176C300.27 58.0821 300.428 58.0352 300.619 58.0352C300.754 58.0352 300.867 58.0587 300.956 58.1056C301.046 58.1525 301.114 58.2346 301.159 58.3519C301.215 58.4575 301.243 58.6041 301.243 58.7918V66.129C301.243 66.3519 301.187 66.5279 301.075 66.6569C300.973 66.7742 300.822 66.8328 300.619 66.8328C300.417 66.8328 300.259 66.7742 300.147 66.6569C300.046 66.5279 299.995 66.3519 299.995 66.129V59.4956H300.417L295.491 66.3754C295.412 66.4927 295.311 66.5982 295.187 66.6921C295.075 66.7859 294.917 66.8328 294.715 66.8328Z" fill="#6A777D"/>
    <path d="M304.634 66.8328C304.409 66.8328 304.234 66.7683 304.111 66.6393C303.998 66.5103 303.942 66.3284 303.942 66.0938V58.7566C303.942 58.5103 303.998 58.3284 304.111 58.2111C304.234 58.0938 304.409 58.0352 304.634 58.0352C304.847 58.0352 305.01 58.0938 305.123 58.2111C305.247 58.3284 305.308 58.5103 305.308 58.7566V61.7126H309.779V58.7566C309.779 58.5103 309.835 58.3284 309.947 58.2111C310.071 58.0938 310.24 58.0352 310.453 58.0352C310.667 58.0352 310.836 58.0938 310.96 58.2111C311.083 58.3284 311.145 58.5103 311.145 58.7566V66.0938C311.145 66.3284 311.083 66.5103 310.96 66.6393C310.836 66.7683 310.667 66.8328 310.453 66.8328C310.24 66.8328 310.071 66.7683 309.947 66.6393C309.835 66.5103 309.779 66.3284 309.779 66.0938V62.8739H305.308V66.0938C305.308 66.3284 305.252 66.5103 305.14 66.6393C305.027 66.7683 304.859 66.8328 304.634 66.8328Z" fill="#6A777D"/>
    <path d="M314.467 66.8328C314.343 66.8328 314.231 66.8035 314.129 66.7449C314.039 66.6979 313.966 66.6158 313.91 66.4985C313.865 66.3812 313.843 66.2346 313.843 66.0587V58.739C313.843 58.5044 313.899 58.3284 314.011 58.2111C314.124 58.0938 314.276 58.0352 314.467 58.0352C314.669 58.0352 314.821 58.0938 314.922 58.2111C315.035 58.3284 315.091 58.5044 315.091 58.739V65.3548H314.669L319.578 58.4927C319.668 58.3636 319.775 58.2581 319.899 58.176C320.022 58.0821 320.18 58.0352 320.371 58.0352C320.506 58.0352 320.618 58.0587 320.708 58.1056C320.798 58.1525 320.866 58.2346 320.911 58.3519C320.967 58.4575 320.995 58.6041 320.995 58.7918V66.129C320.995 66.3519 320.939 66.5279 320.826 66.6569C320.725 66.7742 320.573 66.8328 320.371 66.8328C320.169 66.8328 320.011 66.7742 319.899 66.6569C319.797 66.5279 319.747 66.3519 319.747 66.129V59.4956H320.169L315.243 66.3754C315.164 66.4927 315.063 66.5982 314.939 66.6921C314.827 66.7859 314.669 66.8328 314.467 66.8328Z" fill="#6A777D"/>
    <path d="M324.386 66.8328C324.161 66.8328 323.986 66.7683 323.863 66.6393C323.75 66.5103 323.694 66.3284 323.694 66.0938V58.8094C323.694 58.563 323.75 58.3812 323.863 58.2639C323.986 58.1349 324.161 58.0704 324.386 58.0704C324.599 58.0704 324.762 58.1349 324.875 58.2639C324.998 58.3812 325.06 58.563 325.06 58.8094V61.7302H326.595L329.092 58.3871C329.204 58.2463 329.328 58.1584 329.463 58.1232C329.598 58.0762 329.722 58.0762 329.834 58.1232C329.958 58.1584 330.053 58.2287 330.121 58.3343C330.2 58.4282 330.239 58.5455 330.239 58.6862C330.239 58.827 330.188 58.9736 330.087 59.1261L327.709 62.3109L327.321 61.8534C327.636 61.8886 327.911 61.9707 328.147 62.0997C328.383 62.2287 328.608 62.4223 328.822 62.6804C329.036 62.9384 329.266 63.2962 329.514 63.7537L330.728 65.8475C330.807 66.0117 330.835 66.1584 330.813 66.2874C330.801 66.4164 330.745 66.5337 330.644 66.6393C330.543 66.7331 330.425 66.7918 330.29 66.8152C330.166 66.8387 330.042 66.8211 329.919 66.7625C329.795 66.7038 329.682 66.5982 329.581 66.4457L328.249 64.1232C328.057 63.7947 327.877 63.5425 327.709 63.3666C327.54 63.1789 327.349 63.0499 327.135 62.9795C326.921 62.9091 326.657 62.8739 326.342 62.8739H325.06V66.0938C325.06 66.3284 324.998 66.5103 324.875 66.6393C324.762 66.7683 324.599 66.8328 324.386 66.8328Z" fill="#6A777D"/>
    <path d="M335.171 66.868C334.609 66.868 334.103 66.7566 333.653 66.5337C333.214 66.2991 332.866 65.9824 332.607 65.5836C332.348 65.1848 332.219 64.739 332.219 64.2463C332.219 63.6129 332.371 63.1144 332.674 62.7507C332.989 62.3871 333.501 62.129 334.209 61.9765C334.929 61.824 335.908 61.7478 337.145 61.7478H337.904V62.6804H337.162C336.251 62.6804 335.531 62.7273 335.002 62.8211C334.485 62.9032 334.119 63.0499 333.906 63.261C333.703 63.4721 333.602 63.7713 333.602 64.1584C333.602 64.6393 333.76 65.0323 334.075 65.3372C334.401 65.6422 334.839 65.7947 335.39 65.7947C335.84 65.7947 336.234 65.6833 336.571 65.4604C336.92 65.2375 337.19 64.9326 337.381 64.5455C337.583 64.1584 337.684 63.7126 337.684 63.2082V61.2023C337.684 60.4751 337.544 59.9531 337.263 59.6364C336.982 59.3079 336.521 59.1437 335.879 59.1437C335.486 59.1437 335.092 59.1965 334.699 59.3021C334.305 59.4076 333.889 59.5777 333.45 59.8123C333.293 59.8944 333.158 59.9238 333.046 59.9003C332.933 59.8651 332.843 59.8006 332.776 59.7067C332.708 59.6129 332.669 59.5073 332.658 59.39C332.646 59.261 332.669 59.1378 332.725 59.0205C332.792 58.9032 332.894 58.8094 333.029 58.739C333.523 58.4809 334.013 58.2933 334.496 58.176C334.98 58.0587 335.441 58 335.879 58C336.588 58 337.173 58.1232 337.634 58.3695C338.095 58.6041 338.438 58.9677 338.663 59.4604C338.888 59.9413 339 60.5631 339 61.3255V66.0938C339 66.3284 338.944 66.5103 338.832 66.6393C338.73 66.7683 338.579 66.8328 338.376 66.8328C338.162 66.8328 337.999 66.7683 337.887 66.6393C337.774 66.5103 337.718 66.3284 337.718 66.0938V64.7214H337.87C337.78 65.1672 337.606 65.5484 337.347 65.8651C337.1 66.1818 336.79 66.4282 336.419 66.6041C336.048 66.7801 335.632 66.868 335.171 66.868Z" fill="#6A777D"/>
</svg>
