<svg width="370" height="88" viewBox="0 0 370 88" fill="none" xmlns="http://www.w3.org/2000/svg">
    <path fill-rule="evenodd" clip-rule="evenodd" d="M46.6248 87.2957C41.2311 87.3499 33.4957 87.2925 33.0548 87.1236C32.4558 86.9019 31.7028 86.2026 31.3263 85.5204C31.0696 85.06 31.0354 83.9002 30.984 74.2132C30.9669 68.2952 30.8985 63.4347 30.8643 63.4347C30.83 63.4347 26.6885 65.7882 21.6742 68.6704C16.6599 71.5527 12.2446 73.9744 11.8681 74.0597C10.9268 74.2814 9.86577 73.9574 9.16411 73.2581C8.87318 72.9511 6.69974 69.3697 4.33805 65.2936L0.0596313 57.8919V56.681C0.0596313 55.6407 0.12809 55.4019 0.504593 54.8903C0.846863 54.4639 3.15721 53.0484 9.57484 49.3816C14.3153 46.6529 18.4911 44.2482 18.8504 44.0265L19.5179 43.6342L10.2936 38.3302C5.22797 35.4309 0.983772 32.958 0.863976 32.8557C0.299225 32.3952 -0.0601654 31.3208 0.00829315 30.3657C0.0767441 29.4789 0.401909 28.8649 4.16692 22.333C6.40881 18.4445 8.46245 14.9312 8.73627 14.539C9.59195 13.2599 11.1664 12.8165 12.5526 13.4475C12.9291 13.618 17.1904 16.0398 22.0336 18.8197C26.8596 21.5996 30.8471 23.8679 30.8814 23.8679C30.9156 23.8679 30.9669 19.0073 30.984 13.0723C31.0354 3.40229 31.0696 2.24258 31.3263 1.7821C31.7028 1.09991 32.4558 0.400673 33.0548 0.178963C33.4715 0.0218407 41.2104 -0.031884 46.6248 0.0177884V87.2957Z" fill="white"/>
    <path fill-rule="evenodd" clip-rule="evenodd" d="M59.3405 87.2957C64.7342 87.3499 72.4696 87.2925 72.9105 87.1236C73.5094 86.9019 74.2624 86.2026 74.6389 85.5204C74.8956 85.06 74.9299 83.9002 74.9812 74.2132C74.9983 68.2952 75.0668 63.4347 75.101 63.4347C75.1352 63.4347 79.2767 65.7882 84.2911 68.6704C89.3054 71.5527 93.7207 73.9744 94.0972 74.0597C95.0384 74.2814 96.0995 73.9574 96.8012 73.2581C97.0921 72.9511 99.2655 69.3697 101.627 65.2936L105.906 57.8919V56.681C105.906 55.6407 105.837 55.4019 105.461 54.8903C105.118 54.4639 102.808 53.0484 96.3904 49.3816C91.6499 46.6529 87.4742 44.2482 87.1148 44.0265L86.4474 43.6342L95.6716 38.3302C100.737 35.4309 104.981 32.958 105.101 32.8557C105.666 32.3952 106.025 31.3208 105.957 30.3657C105.889 29.4789 105.563 28.8649 101.798 22.333C99.5565 18.4445 97.5028 14.9312 97.229 14.539C96.3733 13.2599 94.7988 12.8165 93.4126 13.4475C93.0361 13.618 88.7748 16.0398 83.9317 18.8197C79.1056 21.5996 75.1181 23.8679 75.0839 23.8679C75.0497 23.8679 74.9983 19.0073 74.9812 13.0723C74.9299 3.40229 74.8956 2.24258 74.6389 1.7821C74.2624 1.09991 73.5094 0.400673 72.9105 0.178963C72.4938 0.0218407 64.7548 -0.031884 59.3405 0.0177884V87.2957Z" fill="white"/>
    <path d="M148.782 39.225C147.961 39.225 147.334 38.9938 146.902 38.5314C146.47 38.069 146.254 37.4195 146.254 36.5827V18.2519C146.254 17.3931 146.47 16.7436 146.902 16.3032C147.356 15.8628 147.993 15.6426 148.814 15.6426H156.688C159.238 15.6426 161.204 16.3032 162.586 17.6243C163.969 18.9234 164.66 20.74 164.66 23.074C164.66 25.4081 163.969 27.2356 162.586 28.5568C161.204 29.8779 159.238 30.5385 156.688 30.5385H151.277V36.5827C151.277 37.4195 151.061 38.069 150.629 38.5314C150.218 38.9938 149.602 39.225 148.782 39.225ZM151.277 26.5751H155.846C157.142 26.5751 158.125 26.2778 158.795 25.6833C159.486 25.0888 159.832 24.219 159.832 23.074C159.832 21.9291 159.486 21.0703 158.795 20.4978C158.125 19.9253 157.142 19.6391 155.846 19.6391H151.277V26.5751Z" fill="white"/>
    <path d="M173.638 38.9278C172.796 38.9278 172.148 38.6966 171.694 38.2342C171.24 37.7718 171.014 37.1112 171.014 36.2524V18.3179C171.014 17.4592 171.24 16.7986 171.694 16.3362C172.148 15.8738 172.796 15.6426 173.638 15.6426H184.948C185.596 15.6426 186.082 15.8188 186.406 16.1711C186.752 16.5014 186.924 16.9858 186.924 17.6243C186.924 18.2849 186.752 18.7913 186.406 19.1436C186.082 19.4739 185.596 19.6391 184.948 19.6391H175.809V25.0888H184.202C184.872 25.0888 185.369 25.2649 185.693 25.6172C186.039 25.9475 186.212 26.443 186.212 27.1035C186.212 27.7641 186.039 28.2705 185.693 28.6228C185.369 28.9531 184.872 29.1183 184.202 29.1183H175.809V34.9313H184.948C185.596 34.9313 186.082 35.1075 186.406 35.4598C186.752 35.79 186.924 36.2745 186.924 36.913C186.924 37.5736 186.752 38.08 186.406 38.4323C186.082 38.7626 185.596 38.9278 184.948 38.9278H173.638Z" fill="white"/>
    <path d="M196.402 39.225C195.581 39.225 194.955 38.9938 194.523 38.5314C194.09 38.069 193.874 37.4195 193.874 36.5827V17.9876C193.874 17.1509 194.09 16.5014 194.523 16.039C194.955 15.5766 195.581 15.3454 196.402 15.3454C197.201 15.3454 197.817 15.5766 198.249 16.039C198.681 16.5014 198.897 17.1509 198.897 17.9876V24.9897H209.526V17.9876C209.526 17.1509 209.742 16.5014 210.174 16.039C210.606 15.5766 211.222 15.3454 212.021 15.3454C212.842 15.3454 213.469 15.5766 213.901 16.039C214.333 16.5014 214.549 17.1509 214.549 17.9876V36.5827C214.549 37.4195 214.333 38.069 213.901 38.5314C213.469 38.9938 212.842 39.225 212.021 39.225C211.222 39.225 210.606 38.9938 210.174 38.5314C209.742 38.069 209.526 37.4195 209.526 36.5827V29.2504H198.897V36.5827C198.897 37.4195 198.681 38.069 198.249 38.5314C197.839 38.9938 197.223 39.225 196.402 39.225Z" fill="white"/>
    <path d="M225.025 38.9278C224.182 38.9278 223.534 38.6966 223.08 38.2342C222.627 37.7718 222.4 37.1112 222.4 36.2524V18.3179C222.4 17.4592 222.627 16.7986 223.08 16.3362C223.534 15.8738 224.182 15.6426 225.025 15.6426H236.334C236.982 15.6426 237.468 15.8188 237.792 16.1711C238.138 16.5014 238.311 16.9858 238.311 17.6243C238.311 18.2849 238.138 18.7913 237.792 19.1436C237.468 19.4739 236.982 19.6391 236.334 19.6391H227.196V25.0888H235.589C236.258 25.0888 236.755 25.2649 237.079 25.6172C237.425 25.9475 237.598 26.443 237.598 27.1035C237.598 27.7641 237.425 28.2705 237.079 28.6228C236.755 28.9531 236.258 29.1183 235.589 29.1183H227.196V34.9313H236.334C236.982 34.9313 237.468 35.1075 237.792 35.4598C238.138 35.79 238.311 36.2745 238.311 36.913C238.311 37.5736 238.138 38.08 237.792 38.4323C237.468 38.7626 236.982 38.9278 236.334 38.9278H225.025Z" fill="white"/>
    <path d="M256.343 39.2911C253.881 39.2911 251.774 38.7956 250.024 37.8048C248.274 36.8139 246.924 35.4267 245.974 33.6432C245.045 31.8376 244.58 29.7128 244.58 27.2687C244.58 25.4411 244.839 23.8007 245.358 22.3474C245.898 20.8721 246.676 19.617 247.691 18.5822C248.706 17.5252 249.938 16.7105 251.385 16.138C252.854 15.5655 254.507 15.2793 256.343 15.2793C257.423 15.2793 258.514 15.4224 259.616 15.7087C260.74 15.9729 261.712 16.3582 262.533 16.8647C263.073 17.1729 263.44 17.5583 263.634 18.0207C263.829 18.4831 263.883 18.9455 263.797 19.4079C263.732 19.8703 263.548 20.2666 263.246 20.5969C262.965 20.9272 262.608 21.1364 262.176 21.2244C261.744 21.3125 261.258 21.2134 260.718 20.9272C260.07 20.5308 259.389 20.2446 258.676 20.0684C257.964 19.8923 257.24 19.8042 256.505 19.8042C255.058 19.8042 253.837 20.1015 252.844 20.696C251.871 21.2685 251.137 22.1052 250.64 23.2062C250.143 24.3071 249.895 25.6613 249.895 27.2687C249.895 28.854 250.143 30.2082 250.64 31.3312C251.137 32.4542 251.871 33.3129 252.844 33.9074C253.837 34.4799 255.058 34.7662 256.505 34.7662C257.197 34.7662 257.899 34.6781 258.612 34.5019C259.346 34.3258 260.048 34.0505 260.718 33.6762C261.28 33.39 261.777 33.2909 262.209 33.379C262.662 33.445 263.03 33.6432 263.31 33.9735C263.613 34.2817 263.797 34.6561 263.861 35.0964C263.948 35.5368 263.905 35.9772 263.732 36.4176C263.559 36.858 263.235 37.2323 262.76 37.5406C261.96 38.091 260.977 38.5204 259.811 38.8287C258.644 39.1369 257.488 39.2911 256.343 39.2911Z" fill="white"/>
    <path d="M281.293 39.2911C278.83 39.2911 276.724 38.7956 274.974 37.8048C273.224 36.8139 271.874 35.4267 270.923 33.6432C269.994 31.8376 269.53 29.7128 269.53 27.2687C269.53 25.4411 269.789 23.8007 270.307 22.3474C270.848 20.8721 271.625 19.617 272.641 18.5822C273.656 17.5252 274.887 16.7105 276.335 16.138C277.804 15.5655 279.457 15.2793 281.293 15.2793C282.373 15.2793 283.464 15.4224 284.566 15.7087C285.689 15.9729 286.661 16.3582 287.482 16.8647C288.022 17.1729 288.39 17.5583 288.584 18.0207C288.778 18.4831 288.832 18.9455 288.746 19.4079C288.681 19.8703 288.498 20.2666 288.195 20.5969C287.914 20.9272 287.558 21.1364 287.126 21.2244C286.694 21.3125 286.208 21.2134 285.668 20.9272C285.019 20.5308 284.339 20.2446 283.626 20.0684C282.913 19.8923 282.189 19.8042 281.455 19.8042C280.007 19.8042 278.787 20.1015 277.793 20.696C276.821 21.2685 276.086 22.1052 275.589 23.2062C275.093 24.3071 274.844 25.6613 274.844 27.2687C274.844 28.854 275.093 30.2082 275.589 31.3312C276.086 32.4542 276.821 33.3129 277.793 33.9074C278.787 34.4799 280.007 34.7662 281.455 34.7662C282.146 34.7662 282.848 34.6781 283.561 34.5019C284.296 34.3258 284.998 34.0505 285.668 33.6762C286.229 33.39 286.726 33.2909 287.158 33.379C287.612 33.445 287.979 33.6432 288.26 33.9735C288.562 34.2817 288.746 34.6561 288.811 35.0964C288.897 35.5368 288.854 35.9772 288.681 36.4176C288.508 36.858 288.184 37.2323 287.709 37.5406C286.91 38.091 285.927 38.5204 284.76 38.8287C283.594 39.1369 282.438 39.2911 281.293 39.2911Z" fill="white"/>
    <path d="M295.839 39.225C295.235 39.225 294.738 39.0819 294.349 38.7956C293.982 38.5094 293.744 38.1241 293.636 37.6396C293.549 37.1552 293.647 36.6158 293.928 36.0212L302.223 17.4922C302.569 16.7436 302.979 16.2041 303.455 15.8738C303.93 15.5215 304.481 15.3454 305.107 15.3454C305.734 15.3454 306.285 15.5215 306.76 15.8738C307.235 16.2041 307.635 16.7436 307.959 17.4922L316.32 36.0212C316.6 36.6158 316.698 37.1662 316.611 37.6727C316.546 38.1571 316.33 38.5424 315.963 38.8287C315.596 39.0929 315.121 39.225 314.537 39.225C313.803 39.225 313.23 39.0489 312.82 38.6966C312.431 38.3443 312.085 37.7938 311.783 37.0451L309.839 32.4542L311.848 33.8744H298.335L300.344 32.4542L298.432 37.0451C298.108 37.8158 297.762 38.3773 297.395 38.7296C297.049 39.0599 296.531 39.225 295.839 39.225ZM305.043 21.0923L300.895 31.166L300.02 29.8779H310.163L309.288 31.166L305.107 21.0923H305.043Z" fill="white"/>
    <path d="M325.358 39.225C324.537 39.225 323.911 38.9938 323.479 38.5314C323.047 38.069 322.831 37.4195 322.831 36.5827V17.9876C322.831 17.1509 323.047 16.5014 323.479 16.039C323.911 15.5766 324.537 15.3454 325.358 15.3454C326.158 15.3454 326.773 15.5766 327.205 16.039C327.638 16.5014 327.854 17.1509 327.854 17.9876V24.9897H338.482V17.9876C338.482 17.1509 338.698 16.5014 339.131 16.039C339.563 15.5766 340.178 15.3454 340.978 15.3454C341.799 15.3454 342.425 15.5766 342.857 16.039C343.289 16.5014 343.505 17.1509 343.505 17.9876V36.5827C343.505 37.4195 343.289 38.069 342.857 38.5314C342.425 38.9938 341.799 39.225 340.978 39.225C340.178 39.225 339.563 38.9938 339.131 38.5314C338.698 38.069 338.482 37.4195 338.482 36.5827V29.2504H327.854V36.5827C327.854 37.4195 327.638 38.069 327.205 38.5314C326.795 38.9938 326.179 39.225 325.358 39.225Z" fill="white"/>
    <path d="M362.439 39.2911C359.976 39.2911 357.87 38.7956 356.12 37.8048C354.37 36.8139 353.02 35.4267 352.069 33.6432C351.14 31.8376 350.676 29.7128 350.676 27.2687C350.676 25.4411 350.935 23.8007 351.453 22.3474C351.993 20.8721 352.771 19.617 353.787 18.5822C354.802 17.5252 356.033 16.7105 357.481 16.138C358.95 15.5655 360.602 15.2793 362.439 15.2793C363.519 15.2793 364.61 15.4224 365.712 15.7087C366.835 15.9729 367.807 16.3582 368.628 16.8647C369.168 17.1729 369.536 17.5583 369.73 18.0207C369.924 18.4831 369.978 18.9455 369.892 19.4079C369.827 19.8703 369.644 20.2666 369.341 20.5969C369.06 20.9272 368.704 21.1364 368.272 21.2244C367.84 21.3125 367.354 21.2134 366.813 20.9272C366.165 20.5308 365.485 20.2446 364.772 20.0684C364.059 19.8923 363.335 19.8042 362.601 19.8042C361.153 19.8042 359.933 20.1015 358.939 20.696C357.967 21.2685 357.232 22.1052 356.735 23.2062C356.239 24.3071 355.99 25.6613 355.99 27.2687C355.99 28.854 356.239 30.2082 356.735 31.3312C357.232 32.4542 357.967 33.3129 358.939 33.9074C359.933 34.4799 361.153 34.7662 362.601 34.7662C363.292 34.7662 363.994 34.6781 364.707 34.5019C365.442 34.3258 366.144 34.0505 366.813 33.6762C367.375 33.39 367.872 33.2909 368.304 33.379C368.758 33.445 369.125 33.6432 369.406 33.9735C369.708 34.2817 369.892 34.6561 369.957 35.0964C370.043 35.5368 370 35.9772 369.827 36.4176C369.654 36.858 369.33 37.2323 368.855 37.5406C368.056 38.091 367.073 38.5204 365.906 38.8287C364.74 39.1369 363.584 39.2911 362.439 39.2911Z" fill="white"/>
    <path d="M147.009 72.9443C146.763 72.9443 146.573 72.8739 146.438 72.733C146.315 72.5922 146.254 72.3937 146.254 72.1377V64.1295C146.254 63.8606 146.315 63.6622 146.438 63.5342C146.573 63.4061 146.763 63.3421 147.009 63.3421C147.242 63.3421 147.42 63.4061 147.543 63.5342C147.678 63.6622 147.745 63.8606 147.745 64.1295V67.3558H152.624V64.1295C152.624 63.8606 152.686 63.6622 152.808 63.5342C152.943 63.4061 153.128 63.3421 153.361 63.3421C153.594 63.3421 153.778 63.4061 153.913 63.5342C154.048 63.6622 154.116 63.8606 154.116 64.1295V72.1377C154.116 72.3937 154.048 72.5922 153.913 72.733C153.778 72.8739 153.594 72.9443 153.361 72.9443C153.128 72.9443 152.943 72.8739 152.808 72.733C152.686 72.5922 152.624 72.3937 152.624 72.1377V68.6233H147.745V72.1377C147.745 72.3937 147.684 72.5922 147.561 72.733C147.438 72.8739 147.254 72.9443 147.009 72.9443Z" fill="white"/>
    <path d="M159.895 72.9827C159.282 72.9827 158.729 72.8611 158.238 72.6178C157.76 72.3617 157.379 72.0161 157.097 71.5808C156.814 71.1455 156.673 70.659 156.673 70.1212C156.673 69.4299 156.839 68.8858 157.17 68.4889C157.514 68.092 158.073 67.8103 158.846 67.6439C159.631 67.4774 160.699 67.3942 162.049 67.3942H162.878V68.4121H162.068C161.074 68.4121 160.288 68.4633 159.711 68.5657C159.147 68.6553 158.748 68.8153 158.514 69.0458C158.293 69.2762 158.183 69.6027 158.183 70.0252C158.183 70.5501 158.355 70.979 158.699 71.3119C159.054 71.6448 159.533 71.8112 160.135 71.8112C160.626 71.8112 161.055 71.6896 161.423 71.4463C161.804 71.2031 162.099 70.8702 162.307 70.4477C162.528 70.0252 162.639 69.5387 162.639 68.9882V66.7989C162.639 66.0051 162.485 65.4354 162.178 65.0897C161.871 64.7312 161.368 64.552 160.669 64.552C160.239 64.552 159.809 64.6096 159.38 64.7248C158.95 64.8401 158.496 65.0257 158.017 65.2818C157.845 65.3714 157.698 65.4034 157.575 65.3778C157.453 65.3394 157.354 65.269 157.281 65.1665C157.207 65.0641 157.164 64.9489 157.152 64.8209C157.14 64.68 157.164 64.5456 157.226 64.4176C157.299 64.2895 157.41 64.1871 157.557 64.1103C158.097 63.8286 158.631 63.6238 159.159 63.4958C159.687 63.3677 160.19 63.3037 160.669 63.3037C161.442 63.3037 162.08 63.4381 162.583 63.707C163.087 63.9631 163.461 64.3599 163.706 64.8977C163.952 65.4226 164.075 66.1011 164.075 66.9333V72.1377C164.075 72.3937 164.013 72.5922 163.891 72.733C163.78 72.8739 163.614 72.9443 163.393 72.9443C163.16 72.9443 162.982 72.8739 162.86 72.733C162.737 72.5922 162.675 72.3937 162.675 72.1377V70.6398H162.841C162.743 71.1263 162.553 71.5424 162.27 71.888C162 72.2337 161.663 72.5026 161.258 72.6946C160.853 72.8867 160.399 72.9827 159.895 72.9827Z" fill="white"/>
    <path d="M167.74 76.401C167.494 76.401 167.31 76.3306 167.187 76.1898C167.065 76.0618 167.003 75.8697 167.003 75.6137V64.1295C167.003 63.8734 167.065 63.6814 167.187 63.5534C167.31 63.4125 167.488 63.3421 167.721 63.3421C167.967 63.3421 168.151 63.4125 168.274 63.5534C168.409 63.6814 168.476 63.8734 168.476 64.1295V65.9539L168.274 65.685C168.47 64.9553 168.857 64.3792 169.434 63.9567C170.023 63.5214 170.722 63.3037 171.533 63.3037C172.33 63.3037 173.024 63.5022 173.613 63.899C174.214 64.2831 174.675 64.8401 174.994 65.5698C175.325 66.2868 175.491 67.1446 175.491 68.1432C175.491 69.129 175.325 69.9868 174.994 70.7166C174.675 71.4335 174.221 71.9905 173.631 72.3873C173.042 72.7842 172.343 72.9827 171.533 72.9827C170.722 72.9827 170.029 72.7714 169.452 72.3489C168.875 71.9136 168.482 71.3375 168.274 70.6205H168.495V75.6137C168.495 75.8697 168.427 76.0618 168.292 76.1898C168.157 76.3306 167.973 76.401 167.74 76.401ZM171.22 71.7344C171.784 71.7344 172.269 71.5936 172.674 71.3119C173.091 71.0302 173.411 70.6205 173.631 70.0828C173.865 69.5451 173.981 68.8986 173.981 68.1432C173.981 66.9781 173.73 66.0883 173.226 65.4738C172.735 64.8593 172.066 64.552 171.22 64.552C170.667 64.552 170.182 64.6928 169.765 64.9745C169.348 65.2433 169.022 65.6466 168.789 66.1844C168.568 66.7093 168.458 67.3622 168.458 68.1432C168.458 69.2955 168.709 70.1853 169.213 70.8126C169.716 71.4271 170.385 71.7344 171.22 71.7344Z" fill="white"/>
    <path d="M178.654 72.9443C178.408 72.9443 178.218 72.8739 178.083 72.733C177.96 72.5922 177.899 72.3937 177.899 72.1377V64.1871C177.899 63.9182 177.96 63.7198 178.083 63.5918C178.218 63.4509 178.408 63.3805 178.654 63.3805C178.887 63.3805 179.065 63.4509 179.188 63.5918C179.323 63.7198 179.39 63.9182 179.39 64.1871V67.375H181.066L183.79 63.7262C183.913 63.5726 184.048 63.4765 184.196 63.4381C184.343 63.3869 184.478 63.3869 184.601 63.4381C184.736 63.4765 184.84 63.5534 184.914 63.6686C184.999 63.771 185.042 63.899 185.042 64.0527C185.042 64.2063 184.987 64.3663 184.877 64.5328L182.281 68.0088L181.857 67.5095C182.201 67.5479 182.502 67.6375 182.759 67.7783C183.017 67.9191 183.263 68.1304 183.496 68.4121C183.729 68.6937 183.981 69.0842 184.251 69.5835L185.576 71.8688C185.662 72.0481 185.693 72.2081 185.668 72.3489C185.656 72.4898 185.595 72.6178 185.484 72.733C185.374 72.8354 185.245 72.8995 185.098 72.9251C184.963 72.9507 184.828 72.9315 184.693 72.8675C184.558 72.8034 184.435 72.6882 184.324 72.5218L182.87 69.9868C182.661 69.6283 182.465 69.3531 182.281 69.161C182.097 68.9562 181.888 68.8153 181.655 68.7385C181.422 68.6617 181.133 68.6233 180.789 68.6233H179.39V72.1377C179.39 72.3937 179.323 72.5922 179.188 72.733C179.065 72.8739 178.887 72.9443 178.654 72.9443Z" fill="white"/>
    <path d="M191.328 72.9827C190.456 72.9827 189.701 72.7842 189.063 72.3873C188.425 71.9905 187.928 71.4335 187.572 70.7166C187.228 69.9868 187.056 69.129 187.056 68.1432C187.056 67.4006 187.154 66.7349 187.351 66.1459C187.547 65.5442 187.835 65.0321 188.216 64.6096C188.596 64.1871 189.045 63.867 189.56 63.6494C190.088 63.4189 190.677 63.3037 191.328 63.3037C192.199 63.3037 192.954 63.5022 193.592 63.899C194.23 64.2959 194.721 64.8593 195.065 65.589C195.421 66.306 195.599 67.1574 195.599 68.1432C195.599 68.8858 195.501 69.5515 195.304 70.1404C195.108 70.7294 194.82 71.2415 194.439 71.6768C194.059 72.0993 193.604 72.4258 193.077 72.6562C192.561 72.8739 191.978 72.9827 191.328 72.9827ZM191.328 71.7344C191.88 71.7344 192.365 71.5936 192.782 71.3119C193.199 71.0302 193.519 70.6205 193.739 70.0828C193.973 69.5451 194.089 68.8986 194.089 68.1432C194.089 66.9781 193.838 66.0883 193.334 65.4738C192.843 64.8593 192.174 64.552 191.328 64.552C190.763 64.552 190.272 64.6928 189.855 64.9745C189.45 65.2433 189.13 65.6466 188.897 66.1844C188.676 66.7093 188.566 67.3622 188.566 68.1432C188.566 69.2955 188.817 70.1853 189.321 70.8126C189.824 71.4271 190.493 71.7344 191.328 71.7344Z" fill="white"/>
    <path d="M204.706 72.9443C204.473 72.9443 204.289 72.8739 204.154 72.733C204.031 72.5922 203.97 72.3937 203.97 72.1377V64.7248H200.361V65.9155C200.361 66.9141 200.312 67.7975 200.214 68.5657C200.128 69.3211 199.987 69.974 199.79 70.5245C199.594 71.0751 199.33 71.536 198.999 71.9072C198.679 72.2785 198.28 72.5922 197.802 72.8482C197.642 72.9251 197.489 72.9443 197.342 72.9059C197.194 72.8803 197.071 72.8226 196.973 72.733C196.887 72.6306 196.826 72.509 196.789 72.3681C196.765 72.2273 196.783 72.0865 196.844 71.9456C196.906 71.8048 197.016 71.6896 197.176 71.6C197.532 71.3951 197.82 71.1391 198.041 70.8318C198.274 70.5245 198.458 70.1404 198.593 69.6795C198.729 69.2186 198.821 68.6809 198.87 68.0664C198.931 67.439 198.962 66.7029 198.962 65.8579V64.3599C198.962 64.0655 199.035 63.8478 199.183 63.707C199.33 63.5534 199.539 63.4765 199.809 63.4765H204.614C204.884 63.4765 205.093 63.5534 205.24 63.707C205.387 63.8478 205.461 64.0655 205.461 64.3599V72.1377C205.461 72.3937 205.393 72.5922 205.258 72.733C205.136 72.8739 204.952 72.9443 204.706 72.9443Z" fill="white"/>
    <path d="M212.148 72.9827C211.277 72.9827 210.522 72.7842 209.884 72.3873C209.246 71.9905 208.748 71.4335 208.392 70.7166C208.049 69.9868 207.877 69.129 207.877 68.1432C207.877 67.4006 207.975 66.7349 208.172 66.1459C208.368 65.5442 208.656 65.0321 209.037 64.6096C209.417 64.1871 209.865 63.867 210.381 63.6494C210.909 63.4189 211.498 63.3037 212.148 63.3037C213.02 63.3037 213.775 63.5022 214.413 63.899C215.051 64.2959 215.542 64.8593 215.886 65.589C216.242 66.306 216.42 67.1574 216.42 68.1432C216.42 68.8858 216.322 69.5515 216.125 70.1404C215.929 70.7294 215.64 71.2415 215.26 71.6768C214.879 72.0993 214.425 72.4258 213.898 72.6562C213.382 72.8739 212.799 72.9827 212.148 72.9827ZM212.148 71.7344C212.701 71.7344 213.186 71.5936 213.603 71.3119C214.02 71.0302 214.339 70.6205 214.56 70.0828C214.794 69.5451 214.91 68.8986 214.91 68.1432C214.91 66.9781 214.659 66.0883 214.155 65.4738C213.664 64.8593 212.995 64.552 212.148 64.552C211.584 64.552 211.093 64.6928 210.675 64.9745C210.27 65.2433 209.951 65.6466 209.718 66.1844C209.497 66.7093 209.387 67.3622 209.387 68.1432C209.387 69.2955 209.638 70.1853 210.142 70.8126C210.645 71.4271 211.314 71.7344 212.148 71.7344Z" fill="white"/>
    <path d="M219.594 72.9443C219.349 72.9443 219.158 72.8739 219.023 72.733C218.901 72.5794 218.839 72.3681 218.839 72.0993V64.3599C218.839 64.0655 218.913 63.8478 219.06 63.707C219.208 63.5534 219.416 63.4765 219.686 63.4765H224.565C224.799 63.4765 224.97 63.5278 225.081 63.6302C225.191 63.7326 225.247 63.8862 225.247 64.0911C225.247 64.2959 225.191 64.456 225.081 64.5712C224.97 64.6736 224.799 64.7248 224.565 64.7248H220.331V72.0993C220.331 72.6626 220.085 72.9443 219.594 72.9443Z" fill="white"/>
    <path d="M227.522 72.9443C227.387 72.9443 227.264 72.9123 227.153 72.8482C227.055 72.797 226.975 72.7074 226.914 72.5794C226.865 72.4514 226.84 72.2913 226.84 72.0993V64.1103C226.84 63.8542 226.902 63.6622 227.025 63.5342C227.147 63.4061 227.313 63.3421 227.522 63.3421C227.743 63.3421 227.908 63.4061 228.019 63.5342C228.141 63.6622 228.203 63.8542 228.203 64.1103V71.3311H227.743L233.1 63.8414C233.199 63.7006 233.315 63.5854 233.45 63.4958C233.585 63.3933 233.757 63.3421 233.966 63.3421C234.113 63.3421 234.236 63.3677 234.334 63.4189C234.432 63.4701 234.506 63.5598 234.555 63.6878C234.616 63.803 234.647 63.9631 234.647 64.1679V72.1761C234.647 72.4194 234.586 72.6114 234.463 72.7522C234.352 72.8803 234.187 72.9443 233.966 72.9443C233.745 72.9443 233.573 72.8803 233.45 72.7522C233.34 72.6114 233.284 72.4194 233.284 72.1761V64.9361H233.745L228.369 72.445C228.283 72.573 228.172 72.6882 228.037 72.7906C227.914 72.8931 227.743 72.9443 227.522 72.9443Z" fill="white"/>
    <path d="M244.073 72.9443C243.84 72.9443 243.656 72.8739 243.521 72.733C243.398 72.5794 243.337 72.3745 243.337 72.1185V69.0266C242.993 69.2442 242.619 69.4107 242.214 69.5259C241.821 69.6283 241.404 69.6795 240.962 69.6795C239.685 69.6795 238.74 69.3659 238.126 68.7385C237.513 68.0984 237.206 67.1318 237.206 65.8387V64.1295C237.206 63.8734 237.267 63.6814 237.39 63.5534C237.525 63.4125 237.715 63.3421 237.961 63.3421C238.194 63.3421 238.372 63.4125 238.495 63.5534C238.63 63.6814 238.697 63.8734 238.697 64.1295V65.7235C238.697 66.6453 238.887 67.3174 239.268 67.7399C239.661 68.1624 240.287 68.3736 241.146 68.3736C241.588 68.3736 241.981 68.3224 242.324 68.22C242.668 68.1176 242.999 67.9512 243.318 67.7207V64.1487C243.318 63.611 243.564 63.3421 244.055 63.3421C244.3 63.3421 244.485 63.4125 244.607 63.5534C244.742 63.6942 244.81 63.8926 244.81 64.1487V72.1185C244.81 72.3745 244.748 72.5794 244.626 72.733C244.503 72.8739 244.319 72.9443 244.073 72.9443Z" fill="white"/>
    <path d="M251.802 72.9827C250.857 72.9827 250.04 72.7906 249.353 72.4065C248.678 72.0097 248.15 71.4527 247.77 70.7358C247.401 70.0188 247.217 69.161 247.217 68.1624C247.217 67.1894 247.401 66.3444 247.77 65.6274C248.138 64.8977 248.641 64.3279 249.279 63.9182C249.93 63.5086 250.679 63.3037 251.526 63.3037C252.127 63.3037 252.667 63.4125 253.146 63.6302C253.624 63.835 254.03 64.1359 254.361 64.5328C254.705 64.9297 254.962 65.4098 255.134 65.9731C255.318 66.5364 255.41 67.1702 255.41 67.8743C255.41 68.0792 255.355 68.2328 255.245 68.3352C255.134 68.4249 254.975 68.4697 254.766 68.4697H248.359V67.4518H254.416L254.122 67.7015C254.122 67.0101 254.023 66.4276 253.827 65.9539C253.631 65.4674 253.342 65.0961 252.962 64.8401C252.593 64.584 252.127 64.456 251.562 64.456C250.936 64.456 250.402 64.6096 249.961 64.9169C249.531 65.2113 249.206 65.6274 248.985 66.1652C248.764 66.6901 248.653 67.3046 248.653 68.0088V68.124C248.653 69.3019 248.923 70.1981 249.463 70.8126C250.016 71.4271 250.795 71.7344 251.802 71.7344C252.219 71.7344 252.63 71.6768 253.035 71.5616C253.453 71.4463 253.858 71.2543 254.25 70.9854C254.422 70.8702 254.576 70.819 254.711 70.8318C254.858 70.8318 254.975 70.8766 255.061 70.9662C255.146 71.043 255.202 71.1455 255.226 71.2735C255.263 71.3887 255.251 71.5168 255.189 71.6576C255.14 71.7984 255.036 71.92 254.876 72.0225C254.471 72.3297 253.993 72.5666 253.44 72.733C252.888 72.8995 252.342 72.9827 251.802 72.9827Z" fill="white"/>
    <path d="M261.541 72.9827C260.645 72.9827 259.872 72.7778 259.221 72.3681C258.571 71.9584 258.068 71.3887 257.712 70.659C257.368 69.9164 257.196 69.0586 257.196 68.0856C257.196 67.343 257.294 66.6773 257.491 66.0883C257.687 65.4994 257.976 65.0001 258.356 64.5904C258.737 64.1679 259.191 63.8478 259.719 63.6302C260.259 63.4125 260.866 63.3037 261.541 63.3037C261.983 63.3037 262.443 63.3741 262.922 63.515C263.401 63.6558 263.837 63.899 264.229 64.2447C264.352 64.3343 264.432 64.4432 264.469 64.5712C264.506 64.6992 264.506 64.8273 264.469 64.9553C264.432 65.0705 264.371 65.1729 264.285 65.2626C264.199 65.3394 264.088 65.3842 263.953 65.397C263.83 65.4098 263.702 65.365 263.567 65.2626C263.247 65.0065 262.922 64.8273 262.591 64.7248C262.259 64.6224 261.94 64.5712 261.633 64.5712C261.155 64.5712 260.737 64.6544 260.381 64.8209C260.025 64.9745 259.725 65.1985 259.479 65.493C259.234 65.7875 259.043 66.1523 258.908 66.5876C258.786 67.0229 258.724 67.5287 258.724 68.1048C258.724 69.2186 258.976 70.102 259.479 70.755C259.982 71.3951 260.701 71.7152 261.633 71.7152C261.94 71.7152 262.253 71.664 262.572 71.5616C262.904 71.4591 263.235 71.2799 263.567 71.0238C263.702 70.9214 263.83 70.8766 263.953 70.8894C264.076 70.9022 264.18 70.9534 264.266 71.043C264.352 71.1199 264.407 71.2223 264.432 71.3503C264.469 71.4783 264.469 71.6064 264.432 71.7344C264.395 71.8496 264.315 71.952 264.193 72.0417C263.8 72.3745 263.37 72.6178 262.904 72.7714C262.437 72.9123 261.983 72.9827 261.541 72.9827Z" fill="white"/>
    <path d="M267.187 72.9443C266.942 72.9443 266.752 72.8739 266.617 72.733C266.494 72.5922 266.432 72.3937 266.432 72.1377V64.1871C266.432 63.9182 266.494 63.7198 266.617 63.5918C266.752 63.4509 266.942 63.3805 267.187 63.3805C267.421 63.3805 267.599 63.4509 267.721 63.5918C267.856 63.7198 267.924 63.9182 267.924 64.1871V67.375H269.599L272.324 63.7262C272.447 63.5726 272.582 63.4765 272.729 63.4381C272.876 63.3869 273.012 63.3869 273.134 63.4381C273.269 63.4765 273.374 63.5534 273.447 63.6686C273.533 63.771 273.576 63.899 273.576 64.0527C273.576 64.2063 273.521 64.3663 273.41 64.5328L270.814 68.0088L270.391 67.5095C270.735 67.5479 271.035 67.6375 271.293 67.7783C271.551 67.9191 271.796 68.1304 272.03 68.4121C272.263 68.6937 272.514 69.0842 272.784 69.5835L274.11 71.8688C274.196 72.0481 274.227 72.2081 274.202 72.3489C274.19 72.4898 274.128 72.6178 274.018 72.733C273.908 72.8354 273.779 72.8995 273.631 72.9251C273.496 72.9507 273.361 72.9315 273.226 72.8675C273.091 72.8034 272.969 72.6882 272.858 72.5218L271.404 69.9868C271.195 69.6283 270.999 69.3531 270.814 69.161C270.63 68.9562 270.422 68.8153 270.188 68.7385C269.955 68.6617 269.667 68.6233 269.323 68.6233H267.924V72.1377C267.924 72.3937 267.856 72.5922 267.721 72.733C267.599 72.8739 267.421 72.9443 267.187 72.9443Z" fill="white"/>
    <path d="M278.959 72.9827C278.345 72.9827 277.793 72.8611 277.302 72.6178C276.823 72.3617 276.443 72.0161 276.161 71.5808C275.878 71.1455 275.737 70.659 275.737 70.1212C275.737 69.4299 275.903 68.8858 276.234 68.4889C276.578 68.092 277.136 67.8103 277.91 67.6439C278.695 67.4774 279.763 67.3942 281.113 67.3942H281.942V68.4121H281.132C280.137 68.4121 279.352 68.4633 278.775 68.5657C278.21 68.6553 277.811 68.8153 277.578 69.0458C277.357 69.2762 277.247 69.6027 277.247 70.0252C277.247 70.5501 277.419 70.979 277.762 71.3119C278.118 71.6448 278.597 71.8112 279.198 71.8112C279.689 71.8112 280.119 71.6896 280.487 71.4463C280.868 71.2031 281.162 70.8702 281.371 70.4477C281.592 70.0252 281.702 69.5387 281.702 68.9882V66.7989C281.702 66.0051 281.549 65.4354 281.242 65.0897C280.935 64.7312 280.432 64.552 279.732 64.552C279.303 64.552 278.873 64.6096 278.444 64.7248C278.014 64.8401 277.56 65.0257 277.081 65.2818C276.909 65.3714 276.762 65.4034 276.639 65.3778C276.516 65.3394 276.418 65.269 276.345 65.1665C276.271 65.0641 276.228 64.9489 276.216 64.8209C276.203 64.68 276.228 64.5456 276.289 64.4176C276.363 64.2895 276.473 64.1871 276.621 64.1103C277.161 63.8286 277.695 63.6238 278.223 63.4958C278.75 63.3677 279.254 63.3037 279.732 63.3037C280.506 63.3037 281.144 63.4381 281.647 63.707C282.15 63.9631 282.525 64.3599 282.77 64.8977C283.016 65.4226 283.138 66.1011 283.138 66.9333V72.1377C283.138 72.3937 283.077 72.5922 282.954 72.733C282.844 72.8739 282.678 72.9443 282.457 72.9443C282.224 72.9443 282.046 72.8739 281.923 72.733C281.801 72.5922 281.739 72.3937 281.739 72.1377V70.6398H281.905C281.807 71.1263 281.616 71.5424 281.334 71.888C281.064 72.2337 280.727 72.5026 280.322 72.6946C279.916 72.8867 279.462 72.9827 278.959 72.9827Z" fill="white"/>
    <path d="M292.327 72.9443C292.094 72.9443 291.916 72.8803 291.793 72.7522C291.67 72.6114 291.609 72.4258 291.609 72.1953V69.257H290.302C289.823 69.257 289.412 69.3851 289.068 69.6411C288.724 69.8972 288.448 70.2109 288.24 70.5821L287.19 72.5026C287.08 72.6946 286.951 72.8226 286.804 72.8867C286.656 72.9507 286.509 72.9635 286.362 72.9251C286.214 72.8867 286.085 72.8098 285.975 72.6946C285.865 72.5794 285.797 72.445 285.772 72.2913C285.748 72.1249 285.785 71.952 285.883 71.7728L286.767 70.2173C286.975 69.8332 287.252 69.5131 287.595 69.257C287.939 69.001 288.289 68.873 288.645 68.873H288.884V69.0458C287.878 69.0458 287.098 68.8025 286.546 68.316C285.993 67.8295 285.717 67.151 285.717 66.2804C285.717 65.7042 285.834 65.2113 286.067 64.8016C286.313 64.3792 286.681 64.0527 287.172 63.8222C287.663 63.5918 288.27 63.4765 288.995 63.4765H292.235C292.493 63.4765 292.689 63.547 292.824 63.6878C292.959 63.8286 293.027 64.0271 293.027 64.2831V72.1953C293.027 72.4258 292.959 72.6114 292.824 72.7522C292.701 72.8803 292.536 72.9443 292.327 72.9443ZM289.271 68.124H291.609V64.5712H289.271C288.546 64.5712 288.013 64.7312 287.669 65.0513C287.325 65.3586 287.153 65.7875 287.153 66.338C287.153 66.9013 287.325 67.343 287.669 67.6631C288.013 67.9704 288.546 68.124 289.271 68.124Z" fill="white"/>
    <path d="M301.475 72.9443C301.23 72.9443 301.039 72.8739 300.904 72.733C300.782 72.5922 300.72 72.3937 300.72 72.1377V64.1871C300.72 63.9182 300.782 63.7198 300.904 63.5918C301.039 63.4509 301.23 63.3805 301.475 63.3805C301.708 63.3805 301.886 63.4509 302.009 63.5918C302.144 63.7198 302.212 63.9182 302.212 64.1871V67.375H303.887L306.612 63.7262C306.735 63.5726 306.87 63.4765 307.017 63.4381C307.164 63.3869 307.299 63.3869 307.422 63.4381C307.557 63.4765 307.662 63.5534 307.735 63.6686C307.821 63.771 307.864 63.899 307.864 64.0527C307.864 64.2063 307.809 64.3663 307.698 64.5328L305.102 68.0088L304.679 67.5095C305.023 67.5479 305.323 67.6375 305.581 67.7783C305.839 67.9191 306.084 68.1304 306.317 68.4121C306.551 68.6937 306.802 69.0842 307.072 69.5835L308.398 71.8688C308.484 72.0481 308.515 72.2081 308.49 72.3489C308.478 72.4898 308.416 72.6178 308.306 72.733C308.195 72.8354 308.067 72.8995 307.919 72.9251C307.784 72.9507 307.649 72.9315 307.514 72.8675C307.379 72.8034 307.256 72.6882 307.146 72.5218L305.691 69.9868C305.483 69.6283 305.286 69.3531 305.102 69.161C304.918 68.9562 304.71 68.8153 304.476 68.7385C304.243 68.6617 303.955 68.6233 303.611 68.6233H302.212V72.1377C302.212 72.3937 302.144 72.5922 302.009 72.733C301.886 72.8739 301.708 72.9443 301.475 72.9443Z" fill="white"/>
    <path d="M317.279 72.9443C317.046 72.9443 316.862 72.8739 316.727 72.733C316.604 72.5922 316.543 72.3937 316.543 72.1377V64.7248H312.934V65.9155C312.934 66.9141 312.885 67.7975 312.787 68.5657C312.701 69.3211 312.56 69.974 312.363 70.5245C312.167 71.0751 311.903 71.536 311.572 71.9072C311.252 72.2785 310.853 72.5922 310.375 72.8482C310.215 72.9251 310.062 72.9443 309.914 72.9059C309.767 72.8803 309.644 72.8226 309.546 72.733C309.46 72.6306 309.399 72.509 309.362 72.3681C309.338 72.2273 309.356 72.0865 309.417 71.9456C309.479 71.8048 309.589 71.6896 309.749 71.6C310.105 71.3951 310.393 71.1391 310.614 70.8318C310.847 70.5245 311.031 70.1404 311.166 69.6795C311.301 69.2186 311.394 68.6809 311.443 68.0664C311.504 67.439 311.535 66.7029 311.535 65.8579V64.3599C311.535 64.0655 311.608 63.8478 311.756 63.707C311.903 63.5534 312.112 63.4765 312.382 63.4765H317.187C317.457 63.4765 317.666 63.5534 317.813 63.707C317.96 63.8478 318.034 64.0655 318.034 64.3599V72.1377C318.034 72.3937 317.966 72.5922 317.831 72.733C317.709 72.8739 317.525 72.9443 317.279 72.9443Z" fill="white"/>
    <path d="M321.665 72.9443C321.53 72.9443 321.407 72.9123 321.297 72.8482C321.199 72.797 321.119 72.7074 321.058 72.5794C321.008 72.4514 320.984 72.2913 320.984 72.0993V64.1103C320.984 63.8542 321.045 63.6622 321.168 63.5342C321.291 63.4061 321.456 63.3421 321.665 63.3421C321.886 63.3421 322.052 63.4061 322.162 63.5342C322.285 63.6622 322.346 63.8542 322.346 64.1103V71.3311H321.886L327.244 63.8414C327.342 63.7006 327.459 63.5854 327.594 63.4958C327.729 63.3933 327.9 63.3421 328.109 63.3421C328.256 63.3421 328.379 63.3677 328.477 63.4189C328.576 63.4701 328.649 63.5598 328.698 63.6878C328.76 63.803 328.79 63.9631 328.79 64.1679V72.1761C328.79 72.4194 328.729 72.6114 328.606 72.7522C328.496 72.8803 328.33 72.9443 328.109 72.9443C327.888 72.9443 327.716 72.8803 327.594 72.7522C327.483 72.6114 327.428 72.4194 327.428 72.1761V64.9361H327.888L322.512 72.445C322.426 72.573 322.316 72.6882 322.181 72.7906C322.058 72.8931 321.886 72.9443 321.665 72.9443Z" fill="white"/>
    <path d="M332.491 72.9443C332.245 72.9443 332.055 72.8739 331.92 72.733C331.797 72.5922 331.736 72.3937 331.736 72.1377V64.1295C331.736 63.8606 331.797 63.6622 331.92 63.5342C332.055 63.4061 332.245 63.3421 332.491 63.3421C332.724 63.3421 332.902 63.4061 333.025 63.5342C333.16 63.6622 333.227 63.8606 333.227 64.1295V67.3558H338.106V64.1295C338.106 63.8606 338.168 63.6622 338.29 63.5342C338.425 63.4061 338.61 63.3421 338.843 63.3421C339.076 63.3421 339.26 63.4061 339.395 63.5342C339.53 63.6622 339.598 63.8606 339.598 64.1295V72.1377C339.598 72.3937 339.53 72.5922 339.395 72.733C339.26 72.8739 339.076 72.9443 338.843 72.9443C338.61 72.9443 338.425 72.8739 338.29 72.733C338.168 72.5922 338.106 72.3937 338.106 72.1377V68.6233H333.227V72.1377C333.227 72.3937 333.166 72.5922 333.043 72.733C332.92 72.8739 332.736 72.9443 332.491 72.9443Z" fill="white"/>
    <path d="M343.223 72.9443C343.088 72.9443 342.965 72.9123 342.855 72.8482C342.757 72.797 342.677 72.7074 342.616 72.5794C342.566 72.4514 342.542 72.2913 342.542 72.0993V64.1103C342.542 63.8542 342.603 63.6622 342.726 63.5342C342.849 63.4061 343.014 63.3421 343.223 63.3421C343.444 63.3421 343.61 63.4061 343.72 63.5342C343.843 63.6622 343.904 63.8542 343.904 64.1103V71.3311H343.444L348.802 63.8414C348.9 63.7006 349.017 63.5854 349.152 63.4958C349.287 63.3933 349.459 63.3421 349.667 63.3421C349.814 63.3421 349.937 63.3677 350.035 63.4189C350.134 63.4701 350.207 63.5598 350.256 63.6878C350.318 63.803 350.348 63.9631 350.348 64.1679V72.1761C350.348 72.4194 350.287 72.6114 350.164 72.7522C350.054 72.8803 349.888 72.9443 349.667 72.9443C349.446 72.9443 349.274 72.8803 349.152 72.7522C349.041 72.6114 348.986 72.4194 348.986 72.1761V64.9361H349.446L344.07 72.445C343.984 72.573 343.874 72.6882 343.739 72.7906C343.616 72.8931 343.444 72.9443 343.223 72.9443Z" fill="white"/>
    <path d="M354.049 72.9443C353.803 72.9443 353.613 72.8739 353.478 72.733C353.355 72.5922 353.294 72.3937 353.294 72.1377V64.1871C353.294 63.9182 353.355 63.7198 353.478 63.5918C353.613 63.4509 353.803 63.3805 354.049 63.3805C354.282 63.3805 354.46 63.4509 354.583 63.5918C354.718 63.7198 354.785 63.9182 354.785 64.1871V67.375H356.461L359.186 63.7262C359.308 63.5726 359.443 63.4765 359.591 63.4381C359.738 63.3869 359.873 63.3869 359.996 63.4381C360.131 63.4765 360.235 63.5534 360.309 63.6686C360.395 63.771 360.438 63.899 360.438 64.0527C360.438 64.2063 360.382 64.3663 360.272 64.5328L357.676 68.0088L357.252 67.5095C357.596 67.5479 357.897 67.6375 358.155 67.7783C358.412 67.9191 358.658 68.1304 358.891 68.4121C359.124 68.6937 359.376 69.0842 359.646 69.5835L360.972 71.8688C361.058 72.0481 361.088 72.2081 361.064 72.3489C361.051 72.4898 360.99 72.6178 360.88 72.733C360.769 72.8354 360.64 72.8995 360.493 72.9251C360.358 72.9507 360.223 72.9315 360.088 72.8675C359.953 72.8034 359.83 72.6882 359.72 72.5218L358.265 69.9868C358.056 69.6283 357.86 69.3531 357.676 69.161C357.492 68.9562 357.283 68.8153 357.05 68.7385C356.817 68.6617 356.528 68.6233 356.185 68.6233H354.785V72.1377C354.785 72.3937 354.718 72.5922 354.583 72.733C354.46 72.8739 354.282 72.9443 354.049 72.9443Z" fill="white"/>
    <path d="M365.821 72.9827C365.207 72.9827 364.655 72.8611 364.164 72.6178C363.685 72.3617 363.304 72.0161 363.022 71.5808C362.74 71.1455 362.599 70.659 362.599 70.1212C362.599 69.4299 362.764 68.8858 363.096 68.4889C363.439 68.092 363.998 67.8103 364.771 67.6439C365.557 67.4774 366.625 67.3942 367.975 67.3942H368.803V68.4121H367.993C366.999 68.4121 366.213 68.4633 365.636 68.5657C365.072 68.6553 364.673 68.8153 364.44 69.0458C364.219 69.2762 364.108 69.6027 364.108 70.0252C364.108 70.5501 364.28 70.979 364.624 71.3119C364.98 71.6448 365.458 71.8112 366.06 71.8112C366.551 71.8112 366.981 71.6896 367.349 71.4463C367.729 71.2031 368.024 70.8702 368.233 70.4477C368.453 70.0252 368.564 69.5387 368.564 68.9882V66.7989C368.564 66.0051 368.41 65.4354 368.104 65.0897C367.797 64.7312 367.294 64.552 366.594 64.552C366.164 64.552 365.735 64.6096 365.305 64.7248C364.875 64.8401 364.421 65.0257 363.943 65.2818C363.771 65.3714 363.623 65.4034 363.501 65.3778C363.378 65.3394 363.28 65.269 363.206 65.1665C363.133 65.0641 363.09 64.9489 363.077 64.8209C363.065 64.68 363.09 64.5456 363.151 64.4176C363.225 64.2895 363.335 64.1871 363.482 64.1103C364.022 63.8286 364.556 63.6238 365.084 63.4958C365.612 63.3677 366.115 63.3037 366.594 63.3037C367.367 63.3037 368.005 63.4381 368.509 63.707C369.012 63.9631 369.386 64.3599 369.632 64.8977C369.877 65.4226 370 66.1011 370 66.9333V72.1377C370 72.3937 369.939 72.5922 369.816 72.733C369.705 72.8739 369.54 72.9443 369.319 72.9443C369.086 72.9443 368.908 72.8739 368.785 72.733C368.662 72.5922 368.601 72.3937 368.601 72.1377V70.6398H368.766C368.668 71.1263 368.478 71.5424 368.196 71.888C367.926 72.2337 367.588 72.5026 367.183 72.6946C366.778 72.8867 366.324 72.9827 365.821 72.9827Z" fill="white"/>
</svg>
