<svg width="80" height="80" viewBox="0 0 80 80" fill="none" xmlns="http://www.w3.org/2000/svg">
    <path d="M64.5 68.0837L44.4167 48.0003C42.75 49.4448 40.8067 50.5698 38.5868 51.3753C36.3668 52.1809 34.0046 52.5837 31.5 52.5837C25.491 52.5837 20.4054 50.5003 16.2433 46.3337C12.0811 42.167 10 37.1392 10 31.2503C10 25.3614 12.0833 20.3337 16.25 16.167C20.4167 12.0003 25.4583 9.91699 31.375 9.91699C37.2917 9.91699 42.3194 12.0003 46.4583 16.167C50.5972 20.3337 52.6667 25.3656 52.6667 31.2628C52.6667 33.6434 52.2778 35.9448 51.5 38.167C50.7222 40.3892 49.5556 42.4725 48 44.417L68.25 64.5003C68.75 64.9725 68.9861 65.5628 68.9583 66.2712C68.9306 66.9795 68.6667 67.5837 68.1667 68.0837C67.6667 68.5837 67.0494 68.8337 66.3148 68.8337C65.5803 68.8337 64.9753 68.5837 64.5 68.0837ZM31.4167 47.5837C35.9306 47.5837 39.7674 45.9864 42.9271 42.792C46.0868 39.5975 47.6667 35.7503 47.6667 31.2503C47.6667 26.7503 46.0868 22.9031 42.9271 19.7087C39.7674 16.5142 35.9306 14.917 31.4167 14.917C26.8565 14.917 22.9803 16.5142 19.7882 19.7087C16.5961 22.9031 15 26.7503 15 31.2503C15 35.7503 16.5961 39.5975 19.7882 42.792C22.9803 45.9864 26.8565 47.5837 31.4167 47.5837ZM31.2917 40.5003C30.5972 40.5003 30.0139 40.2607 29.5417 39.7816C29.0694 39.3024 28.8333 38.7087 28.8333 38.0003V33.667H24.4167C23.75 33.667 23.1806 33.417 22.7083 32.917C22.2361 32.417 22 31.8198 22 31.1253C22 30.4309 22.2396 29.8475 22.7188 29.3753C23.1979 28.9031 23.7917 28.667 24.5 28.667H28.8333V24.3337C28.8333 23.667 29.0833 23.0975 29.5833 22.6253C30.0833 22.1531 30.6806 21.917 31.375 21.917C32.0694 21.917 32.6528 22.1566 33.125 22.6357C33.5972 23.1149 33.8333 23.7087 33.8333 24.417V28.667H38.1667C38.8333 28.667 39.4028 28.917 39.875 29.417C40.3472 29.917 40.5833 30.5142 40.5833 31.2087C40.5833 31.9031 40.3438 32.4864 39.8646 32.9587C39.3854 33.4309 38.7917 33.667 38.0833 33.667H33.8333V38.0837C33.8333 38.7503 33.5833 39.3198 33.0833 39.792C32.5833 40.2642 31.9861 40.5003 31.2917 40.5003Z" fill="white"/>
</svg>
