<svg width="80" height="50" viewBox="0 0 80 50" fill="none" xmlns="http://www.w3.org/2000/svg">
    <rect width="80" height="50" rx="10" fill="white"/>
    <path fill-rule="evenodd" clip-rule="evenodd" d="M16.8036 17.1697C17.3382 17.1666 18.927 17.0263 19.6 19.2531C20.0534 20.7531 20.7755 23.2102 21.7664 26.6243H22.17C23.2327 23.0249 23.9627 20.5678 24.36 19.2531C25.04 17.0031 26.74 17.1698 27.42 17.1698L32.6664 17.1698V33.1697H27.3191V23.7407H26.9606L23.9798 33.1697H19.9566L16.9758 23.7337H16.6173V33.1697H11.27V17.1698L16.8036 17.1697ZM40.3449 17.1698V26.6058H40.7715L44.3974 18.8466C45.1012 17.3025 46.6013 17.1698 46.6013 17.1698H51.7759V33.1698H46.317V23.7337H45.8904L42.3356 31.4929C41.6317 33.03 40.0605 33.1698 40.0605 33.1698H34.886V17.1698H40.3449ZM70.6443 24.7731C69.8828 26.8886 67.4916 28.4036 64.8441 28.4036H59.1193V33.1698H53.9282V24.7731H70.6443Z" fill="#0F754E"/>
    <path fill-rule="evenodd" clip-rule="evenodd" d="M65.0944 17.1699H53.656C53.9282 20.7321 57.0572 23.7815 60.2963 23.7815H71.005C71.623 20.8209 69.4956 17.1699 65.0944 17.1699Z" fill="url(#paint0_linear_136_172)"/>
    <defs>
        <linearGradient id="paint0_linear_136_172" x1="1799.06" y1="433.066" x2="53.656" y2="433.066" gradientUnits="userSpaceOnUse">
            <stop stop-color="#1F5CD7"/>
            <stop offset="1" stop-color="#02AEFF"/>
        </linearGradient>
    </defs>
</svg>
