<svg width="80" height="50" viewBox="0 0 80 50" fill="none" xmlns="http://www.w3.org/2000/svg">
    <rect width="80" height="50" rx="10" fill="white"/>
    <path d="M42.7499 27.7497C44.2777 27.7497 45.5763 27.215 46.6458 26.1455C47.7152 25.0761 48.2499 23.7775 48.2499 22.2497C48.2499 20.7219 47.7152 19.4233 46.6458 18.3538C45.5763 17.2844 44.2777 16.7497 42.7499 16.7497C41.2221 16.7497 39.9235 17.2844 38.8541 18.3538C37.7846 19.4233 37.2499 20.7219 37.2499 22.2497C37.2499 23.7775 37.7846 25.0761 38.8541 26.1455C39.9235 27.215 41.2221 27.7497 42.7499 27.7497ZM28.0833 34.1663C27.327 34.1663 26.6796 33.8971 26.1411 33.3585C25.6025 32.82 25.3333 32.1726 25.3333 31.4163V13.083C25.3333 12.3268 25.6025 11.6794 26.1411 11.1408C26.6796 10.6023 27.327 10.333 28.0833 10.333H57.4166C58.1728 10.333 58.8202 10.6023 59.3588 11.1408C59.8973 11.6794 60.1666 12.3268 60.1666 13.083V31.4163C60.1666 32.1726 59.8973 32.82 59.3588 33.3585C58.8202 33.8971 58.1728 34.1663 57.4166 34.1663H28.0833ZM22.5833 39.6663C21.827 39.6663 21.1796 39.3971 20.6411 38.8585C20.1025 38.32 19.8333 37.6726 19.8333 36.9163V17.208C19.8333 16.8184 19.9658 16.4919 20.2309 16.2283C20.496 15.9648 20.8244 15.833 21.2163 15.833C21.6081 15.833 21.9339 15.9648 22.1937 16.2283C22.4534 16.4919 22.5833 16.8184 22.5833 17.208V36.9163H53.2916C53.6812 36.9163 54.0077 37.0489 54.2713 37.3139C54.5348 37.579 54.6666 37.9075 54.6666 38.2994C54.6666 38.6912 54.5348 39.017 54.2713 39.2768C54.0077 39.5365 53.6812 39.6663 53.2916 39.6663H22.5833ZM28.0833 17.6663C29.3666 17.6663 30.4513 17.2233 31.3374 16.3372C32.2235 15.4511 32.6666 14.3663 32.6666 13.083H28.0833V17.6663ZM57.4166 17.6663V13.083H52.8333C52.8333 14.3663 53.2763 15.4511 54.1624 16.3372C55.0485 17.2233 56.1333 17.6663 57.4166 17.6663ZM28.0833 31.4163H32.6666C32.6666 30.133 32.2235 29.0483 31.3374 28.1622C30.4513 27.2761 29.3666 26.833 28.0833 26.833V31.4163ZM52.8333 31.4163H57.4166V26.833C56.1333 26.833 55.0485 27.2761 54.1624 28.1622C53.2763 29.0483 52.8333 30.133 52.8333 31.4163Z" fill="#1C7597"/>
</svg>
