<svg width="211" height="128" viewBox="0 0 211 128" fill="none" xmlns="http://www.w3.org/2000/svg">
    <mask id="mask0_44_15437" style="mask-type:alpha" maskUnits="userSpaceOnUse" x="0" y="0" width="211" height="128">
        <path d="M0 0H211V118C211 123.523 206.523 128 201 128H0V0Z" fill="#D9D9D9"/>
    </mask>
    <g mask="url(#mask0_44_15437)">
        <path fill-rule="evenodd" clip-rule="evenodd" d="M225.752 139.139L111.35 -18.0109C101.536 -11.0034 87.6724 -0.7627 87.1281 0.066405C86.3402 1.25073 85.9009 3.49677 86.1172 5.2186C86.2586 6.3842 87.717 8.5172 100.3 25.9959C108.048 36.7048 114.327 45.5238 114.265 45.5687C114.204 45.6136 104.051 46.7561 91.7174 48.0765C79.3531 49.4194 68.506 50.6445 67.6046 50.8309C64.2815 51.5117 62.0278 54.3739 62.1637 57.7986C62.1848 58.8638 63.0922 67.8815 64.1524 77.8215C65.9351 94.5177 66.1544 96.0494 67.1936 97.736C68.3222 99.5453 70.3776 101.009 71.9981 101.098C72.3479 101.125 83.2313 100.014 96.1526 98.5949L119.714 96.0542L119.026 97.6353C118.67 98.5056 114.303 108.309 109.344 119.436C102.595 134.45 100.291 140.027 100.233 141.244C100.226 142.658 100.416 143.178 101.779 145.051L103.367 147.231L120.772 154.951C130.367 159.194 138.975 162.794 139.901 162.965C142.081 163.305 144.417 162.497 145.821 160.864C146.387 160.217 151.163 150.069 156.413 138.307C161.664 126.545 166.036 116.879 166.098 116.834C166.159 116.789 172.654 125.451 180.441 136.084C193.231 153.459 194.813 155.502 195.879 155.995C197.451 156.73 199.723 157.002 201.093 156.616C202.108 156.342 216.111 146.306 225.752 139.139ZM248.647 122.471L134.246 -34.6783C143.93 -41.8647 157.935 -51.9119 158.891 -52.1752C160.26 -52.5611 162.533 -52.2891 164.105 -51.5543C165.17 -51.0617 166.752 -49.0184 179.52 -31.6743C187.33 -21.0103 193.794 -12.3258 193.855 -12.3707C193.917 -12.4156 198.123 -21.7264 203.169 -33.0577C208.246 -44.4113 212.744 -54.3575 213.199 -55.1581C214.867 -58.1113 218.284 -59.3766 221.501 -58.1951C222.508 -57.8477 230.811 -54.2137 239.944 -50.1509C255.285 -43.3248 256.676 -42.6456 257.961 -41.1385C259.336 -39.5085 260.098 -37.1029 259.684 -35.5335C259.603 -35.1922 255.202 -25.1764 249.882 -13.3161L240.225 8.32496L241.941 8.1564C242.879 8.08453 253.549 6.94092 265.662 5.64051C282.023 3.83069 288.039 3.35112 289.214 3.67018C290.562 4.0979 290.999 4.43809 292.362 6.31127L293.949 8.49154L295.948 27.4268C297.038 37.8617 297.819 47.1592 297.698 48.0933C297.351 50.2721 295.865 52.2463 293.88 53.0809C293.09 53.4208 281.966 54.8478 269.159 56.2308C256.353 57.6137 245.811 58.8046 245.749 58.8494C245.687 58.8943 251.935 67.7358 259.662 78.4139C272.267 95.9234 273.725 98.0564 273.866 99.222C274.083 100.944 273.643 103.19 272.856 104.374C272.283 105.256 258.43 115.499 248.647 122.471Z" fill="#277C9C"/>
    </g>
</svg>
