<svg width="100" height="100" viewBox="0 0 100 100" fill="none" xmlns="http://www.w3.org/2000/svg">
    <circle cx="50" cy="50" r="50" fill="#1C7597"/>
    <path d="M37.9962 32.815C37.8162 32.945 37.5761 33.1551 37.4761 33.2951C37.346 33.4752 36.9259 35.3857 36.0257 39.9069L34.7553 46.2787L33.1549 46.5987C30.6442 47.1089 27.0032 48.0491 26.7132 48.2692C26.213 48.6493 26.043 48.9694 26.043 49.5896C26.043 50.3198 26.3731 50.7999 27.0332 51.0499C27.5734 51.26 27.4834 51.27 30.1941 50.5698C34.1552 49.5495 37.9462 48.8694 42.0473 48.4592C46.9386 47.9591 53.0303 47.9591 57.9516 48.4592C61.8627 48.8494 66.0138 49.5896 69.8049 50.5698C72.5356 51.27 72.3455 51.23 72.7557 51.16C73.2358 51.07 73.876 50.4298 73.966 49.9597C74.136 49.0094 73.6659 48.3192 72.6256 47.9991C71.6854 47.709 68.2144 46.8688 66.594 46.5287L65.2336 46.2586L63.9733 39.9069C63.073 35.3657 62.6529 33.4752 62.5229 33.2951C61.9627 32.5449 61.2725 32.4249 60.0322 32.885C59.6021 33.0451 58.7619 33.3051 58.1517 33.4752C52.3201 35.1156 46.0384 34.9456 40.2768 32.995C38.9265 32.5349 38.4663 32.4949 37.9962 32.815Z" fill="white"/>
    <path d="M37.1359 52.1503C34.1551 52.8005 31.7144 55.3512 31.1843 58.342C31.0443 59.2022 31.1143 60.9427 31.3443 61.7529C31.9045 63.8135 33.4749 65.694 35.4254 66.6542C37.546 67.6945 40.1267 67.6745 42.2473 66.6042C44.778 65.3339 46.4985 62.6331 46.4985 59.9224V59.2022H49.9894H53.4704L53.5304 60.1725C53.6204 61.8429 54.1205 63.1733 55.1508 64.4836C57.3914 67.3444 61.4025 68.2347 64.6534 66.6042C67.2741 65.2939 68.9045 62.6431 68.9045 59.7023C68.9045 56.3314 66.794 53.4306 63.5531 52.3403C62.5828 52.0202 60.9224 51.9102 59.8421 52.0903C58.9318 52.2503 57.8215 52.7004 57.0013 53.2506C56.2311 53.7607 55.1408 54.871 54.7507 55.5412L54.4806 56.0013H49.9994H45.5182L45.2481 55.5412C44.858 54.871 43.7677 53.7607 43.0075 53.2606C42.1973 52.7204 41.277 52.3303 40.4068 52.1403C39.5866 51.9702 37.9461 51.9702 37.1359 52.1503Z" fill="white"/>
</svg>
