<svg width="100" height="100" viewBox="0 0 100 100" fill="none" xmlns="http://www.w3.org/2000/svg">
    <circle cx="50" cy="50" r="50" fill="#1C7597"/>
    <path d="M48.7403 27.2949C47.7149 27.5879 47.2852 27.9101 45.166 29.9805C32.2852 42.6074 25.4004 49.4141 25.2149 49.6973C24.7852 50.3613 25.0781 51.3476 25.8203 51.6992C26.25 51.9043 26.7285 51.8945 27.1192 51.6797C27.2949 51.5918 32.2754 46.748 38.1934 40.9277C44.7559 34.4824 49.0821 30.293 49.2774 30.2148C49.6973 30.0391 50.3028 30.0391 50.7227 30.2148C50.918 30.293 55.1953 34.4238 61.8067 40.9277C67.7246 46.748 72.7051 51.5918 72.8809 51.6797C73.2715 51.8945 73.75 51.9043 74.1797 51.6992C74.9219 51.3476 75.2149 50.3711 74.7852 49.6973C74.502 49.248 53.2715 28.3887 52.666 27.959C51.9434 27.4414 51.25 27.2266 50.1953 27.1875C49.5606 27.1582 49.1016 27.1973 48.7403 27.2949Z" fill="white"/>
    <path d="M39.5117 43.7207L29.0918 53.9551L29.1309 60.7422C29.1602 66.875 29.1797 67.5879 29.3359 68.1152C30 70.3711 31.7578 72.0996 33.9453 72.6562C34.6777 72.8418 35.0879 72.8516 50 72.8516C64.9121 72.8516 65.3223 72.8418 66.0547 72.6562C68.2422 72.0996 70 70.3711 70.6641 68.1152C70.8203 67.5879 70.8398 66.8848 70.8691 60.7422L70.8984 53.9551L60.4981 43.75C54.7754 38.1348 50.0586 33.5352 50.0098 33.5156C49.9707 33.5059 45.2441 38.0957 39.5117 43.7207ZM53.6133 46.0156C54.3457 46.5234 54.3457 46.5039 54.375 49.3652L54.4043 51.9434L56.9824 51.9727C59.8438 52.002 59.8242 52.002 60.332 52.7344C60.5469 53.0566 60.5469 53.0957 60.5469 56.3184C60.5469 59.9316 60.5273 60.0391 59.9219 60.4785C59.6289 60.6836 59.5313 60.6934 57.0117 60.7227L54.3945 60.752V63.2129C54.3945 65.9863 54.3262 66.3086 53.6914 66.6992C53.3887 66.8848 53.2031 66.8945 49.9902 66.8945C45.332 66.8945 45.6055 67.1191 45.6055 63.252V60.7422H43.0957C40.2832 60.7422 40.0977 60.7031 39.6777 60.0684C39.4531 59.7363 39.4531 59.707 39.4531 56.3672C39.4531 53.0957 39.4629 52.9883 39.668 52.6562C40.0586 52.0117 40.3516 51.9531 43.1348 51.9531H45.5957L45.625 49.3359C45.6641 45.5664 45.3613 45.8105 50.0098 45.8008C53.252 45.8008 53.291 45.8008 53.6133 46.0156Z" fill="white"/>
    <path d="M48.5156 51.3379C48.4766 55.0586 48.6523 54.8828 44.873 54.8828H42.3828V56.3477V57.8027L44.9609 57.832C47.3926 57.8613 47.5586 57.8711 47.8125 58.0664C47.959 58.1738 48.1738 58.3887 48.2812 58.5352C48.4766 58.7891 48.4863 58.9551 48.5156 61.3867L48.5449 63.9648H50H51.4648V61.4453C51.4648 58.5547 51.4941 58.418 52.2461 58.0273C52.6562 57.8223 52.7832 57.8125 55.1465 57.8125H57.6172V56.3477V54.8828H55.0586C52.666 54.8828 52.4707 54.873 52.168 54.6875C51.9922 54.5801 51.7676 54.3555 51.6602 54.1797C51.4746 53.877 51.4648 53.6816 51.4648 51.2891V48.7305H50H48.5449L48.5156 51.3379Z" fill="white"/>
</svg>
