<svg width="100" height="100" viewBox="0 0 100 100" fill="none" xmlns="http://www.w3.org/2000/svg">
    <circle cx="50" cy="50" r="50" fill="#1C7597"/>
    <path d="M30.821 26.1221C30.671 26.1971 29.5361 27.2569 28.3169 28.4855C25.2782 31.5523 25.297 31.2522 28.0074 33.9626L29.8363 35.7914L32.8093 32.809L35.7917 29.836L34.0097 28.0447C33.025 27.06 32.0965 26.1971 31.9277 26.1221C31.5525 25.9627 31.1868 25.9627 30.821 26.1221Z" fill="white"/>
    <path d="M48.1716 28.6731C45.5456 28.9545 43.3229 29.5172 41.1845 30.4644L40.6781 30.6895L42.8633 32.8747L45.0391 35.06L45.8082 34.8349C49.8129 33.6719 54.3615 34.3566 57.9441 36.6449L58.4693 36.9826L47.7402 47.7117L37.0111 58.4502L36.8047 58.1876C36.4483 57.7468 35.4073 55.6273 35.0978 54.7175C34.0943 51.7726 34.0005 48.6777 34.8446 45.7891L35.0603 45.0388L32.8751 42.863L30.6899 40.6777L30.4648 41.1842C29.208 44.0259 28.6641 46.6332 28.6735 49.7656C28.6735 52.4198 29.0205 54.4549 29.8833 56.8465C30.9618 59.8383 32.4999 62.2392 34.8446 64.5932C38.1834 67.9226 42.0286 69.8734 46.7179 70.5955C48.3498 70.8488 51.3416 70.83 52.9547 70.558C53.6206 70.4361 54.2021 70.3142 54.2396 70.2767C54.2771 70.2391 53.161 69.0574 51.7542 67.6506L49.1939 65.0997H48.6687C46.7085 65.0997 43.4729 64.0586 41.4753 62.7831L40.9688 62.4549L51.698 51.7258L62.4271 40.9872L62.6428 41.2498C63.0367 41.7375 64.0402 43.8571 64.3872 44.9263C64.7624 46.0892 65.1 47.8524 65.1 48.6683V49.1935L67.651 51.7539C69.0578 53.1607 70.2395 54.2767 70.277 54.2392C70.3145 54.2017 70.4364 53.6202 70.549 52.9544C70.8303 51.3319 70.8491 48.3401 70.5959 46.7176C69.9019 42.1971 67.9886 38.3237 64.8749 35.1068C61.5549 31.6836 57.4471 29.5641 52.7671 28.8513C51.773 28.7012 48.9407 28.5887 48.1716 28.6731Z" fill="white"/>
    <path d="M34.7787 34.7879L31.8057 37.7609L36.1198 42.0751L40.4246 46.3799L40.5278 46.9051C40.6872 47.7023 41.1468 49.4467 41.2874 49.7937L41.4187 50.0938L45.7704 45.7421L50.1221 41.3905L49.2874 41.1372C48.8279 40.9966 47.9932 40.7808 47.4211 40.6495L46.3894 40.4245L42.0752 36.1103L37.7611 31.8055L34.7787 34.7879Z" fill="white"/>
    <path d="M53.6581 53.7046L47.7026 59.66L54.6897 66.6565C58.5725 70.5392 61.8268 73.728 62.0238 73.8311C62.4646 74.0562 62.8585 74.0562 63.2993 73.8311C63.7307 73.606 73.6533 63.6647 73.8596 63.252C74.0472 62.8675 74.0472 62.4549 73.8596 62.0703C73.7283 61.8077 59.7917 47.7492 59.6604 47.7492C59.6322 47.7492 56.9312 50.4315 53.6581 53.7046Z" fill="white"/>
</svg>