<svg width="100" height="100" viewBox="0 0 100 100" fill="none" xmlns="http://www.w3.org/2000/svg">
    <circle cx="50" cy="50" r="50" fill="#F04A25"/>
    <path d="M51.0359 31.0576C50.0205 31.5005 49.6964 32.8832 50.4094 33.7258C50.8415 34.2335 51.2627 34.3631 52.4402 34.3631H53.4664V35.2597V36.1563L52.3106 36.3507C46.0885 37.3985 40.763 41.9678 38.8186 47.9198C38.1381 49.9938 37.9869 50.9984 37.9761 53.3209C37.9761 55.0384 38.0085 55.5786 38.2137 56.5832C38.9159 60.0723 40.547 63.1293 43.0099 65.5922C45.4944 68.0551 48.3786 69.589 51.9541 70.3451C53.4664 70.6692 56.6746 70.7016 58.1653 70.4099C61.7949 69.697 64.8303 68.1199 67.3364 65.6354C69.8857 63.1077 71.5168 59.9966 72.2298 56.3455C72.5214 54.844 72.489 51.7546 72.1757 50.1667C71.6572 47.5633 70.5338 45.0356 69.0431 43.0804L68.557 42.4431L69.1835 41.8166L69.8209 41.1793L70.5986 41.9246C71.722 42.994 72.5538 43.1669 73.3424 42.4971C73.9473 41.9894 74.1633 41.1901 73.8717 40.4447C73.7313 40.0558 68.6542 34.9572 68.2005 34.7412C66.8395 34.1038 65.3488 35.3353 65.7701 36.7612C65.8565 37.0312 66.1697 37.4633 66.645 37.971L67.3904 38.7488L66.7639 39.3753L66.1373 40.0018L65.4892 39.5049C63.4584 37.971 60.693 36.7828 58.0897 36.3507L56.9231 36.1563V35.2705V34.3847L58.1005 34.3415C59.0943 34.3199 59.332 34.2767 59.5804 34.0822C60.1529 33.661 60.3258 33.3153 60.3258 32.6348C60.3258 31.9542 60.1529 31.6085 59.5804 31.1873C59.2996 30.9712 59.1375 30.9604 55.3244 30.9388C52.1917 30.9172 51.2951 30.9388 51.0359 31.0576ZM56.1453 43.2965C56.2966 43.4045 56.5234 43.6422 56.6422 43.8042C56.8583 44.0959 56.8691 44.2471 56.9015 48.8164C56.9231 51.8194 56.8907 53.6774 56.8259 53.915C56.7394 54.1959 55.9833 55.0168 53.7688 57.2313C50.5822 60.3963 50.5606 60.4179 49.61 60.2343C49.0807 60.1371 48.4326 59.4889 48.3354 58.9596C48.1517 58.0198 48.2057 57.9442 50.9387 55.2113L53.4664 52.662V48.5463C53.4664 45.889 53.5096 44.3119 53.5852 44.1175C53.7364 43.7178 54.0929 43.3397 54.4926 43.1561C54.9247 42.9508 55.778 43.0264 56.1453 43.2965Z" fill="white"/>
    <path d="M26.8389 34.5143C26.1151 34.8276 25.7046 35.6593 25.8559 36.4695C25.9531 36.9772 26.4932 37.5713 26.9793 37.7118C27.2494 37.7982 29.7555 37.8198 34.6921 37.7982C41.8755 37.7658 42.0051 37.7658 42.2968 37.5389C42.8693 37.1176 43.0421 36.772 43.0421 36.0914C43.0421 35.4109 42.8693 35.0652 42.2968 34.6439C42.0051 34.4171 41.8863 34.4171 34.584 34.3955C28.578 34.3739 27.0981 34.3955 26.8389 34.5143Z" fill="white"/>
    <path d="M26.8389 41.4277C26.1151 41.741 25.7046 42.5727 25.8559 43.3829C25.9531 43.8906 26.4932 44.4847 26.9793 44.6252C27.2494 44.7116 28.9669 44.7332 32.0995 44.7116C36.6688 44.6792 36.8201 44.6684 37.1117 44.4523C37.6843 44.031 37.8571 43.6854 37.8571 43.0048C37.8571 42.3243 37.6843 41.9786 37.1117 41.5573C36.8201 41.3413 36.6797 41.3305 31.9915 41.3089C28.1459 41.2873 27.0981 41.3089 26.8389 41.4277Z" fill="white"/>
    <path d="M26.8389 48.3411C26.1151 48.6544 25.7046 49.4862 25.8559 50.2963C25.9531 50.804 26.4932 51.3981 26.9793 51.5494C27.2386 51.6142 28.4484 51.6466 30.3712 51.625C33.1906 51.5926 33.3742 51.5818 33.655 51.3657C34.2276 50.9445 34.4004 50.5988 34.4004 49.9182C34.4004 49.2377 34.2276 48.892 33.655 48.4708C33.3742 48.2547 33.2014 48.2439 30.2632 48.2223C27.8543 48.2007 27.0873 48.2223 26.8389 48.3411Z" fill="white"/>
</svg>
