<svg width="100" height="100" viewBox="0 0 100 100" fill="none" xmlns="http://www.w3.org/2000/svg">
    <circle cx="50" cy="50" r="50" fill="white"/>
    <path d="M37.9962 32.8149C37.8162 32.9449 37.5761 33.155 37.4761 33.295C37.346 33.4751 36.9259 35.3856 36.0257 39.9068L34.7553 46.2785L33.1549 46.5986C30.6442 47.1088 27.0032 48.049 26.7132 48.2691C26.213 48.6492 26.043 48.9693 26.043 49.5894C26.043 50.3196 26.3731 50.7998 27.0332 51.0498C27.5734 51.2599 27.4834 51.2699 30.1941 50.5697C34.1552 49.5494 37.9462 48.8692 42.0473 48.4591C46.9386 47.959 53.0303 47.959 57.9516 48.4591C61.8627 48.8492 66.0138 49.5894 69.8049 50.5697C72.5356 51.2699 72.3455 51.2299 72.7557 51.1599C73.2358 51.0698 73.876 50.4297 73.966 49.9595C74.136 49.0093 73.6659 48.3191 72.6256 47.999C71.6854 47.7089 68.2144 46.8687 66.594 46.5286L65.2336 46.2585L63.9733 39.9068C63.073 35.3656 62.6529 33.4751 62.5229 33.295C61.9627 32.5448 61.2725 32.4248 60.0322 32.8849C59.6021 33.0449 58.7619 33.305 58.1517 33.4751C52.3201 35.1155 46.0384 34.9455 40.2768 32.9949C38.9265 32.5348 38.4663 32.4948 37.9962 32.8149Z" fill="#F04A25"/>
    <path d="M37.1359 52.1503C34.1551 52.8005 31.7144 55.3512 31.1843 58.342C31.0443 59.2022 31.1143 60.9427 31.3443 61.7529C31.9045 63.8135 33.4749 65.694 35.4254 66.6542C37.546 67.6945 40.1267 67.6745 42.2473 66.6042C44.778 65.3339 46.4985 62.6331 46.4985 59.9224V59.2022H49.9894H53.4704L53.5304 60.1725C53.6204 61.8429 54.1205 63.1733 55.1508 64.4836C57.3914 67.3444 61.4025 68.2347 64.6534 66.6042C67.2741 65.2939 68.9045 62.6431 68.9045 59.7023C68.9045 56.3314 66.794 53.4306 63.5531 52.3403C62.5828 52.0202 60.9224 51.9102 59.8421 52.0903C58.9318 52.2503 57.8215 52.7004 57.0013 53.2506C56.2311 53.7607 55.1408 54.871 54.7507 55.5412L54.4806 56.0013H49.9994H45.5182L45.2481 55.5412C44.858 54.871 43.7677 53.7607 43.0075 53.2606C42.1973 52.7204 41.277 52.3303 40.4068 52.1403C39.5866 51.9702 37.9461 51.9702 37.1359 52.1503Z" fill="#F04A25"/>
</svg>
