<svg width="100" height="100" viewBox="0 0 100 100" fill="none" xmlns="http://www.w3.org/2000/svg">
    <circle cx="50" cy="50" r="50" fill="white"/>
    <g clip-path="url(#clip0_28_127)">
        <path d="M45.2344 25.166C44.8047 25.3711 44.5117 25.8105 44.4629 26.2988C44.4043 26.875 45.5274 33.1934 45.752 33.5254C45.9277 33.8086 46.6211 34.1797 46.9531 34.1797C47.5586 34.1797 48.2813 33.5742 48.3887 32.9785C48.4766 32.5 47.3242 25.9961 47.0899 25.6836C46.6113 25.0488 45.8887 24.8438 45.2344 25.166Z" fill="#F04A25"/>
        <path d="M53.7305 25.4005C53.3594 25.4786 52.8907 25.879 52.7442 26.2599C52.6856 26.3966 52.4024 27.9103 52.1094 29.6095C51.5332 32.9786 51.5235 33.1056 52.0118 33.6818C52.6465 34.4337 54.0137 34.2286 54.375 33.3302C54.5606 32.8712 55.586 26.8263 55.5274 26.5333C55.3711 25.7423 54.5508 25.2247 53.7305 25.4005Z" fill="#F04A25"/>
        <path d="M61.1818 28.3594C61.0255 28.4278 60.7911 28.5938 60.674 28.7208C60.5665 28.8477 59.7755 30.1563 58.9357 31.6212C57.256 34.5313 57.1486 34.8145 57.5001 35.4493C57.9201 36.211 58.8868 36.4747 59.5802 36.0059C60.0685 35.6739 63.1837 30.2833 63.1837 29.7559C63.1837 28.6719 62.1193 27.92 61.1818 28.3594Z" fill="#F04A25"/>
        <path d="M32.6172 30.9571C29.7461 31.5333 27.2559 32.0899 27.0899 32.1778C26.5137 32.4903 26.1915 33.4474 26.4747 34.0138C26.5333 34.131 27.129 34.7755 27.7833 35.4493L28.9942 36.67L28.5938 37.3048C27.2461 39.4923 26.0352 42.588 25.5079 45.1661C25.127 46.9923 25.0489 47.8614 25.0586 50.0978C25.0586 52.6368 25.1954 53.8087 25.7813 56.1134C26.2598 57.9884 26.6895 59.1603 27.5977 60.9962C30.0098 65.9278 34.0625 69.9806 39.0137 72.4122C40.8399 73.3106 42.0118 73.7403 43.8868 74.2188C46.211 74.8048 47.3633 74.9415 49.9512 74.9415C53.4375 74.9513 56.0547 74.4728 59.0821 73.2716C64.8731 70.9864 69.6875 66.5528 72.4024 60.9962C73.9844 57.7833 74.8047 54.5899 74.9708 51.0938C75.0196 49.8438 75.0098 49.7267 74.8145 49.3458C74.4532 48.6231 74.1407 48.5353 72.0704 48.5353C70.4981 48.5353 70.2637 48.5548 69.9219 48.7306C69.4043 48.9942 69.1407 49.5118 69.1407 50.2833C69.1407 51.1427 68.9649 52.7345 68.7403 53.7989C67.7149 58.7989 64.6973 63.2032 60.3516 66.0353C52.295 71.2989 41.6211 69.6974 35.3907 62.2755C32.5977 58.9552 31.084 55.0587 30.8887 50.7325C30.7715 47.9103 31.3086 45.1954 32.5586 42.3829C33.2813 40.7716 33.1348 40.8106 34.3067 41.963C34.8536 42.5001 35.4004 42.9981 35.5176 43.0567C36.0645 43.3399 37.0118 43.0372 37.3438 42.4708C37.4903 42.2169 39.6485 31.7774 39.6485 31.3087C39.6485 31.2013 39.5606 30.9278 39.4434 30.7032C39.2188 30.2345 38.6329 29.8731 38.125 29.8927C37.9688 29.9024 35.4883 30.381 32.6172 30.9571Z" fill="#F04A25"/>
        <path d="M67.3145 33.623C66.8555 33.8867 62.373 37.7344 62.1973 38.0176C61.6602 38.916 62.373 40.1367 63.4473 40.1367C63.6816 40.1367 63.9941 40.0684 64.1406 40C64.5996 39.7461 68.9746 36.0059 69.209 35.6543C69.8145 34.7559 69.0918 33.4863 67.9785 33.4961C67.7344 33.5059 67.4316 33.5547 67.3145 33.623Z" fill="#F04A25"/>
        <path d="M68.8477 41.582C67.2657 42.168 65.8692 42.6953 65.752 42.7539C65.42 42.9297 65.1368 43.3984 65.0782 43.8672C64.9805 44.668 65.6446 45.4102 66.4746 45.4102C67.0996 45.4102 72.6758 43.3691 73.0567 43.0078C73.9649 42.1387 73.3008 40.5176 72.0508 40.5273C71.875 40.5273 70.4297 41.0059 68.8477 41.582Z" fill="#F04A25"/>
        <path d="M44.5801 42.8125C43.7598 43.0176 43.1445 43.3691 42.5195 43.9941C41.6992 44.8047 41.2109 45.9473 41.2109 47.0312C41.2109 47.8125 41.9141 48.5352 42.6758 48.5352C42.8418 48.5352 43.1543 48.4473 43.3594 48.3398C43.7988 48.1152 44.1406 47.5586 44.1406 47.0703C44.1406 46.6016 44.4629 46.0645 44.9023 45.8203C45.3809 45.5566 45.791 45.5469 46.2891 45.8008C47.0117 46.1719 47.2363 47.041 46.9141 48.1543C46.7188 48.8281 46.0938 49.4531 44.8828 50.1855C42.3633 51.7188 41.416 53.0566 41.25 55.3223C41.1914 56.0059 41.2109 56.1621 41.3965 56.5234C41.5332 56.7969 41.7383 56.9922 41.9922 57.1289C42.3535 57.3145 42.5586 57.3242 45.6055 57.3242C48.6523 57.3242 48.8574 57.3145 49.2188 57.1289C49.6582 56.9043 50 56.3477 50 55.8594C50 55.4199 49.6582 54.8145 49.2871 54.6191C49.0234 54.4727 48.6328 54.4336 46.6797 54.3945L44.3848 54.3457L44.7559 53.9453C45.127 53.5352 45.1855 53.4863 46.8262 52.4121C48.9355 51.0254 49.8047 49.707 49.9609 47.6172C50.0781 46.1426 49.668 44.9707 48.6816 43.9844C47.5879 42.8809 46.0547 42.4414 44.5801 42.8125Z" fill="#F04A25"/>
        <path d="M53.7012 42.8711C53.5059 42.9688 53.2812 43.1543 53.2031 43.2812C52.9883 43.6133 50 52.6367 50 52.959C50 53.418 50.3516 53.9844 50.7812 54.1992C51.1328 54.375 51.3477 54.3945 53.5156 54.3945H55.8594V55.2734C55.8594 56.3672 56.0547 56.8262 56.6406 57.1289C57.1289 57.373 57.5195 57.373 58.0078 57.1289C58.5938 56.8262 58.7891 56.3672 58.7891 55.2734V54.3945H59.668C60.3613 54.3945 60.6348 54.3555 60.9375 54.1992C61.377 53.9746 61.7188 53.418 61.7188 52.9297C61.7188 52.4414 61.377 51.8848 60.9375 51.6602C60.6348 51.5039 60.3613 51.4648 59.668 51.4648H58.7891V49.1211C58.7891 46.9531 58.7695 46.7383 58.5938 46.3867C58.3691 45.9473 57.8125 45.6055 57.3242 45.6055C56.8359 45.6055 56.2793 45.9473 56.0547 46.3867C55.8789 46.7383 55.8594 46.9531 55.8594 49.1211V51.4648H54.6875C54.043 51.4648 53.5156 51.4551 53.5156 51.4355C53.5156 51.4258 54.043 49.834 54.6875 47.9004C55.332 45.9668 55.8594 44.2578 55.8594 44.0918C55.8594 43.6719 55.4785 43.0664 55.0781 42.8613C54.6484 42.627 54.1504 42.6367 53.7012 42.8711Z" fill="#F04A25"/>
    </g>
    <defs>
        <clipPath id="clip0_28_127">
            <rect width="50" height="50" fill="white" transform="translate(25 25)"/>
        </clipPath>
    </defs>
</svg>
