<svg width="100" height="100" viewBox="0 0 100 100" fill="none" xmlns="http://www.w3.org/2000/svg">
    <circle cx="50" cy="50" r="50" fill="white"/>
    <path opacity="0.987" fill-rule="evenodd" clip-rule="evenodd" d="M49.1078 25.9663C49.67 25.9663 50.2321 25.9663 50.7943 25.9663C51.3378 26.1438 51.8687 26.378 52.387 26.669C53.605 27.8245 54.823 28.98 56.0409 30.1355C56.2752 30.2136 56.5094 30.2917 56.7436 30.3698C58.5585 30.0346 60.3855 29.8316 62.2245 29.7608C63.8089 30.0654 64.9177 30.9554 65.5505 32.431C65.8954 34.2195 66.2702 35.9996 66.6748 37.7713C66.8208 37.9455 66.9925 38.086 67.1901 38.1929C68.7031 38.9337 70.171 39.7456 71.5936 40.6289C73.0449 42.1094 73.3728 43.8115 72.5773 45.735C71.8324 47.0995 71.1922 48.5048 70.6567 49.9511C70.6723 50.076 70.6879 50.201 70.7035 50.3259C71.4474 51.8449 72.1658 53.3751 72.8584 54.9167C73.2437 56.609 72.8221 58.0612 71.5936 59.2733C70.171 60.1566 68.7031 60.9686 67.1901 61.7093C66.9925 61.8162 66.8208 61.9567 66.6748 62.1309C66.2824 63.6732 65.97 65.2348 65.7379 66.8154C65.0273 69.2097 63.4189 70.3183 60.9129 70.1414C59.515 69.9641 58.1252 69.7611 56.7436 69.5325C56.5144 69.6173 56.2801 69.6954 56.0409 69.7667C54.823 70.9222 53.605 72.0778 52.387 73.2332C51.8687 73.5242 51.3378 73.7585 50.7943 73.9359C50.2321 73.9359 49.67 73.9359 49.1078 73.9359C48.5643 73.7585 48.0334 73.5242 47.5151 73.2332C46.2971 72.0778 45.0791 70.9222 43.8612 69.7667C43.639 69.6978 43.4203 69.6198 43.2053 69.5325C41.589 69.7969 39.965 70.0156 38.3334 70.1883C36.436 70.1071 35.1087 69.2014 34.3516 67.4713C34.0067 65.6827 33.6319 63.9026 33.2273 62.1309C33.0813 61.9567 32.9096 61.8162 32.712 61.7093C31.1989 60.9686 29.7311 60.1566 28.3085 59.2733C26.8573 57.7928 26.5293 56.0908 27.3248 54.1672C28.0697 52.8028 28.7099 51.3974 29.2454 49.9511C29.2298 49.8262 29.2142 49.7012 29.1986 49.5763C28.4547 48.0573 27.7364 46.5271 27.0437 44.9855C26.6585 43.2933 27.0801 41.8411 28.3085 40.6289C29.7311 39.7456 31.1989 38.9337 32.712 38.1929C32.9096 38.086 33.0813 37.9455 33.2273 37.7713C33.6198 36.229 33.9321 34.6675 34.1642 33.0868C34.8748 30.6926 36.4832 29.5839 38.9892 29.7608C40.3811 29.9552 41.7708 30.1581 43.1585 30.3698C43.3927 30.2917 43.6269 30.2136 43.8612 30.1355C45.0791 28.98 46.2971 27.8245 47.5151 26.669C48.0334 26.378 48.5643 26.1438 49.1078 25.9663ZM43.5801 37.5839C46.5883 37.3924 48.509 38.7352 49.3421 41.6126C49.647 44.5779 48.3822 46.5298 45.5476 47.4683C42.9169 47.8628 40.9963 46.8791 39.7856 44.5171C38.9178 41.9365 39.5892 39.8597 41.8 38.2866C42.3719 37.9665 42.9652 37.7323 43.5801 37.5839ZM58.8517 39.4578C60.1651 39.5974 60.618 40.2845 60.2102 41.519C53.9797 47.7494 47.7493 53.9798 41.5189 60.2102C40.387 60.6276 39.7 60.2372 39.4577 59.0391C39.5079 58.8103 39.586 58.5917 39.6919 58.3833C45.9224 52.1528 52.1528 45.9224 58.3832 39.692C58.5533 39.6211 58.7093 39.543 58.8517 39.4578ZM54.9167 52.2934C57.3185 52.2146 59.0518 53.2452 60.1165 55.3852C60.9843 57.9657 60.3129 60.0425 58.1021 61.6156C55.5052 62.9013 53.2723 62.4485 51.4033 60.2571C49.7767 57.3789 50.292 54.9585 52.9492 52.9961C53.5864 52.6746 54.2423 52.4404 54.9167 52.2934Z" fill="#F04A25"/>
    <path opacity="0.952" fill-rule="evenodd" clip-rule="evenodd" d="M44.0486 40.2073C45.9653 40.2344 46.8554 41.2026 46.7188 43.1117C46.027 44.8354 44.8247 45.3195 43.1117 44.5639C42.0314 43.6721 41.7971 42.5947 42.409 41.3316C42.8203 40.7467 43.3668 40.372 44.0486 40.2073Z" fill="#F04A25"/>
    <path opacity="0.953" fill-rule="evenodd" clip-rule="evenodd" d="M54.9162 55.0104C56.375 54.8099 57.3274 55.4032 57.7738 56.7905C57.8569 58.9249 56.8418 59.8461 54.7288 59.5544C53.4986 59.0467 52.9833 58.1254 53.1829 56.7905C53.4689 55.8957 54.0467 55.3023 54.9162 55.0104Z" fill="#F04A25"/>
</svg>
