<svg width="100" height="100" viewBox="0 0 100 100" fill="none" xmlns="http://www.w3.org/2000/svg">
    <circle cx="50" cy="50" r="50" fill="white"/>
    <path d="M29.2344 26.131C28.4469 26.3279 27.8563 26.6654 27.2563 27.2654C26.6469 27.8748 26.2719 28.5404 26.1031 29.356C26.0281 29.7029 26 33.0498 26 40.5779V51.3123H50H74V40.5779C74 32.9373 73.9719 29.7123 73.8969 29.356C73.55 27.7435 72.2469 26.4404 70.6438 26.1029C69.8844 25.9435 29.8719 25.9716 29.2344 26.131ZM38.0375 29.8904C38.7031 30.031 39.6781 30.4435 40.1656 30.781L40.4375 30.9779L40.9813 30.6498C43.9813 28.831 47.9094 29.9185 49.5312 33.0404C49.9906 33.931 50.2063 34.8123 50.2063 35.8435C50.2063 36.8841 49.9906 37.7466 49.5125 38.6935C49.1469 39.4154 48.9125 39.6591 45.1344 43.456C41.5813 47.0185 41.1031 47.4685 40.7844 47.5248C40.0156 47.656 40.0063 47.6466 35.7406 43.3716C32.1875 39.7998 31.7188 39.2841 31.4188 38.7029C30.875 37.6529 30.7438 37.0716 30.7438 35.8435C30.7438 35.0748 30.7906 34.606 30.9125 34.2029C31.8406 31.1091 34.9438 29.2341 38.0375 29.8904ZM58.2125 34.5873C58.3906 34.6716 58.6156 34.8498 58.7094 34.9904C58.8125 35.131 59.3 36.7341 59.7969 38.5623C60.2938 40.3904 60.7156 41.8998 60.725 41.9091C60.7344 41.9185 61.2125 40.8685 61.7938 39.5654C62.375 38.2623 62.9281 37.0716 63.0219 36.9123C63.4906 36.1341 64.8219 36.1341 65.2906 36.9123C65.3844 37.0716 65.8063 38.056 66.2281 39.0966L66.9875 40.9998H67.5875C68.375 40.9998 68.8625 41.2435 69.125 41.7498C69.2281 41.9466 69.3125 42.2466 69.3125 42.406C69.3125 42.8748 68.9844 43.4091 68.5625 43.6248C68.2531 43.7841 68.0094 43.8123 66.9688 43.8123C65.1688 43.8123 65.0563 43.7373 64.3906 42.0873L64.0813 41.3373L63.8844 41.806C62.4781 44.9841 61.6906 46.7185 61.5406 46.9623C61.0813 47.7123 59.8063 47.7404 59.2906 47.0091C59.1875 46.8685 58.7656 45.4998 58.3438 43.9529C57.9219 42.406 57.5188 40.9154 57.4344 40.6341L57.2938 40.1279L56.7125 41.4779C55.9156 43.3154 55.8594 43.4091 55.4375 43.6248C55.1281 43.7841 54.8844 43.8123 53.8438 43.8123C52.3906 43.8123 52.0063 43.681 51.6875 43.0623C51.4531 42.5935 51.4531 42.2185 51.6875 41.7498C51.9406 41.2623 52.3344 41.056 53.1781 40.9998L53.8719 40.9529L55.1 38.0841C55.7844 36.5091 56.4031 35.1123 56.4875 34.981C56.8156 34.4841 57.6125 34.306 58.2125 34.5873Z" fill="#F04A25"/>
    <path d="M35.8719 32.6935C34.9062 33.0123 34.2219 33.6123 33.7906 34.531C33.5844 34.9623 33.5469 35.1779 33.5469 35.8435C33.5469 37.231 33.575 37.2685 37.2312 40.9248C38.9656 42.6685 40.4281 44.0935 40.4844 44.0935C40.5406 44.0935 41.9844 42.6873 43.6906 40.9716C47 37.6529 47.1969 37.3998 47.3562 36.3685C47.5812 34.9154 46.85 33.5279 45.5187 32.8716C45.05 32.6373 44.8812 32.6091 44.1406 32.6185C43.1 32.6279 42.65 32.806 41.8625 33.5279C41.1594 34.1748 40.9906 34.2685 40.4844 34.2685C39.9781 34.2685 39.7719 34.156 39.1531 33.5748C38.4781 32.9466 37.7656 32.6373 36.9312 32.5904C36.5375 32.5716 36.1062 32.6185 35.8719 32.6935Z" fill="#F04A25"/>
    <path d="M26 55.0155C26 56.628 26.3469 57.5655 27.2656 58.4843C27.875 59.0937 28.55 59.4687 29.3563 59.6468C30.0594 59.7968 69.9313 59.7968 70.6438 59.6468C71.8438 59.3937 72.9031 58.5874 73.4656 57.528C73.8688 56.7312 74 56.1405 74 55.0155V54.1249H50H26V55.0155Z" fill="#F04A25"/>
    <path d="M43.5312 62.5904C43.5312 62.6091 43.2969 63.256 43.0156 64.0248C42.7344 64.7935 42.5 65.4498 42.5 65.4873C42.5 65.5341 45.875 65.5623 50 65.5623C54.125 65.5623 57.5 65.5341 57.5 65.4873C57.5 65.4498 57.2656 64.7935 56.9844 64.0248C56.7031 63.256 56.4688 62.6091 56.4688 62.5904C56.4688 62.5716 53.5625 62.5623 50 62.5623C46.4469 62.5623 43.5312 62.5716 43.5312 62.5904Z" fill="#F04A25"/>
    <path d="M40.653 68.506C39.6967 68.8154 39.003 69.4248 38.5717 70.3435C38.3749 70.7654 38.328 71.0279 38.2999 71.8529C38.253 73.0529 38.4217 73.5029 39.0311 73.8123C39.3967 73.9998 39.5561 73.9998 49.9999 73.9998C60.4436 73.9998 60.603 73.9998 60.9686 73.8123C61.578 73.5029 61.7467 73.0529 61.6999 71.8435C61.6717 70.9529 61.6436 70.7935 61.3624 70.231C61.0061 69.5091 60.4999 69.0123 59.7592 68.6654L59.2342 68.4216L50.1405 68.4029C42.8092 68.3935 40.9717 68.4123 40.653 68.506Z" fill="#F04A25"/>
</svg>
