<svg width="100" height="100" viewBox="0 0 100 100" fill="none" xmlns="http://www.w3.org/2000/svg">
    <circle cx="50" cy="50" r="50" fill="white"/>
    <g clip-path="url(#clip0_28_145)">
        <path opacity="0.994" fill-rule="evenodd" clip-rule="evenodd" d="M48.9746 24.9512C49.6257 24.9512 50.2767 24.9512 50.9278 24.9512C52.5943 25.3961 53.7661 26.4215 54.4434 28.0273C55.7454 28.0599 57.0476 28.0925 58.3496 28.125C58.7891 28.304 59.0984 28.6133 59.2774 29.0527C59.3425 31.5267 59.3425 34.0007 59.2774 36.4746C59.0984 36.9141 58.7891 37.2233 58.3496 37.4023C52.7507 37.4675 47.1517 37.4675 41.5528 37.4023C41.1133 37.2233 40.804 36.9141 40.625 36.4746C40.5599 34.0007 40.5599 31.5267 40.625 29.0527C40.804 28.6133 41.1133 28.304 41.5528 28.125C42.8548 28.0925 44.157 28.0599 45.459 28.0273C46.1363 26.4215 47.3081 25.3961 48.9746 24.9512Z" fill="#F04A25"/>
        <path opacity="0.993" fill-rule="evenodd" clip-rule="evenodd" d="M66.3574 74.9512C55.4199 74.9512 44.4824 74.9512 33.5449 74.9512C32.342 74.6108 31.5771 73.8296 31.25 72.6074C31.1849 59.5866 31.1849 46.5657 31.25 33.5449C31.5593 32.3242 32.3242 31.5592 33.5449 31.25C34.8466 31.2012 36.1487 31.1849 37.4512 31.2012C37.4147 33.0597 37.4635 34.9151 37.5977 36.7676C38.2264 39.089 39.74 40.3422 42.1387 40.5273C47.347 40.5925 52.5554 40.5925 57.7637 40.5273C60.1623 40.3422 61.676 39.089 62.3047 36.7676C62.4389 34.9151 62.4877 33.0597 62.4512 31.2012C63.7536 31.1849 65.0558 31.2012 66.3574 31.25C67.5781 31.5592 68.3431 32.3242 68.6523 33.5449C68.7175 46.5657 68.7175 59.5866 68.6523 72.6074C68.3253 73.8296 67.5604 74.6108 66.3574 74.9512ZM47.9004 43.7988C49.5864 43.7751 50.1561 44.5563 49.6094 46.1426C47.4121 48.3398 45.2148 50.5371 43.0176 52.7344C42.4316 53.0599 41.8457 53.0599 41.2598 52.7344C40.1042 51.5788 38.9485 50.4231 37.793 49.2676C37.2829 48.2547 37.5271 47.4897 38.5254 46.9727C39.0078 46.871 39.4635 46.9361 39.8926 47.168C40.6087 47.8841 41.3249 48.6003 42.041 49.3164C42.1062 49.3815 42.1712 49.3815 42.2363 49.3164C44.0844 47.4193 45.9724 45.5801 47.9004 43.7988ZM54.6387 46.8262C56.8891 46.7825 59.1352 46.8313 61.377 46.9727C62.1944 47.3544 62.5036 47.9892 62.3047 48.8769C62.0507 49.5169 61.5787 49.8587 60.8887 49.9023C58.6385 49.9948 56.3924 49.9623 54.1504 49.8047C53.3329 49.4229 53.0237 48.7882 53.2227 47.9004C53.4981 47.2679 53.9702 46.9098 54.6387 46.8262ZM47.9004 56.2988C49.5864 56.2751 50.1561 57.0563 49.6094 58.6426C47.4121 60.8398 45.2148 63.0371 43.0176 65.2344C42.4316 65.5599 41.8457 65.5599 41.2598 65.2344C40.1042 64.0788 38.9485 62.9231 37.793 61.7676C37.2829 60.7547 37.5271 59.9897 38.5254 59.4727C39.0078 59.371 39.4635 59.4361 39.8926 59.668C40.6087 60.3841 41.3249 61.1003 42.041 61.8164C42.1062 61.8815 42.1712 61.8815 42.2363 61.8164C44.0844 59.9193 45.9724 58.0801 47.9004 56.2988ZM54.6387 59.3262C56.8891 59.2825 59.1352 59.3313 61.377 59.4727C62.1944 59.8544 62.5036 60.4892 62.3047 61.3769C62.0507 62.0169 61.5787 62.3587 60.8887 62.4023C58.6385 62.4948 56.3924 62.4623 54.1504 62.3047C53.3329 61.9229 53.0237 61.2882 53.2227 60.4004C53.4981 59.7679 53.9702 59.4098 54.6387 59.3262Z" fill="#F04A25"/>
    </g>
    <defs>
        <clipPath id="clip0_28_145">
            <rect width="50" height="50" fill="white" transform="translate(25 25)"/>
        </clipPath>
    </defs>
</svg>
