<svg width="100" height="100" viewBox="0 0 100 100" fill="none" xmlns="http://www.w3.org/2000/svg">
    <circle cx="50" cy="50" r="50" fill="white"/>
    <path d="M41.0254 28.2813C39.375 28.7207 38.0859 30.0391 37.6465 31.709C37.5293 32.1387 37.5 32.8809 37.5 34.8828V37.5H37.9199C39.3262 37.5 41.4648 38.0567 43.0176 38.8184C50.0391 42.2754 52.1387 51.2403 47.4023 57.5782L46.8848 58.2715L46.8555 64.8047C46.8359 69.6973 46.7969 71.4063 46.709 71.6114L46.582 71.875H57.1582C68.7891 71.875 68.2715 71.9043 69.4434 71.2793C70.127 70.9082 70.9766 70.0489 71.3281 69.3555C71.9043 68.2227 71.875 68.9356 71.875 54.1797V40.625H67.6953C63.1738 40.625 62.9297 40.6055 61.8945 40.0782C61.2012 39.7266 60.3418 38.877 59.9707 38.1934C59.3945 37.1094 59.375 36.8946 59.375 32.3047V28.125L50.4688 28.1348C43.0078 28.1348 41.4648 28.1641 41.0254 28.2813ZM55.5273 37.7539C56.0449 38.1348 56.2012 38.4473 56.2012 39.0625C56.2012 39.6778 56.0449 39.9903 55.5273 40.3711C55.2734 40.5664 55.1074 40.5762 52.5586 40.6055C50.8203 40.625 49.7266 40.5957 49.4922 40.5371C48.5059 40.2442 48.125 38.8867 48.7988 38.0762C49.2773 37.5196 49.3848 37.5 52.4609 37.5293C55.1172 37.5489 55.2734 37.5586 55.5273 37.7539ZM64.9023 45.5664C65.4199 45.9473 65.5762 46.2598 65.5762 46.875C65.5762 47.4903 65.4199 47.8028 64.9023 48.1836C64.6387 48.3789 64.5117 48.3887 59.5898 48.418C56.2207 48.4375 54.4238 48.418 54.1797 48.3399C53.1934 48.0567 52.8125 46.6992 53.4863 45.8887C53.9844 45.3028 53.8672 45.3125 59.4922 45.3418C64.5117 45.3614 64.6387 45.3614 64.9023 45.5664ZM64.9023 53.3789C65.4199 53.7598 65.5762 54.0723 65.5762 54.6875C65.5762 55.3028 65.4199 55.6153 64.9023 55.9961C64.6387 56.1914 64.5117 56.2012 59.5898 56.2305C56.2207 56.25 54.4238 56.2305 54.1797 56.1524C53.1934 55.8692 52.8125 54.5117 53.4863 53.7012C53.9844 53.1153 53.8672 53.125 59.4922 53.1543C64.5117 53.1739 64.6387 53.1739 64.9023 53.3789ZM64.9023 61.1914C65.4199 61.5723 65.5762 61.8848 65.5762 62.5C65.5762 63.1153 65.4199 63.4278 64.9023 63.8086C64.6387 64.0137 64.5215 64.0137 58.0273 64.043C53.5645 64.0625 51.2988 64.043 51.0547 63.9649C50.0684 63.6817 49.6875 62.3242 50.3613 61.5137C50.8594 60.918 50.6055 60.9375 57.9297 60.9668C64.5312 60.9864 64.6387 60.9864 64.9023 61.1914Z" fill="#F04A25"/>
    <path d="M62.5 32.6465C62.5 35.459 62.5293 36.3086 62.6367 36.5527C62.8027 36.9629 63.3008 37.3828 63.7012 37.4512C63.877 37.4805 65.5664 37.4902 67.4609 37.4805L70.8984 37.4512L66.6992 33.252L62.5 29.0527V32.6465Z" fill="#F04A25"/>
    <path d="M35.8692 40.7715C33.9063 41.123 32.129 42.0801 30.752 43.5351C27.2462 47.1973 27.2657 52.8711 30.8008 56.5234C32.4512 58.2422 34.6387 59.2187 37.0606 59.3457C41.504 59.5703 45.3907 56.6797 46.6016 52.2558C46.9044 51.1816 46.9044 48.8183 46.6016 47.7441C45.5958 44.0625 42.7247 41.4062 39.0919 40.7715C38.0958 40.5957 36.8262 40.5957 35.8692 40.7715Z" fill="#F04A25"/>
    <path d="M31.25 65.7227C31.25 71.1523 31.2402 71.0449 31.8848 71.5332C32.2559 71.8262 32.6856 71.9238 33.1738 71.8262C33.4863 71.7676 33.8379 71.4746 35.5274 69.7949L37.5 67.832L39.4824 69.7949C41.1621 71.4746 41.5137 71.7676 41.8262 71.8262C42.3145 71.9238 42.7441 71.8262 43.1152 71.5332C43.7598 71.0449 43.75 71.1426 43.75 65.7422V60.8496L42.8223 61.2891C41.0254 62.1289 39.5801 62.4414 37.5 62.4414C35.1758 62.4512 33.6524 62.0508 31.3281 60.8594C31.2793 60.8398 31.25 63.0273 31.25 65.7227Z" fill="#F04A25"/>
</svg>
