<svg width="100" height="100" viewBox="0 0 100 100" fill="none" xmlns="http://www.w3.org/2000/svg">
    <circle cx="50" cy="50" r="50" fill="white"/>
    <path opacity="0.98" fill-rule="evenodd" clip-rule="evenodd" d="M54.9717 27C56.1074 27 57.2429 27 58.3786 27C63.8041 27.7203 67.9431 30.4099 70.7955 35.0688C71.905 37.0676 72.6074 39.1893 72.9023 41.4341C72.9023 42.5996 72.9023 43.7651 72.9023 44.9306C71.8359 51.8698 67.9808 56.487 61.3371 58.782C55.824 60.2554 50.8333 59.2394 46.3651 55.7338C46.3053 55.674 46.2455 55.674 46.1857 55.7338C45.1833 56.7212 44.1972 57.7224 43.2272 58.7372C43.8236 59.3784 44.4362 60.0059 45.0651 60.6199C45.1249 60.7095 45.1249 60.7992 45.0651 60.8888C41.3743 64.5796 37.6837 68.2702 33.9929 71.961C33.4062 72.3739 32.7786 72.6877 32.1102 72.9023C31.5125 72.9023 30.9149 72.9023 30.3172 72.9023C28.5839 72.4242 27.4781 71.3184 27 69.5852C27 68.9875 27 68.3898 27 67.7921C27.2146 67.1238 27.5284 66.4962 27.9414 65.9094C31.6321 62.2187 35.3228 58.528 39.0135 54.8373C39.1032 54.7775 39.1928 54.7775 39.2825 54.8373C39.8964 55.4662 40.524 56.0788 41.1652 56.6751C42.18 55.7052 43.1811 54.719 44.1686 53.7166C44.2284 53.6568 44.2284 53.5971 44.1686 53.5373C40.6628 49.0682 39.6467 44.0776 41.1203 38.5652C43.4154 31.9215 48.0325 28.0665 54.9717 27ZM55.5097 32.4688C60.1774 32.2099 63.7186 34.0627 66.1335 38.0273C68.1513 42.1747 67.8225 46.1194 65.1474 49.8615C62.1512 53.3406 58.4008 54.5808 53.8959 53.5821C49.4992 52.1739 46.8843 49.2005 46.0513 44.6616C45.6273 40.0405 47.3457 36.4693 51.2063 33.9481C52.5627 33.1923 53.9971 32.6992 55.5097 32.4688ZM59.7234 39.6411C60.3628 40.2356 60.9903 40.8482 61.6061 41.479C59.5291 43.556 57.4522 45.6329 55.3752 47.7098C54.2097 46.5444 53.0442 45.3789 51.8787 44.2134C51.8189 44.1536 51.8189 44.0939 51.8787 44.0341C52.4465 43.4663 53.0143 42.8984 53.5821 42.3307C54.135 42.8836 54.6878 43.4364 55.2407 43.9892C55.3005 44.049 55.3602 44.049 55.42 43.9892C56.8726 42.5517 58.307 41.1023 59.7234 39.6411Z" fill="#F04A25"/>
    <path opacity="0.975" fill-rule="evenodd" clip-rule="evenodd" d="M55.6888 35.069C59.1423 34.8458 61.817 36.1607 63.7128 39.0137C65.4093 42.3083 65.1703 45.4462 62.9956 48.4273C60.412 51.1913 57.319 51.9832 53.7165 50.8031C50.4678 49.3144 48.7345 46.7741 48.5166 43.1825C48.9031 38.6879 51.2938 35.9834 55.6888 35.069ZM59.7232 39.6413C58.3069 41.1025 56.8724 42.5518 55.4199 43.9894C55.3601 44.0492 55.3004 44.0492 55.2406 43.9894C54.6877 43.4365 54.1349 42.8837 53.582 42.3308C53.0142 42.8986 52.4464 43.4665 51.8786 44.0343C51.8188 44.0941 51.8188 44.1538 51.8786 44.2136C53.0441 45.379 54.2096 46.5445 55.3751 47.71C57.452 45.633 59.529 43.5561 61.6059 41.4791C60.9902 40.8483 60.3626 40.2357 59.7232 39.6413Z" fill="#F04A25"/>
</svg>
