<svg width="100" height="100" viewBox="0 0 100 100" fill="none" xmlns="http://www.w3.org/2000/svg">
    <circle cx="50" cy="50" r="50" fill="white"/>
    <path d="M48.3889 27.6075C43.3791 28.3985 39.5705 32.3438 38.965 37.3536C38.3791 42.1876 41.4455 49.2481 45.4396 52.2559C48.2912 54.4044 51.1135 54.5411 53.965 52.6856C57.51 50.3809 60.5471 44.8536 61.0451 39.8047C61.6018 34.2383 58.135 29.2774 52.6662 27.8223C52.0705 27.6563 51.5529 27.6075 50.2932 27.5879C49.4045 27.5684 48.5549 27.5782 48.3889 27.6075Z" fill="#F04A25"/>
    <path d="M41.2599 52.3145C40.5861 52.4023 38.9064 52.8613 38.1349 53.1738C34.6388 54.5898 31.8263 57.5195 30.5763 61.0645C30.0294 62.627 29.8439 63.7207 29.8536 65.5273C29.8536 66.8652 29.8829 67.2656 30.0587 67.9004C30.7618 70.4883 32.5099 71.7676 36.0157 72.2852C37.2462 72.4707 62.754 72.4707 63.9845 72.2852C67.5001 71.7676 69.2384 70.4883 69.9415 67.9004C70.2443 66.7871 70.2443 64.3262 69.9415 62.9199C69.3654 60.2637 68.1935 58.0469 66.3673 56.2012C65.0099 54.8242 63.6622 53.916 61.9532 53.2129C61.0743 52.8516 59.4532 52.4121 58.5939 52.2949L58.1544 52.2461L57.9786 52.7246C57.8907 52.9883 57.6271 53.4766 57.4025 53.8086C56.8556 54.6289 55.0294 56.5137 53.4767 57.8613C51.9728 59.1504 50.1173 60.6445 50.0001 60.6445C49.9513 60.6445 49.3068 60.1562 48.5646 59.5605C44.795 56.5137 42.5197 54.1504 42.0216 52.7246C41.9142 52.4219 41.797 52.2559 41.6993 52.2559C41.6212 52.2656 41.4259 52.2949 41.2599 52.3145ZM61.3673 60.7031C61.3966 60.791 61.4259 61.3574 61.4259 61.9727V63.0859H62.5392C63.1544 63.0859 63.7208 63.1152 63.8087 63.1445C64.0431 63.2324 64.0431 65.7715 63.8087 65.8594C63.7208 65.8887 63.1544 65.918 62.5392 65.918H61.4259V67.0605C61.4259 67.6953 61.3868 68.2715 61.3478 68.3398C61.2794 68.4277 60.9376 68.457 59.9513 68.4375L58.6427 68.4082L58.6134 67.1582L58.5841 65.918H57.3732C56.2697 65.918 56.1525 65.8984 56.0548 65.7324C56.006 65.625 55.9572 65.0684 55.9572 64.502C55.9572 63.9355 56.006 63.3789 56.0548 63.2715C56.1525 63.1055 56.2697 63.0859 57.3732 63.0859H58.5939V61.8848C58.5939 61.2207 58.6232 60.6445 58.6622 60.6152C58.6915 60.5762 59.3068 60.5469 60.0197 60.5469C61.1036 60.5469 61.3185 60.5664 61.3673 60.7031Z" fill="#F04A25"/>
</svg>
