<svg width="24" height="24" viewBox="0 0 24 24" fill="none" xmlns="http://www.w3.org/2000/svg">
    <path d="M12 11.9751C10.9 11.9751 10 11.6251 9.3 10.9251C8.6 10.2251 8.25 9.3251 8.25 8.2251C8.25 7.1251 8.6 6.2251 9.3 5.5251C10 4.8251 10.9 4.4751 12 4.4751C13.1 4.4751 14 4.8251 14.7 5.5251C15.4 6.2251 15.75 7.1251 15.75 8.2251C15.75 9.3251 15.4 10.2251 14.7 10.9251C14 11.6251 13.1 11.9751 12 11.9751ZM5.5 20.0001C5.08333 20.0001 4.72917 19.8543 4.4375 19.5626C4.14583 19.2709 4 18.9168 4 18.5001V17.6501C4 17.0168 4.15833 16.4751 4.475 16.0251C4.79167 15.5751 5.2 15.2334 5.7 15.0001C6.81667 14.5001 7.8875 14.1251 8.9125 13.8751C9.9375 13.6251 10.9667 13.5001 12 13.5001C13.0333 13.5001 14.0583 13.6293 15.075 13.8876C16.0917 14.1459 17.1583 14.5168 18.275 15.0001C18.7917 15.2334 19.2083 15.5751 19.525 16.0251C19.8417 16.4751 20 17.0168 20 17.6501V18.5001C20 18.9168 19.8542 19.2709 19.5625 19.5626C19.2708 19.8543 18.9167 20.0001 18.5 20.0001H5.5Z" fill="white"/>
</svg>
