<svg width="24" height="24" viewBox="0 0 24 24" fill="none" xmlns="http://www.w3.org/2000/svg">
    <path d="M18.8909 20C17.0956 20 15.3121 19.5592 13.5404 18.6776C11.7686 17.7959 10.1763 16.6493 8.76341 15.2377C7.35047 13.826 6.20334 12.2332 5.322 10.4591C4.44067 8.68511 4 6.9019 4 5.1095C4 4.79766 4.10692 4.53478 4.32076 4.32087C4.5346 4.10696 4.79739 4 5.10912 4H8.16941C8.43267 4 8.65648 4.08058 8.84086 4.24173C9.02525 4.40287 9.14627 4.62621 9.20392 4.91174L9.79412 7.58324C9.83373 7.83265 9.82922 8.05511 9.78059 8.25064C9.73196 8.44617 9.63541 8.61271 9.49095 8.75025L7.27889 10.9274C8.07405 12.2343 8.95888 13.3706 9.93336 14.3364C10.9078 15.3021 12.0084 16.1209 13.235 16.7928L15.3378 14.6342C15.5114 14.4494 15.706 14.3208 15.9216 14.2482C16.1372 14.1756 16.3606 14.1664 16.5919 14.2206L19.0833 14.7787C19.3577 14.8399 19.5791 14.9718 19.7474 15.1747C19.9158 15.3775 20 15.6217 20 15.9072V18.8853C20 19.2006 19.8931 19.4652 19.6792 19.6791C19.4654 19.893 19.2026 20 18.8909 20Z" fill="white"/>
</svg>
