<svg width="34" height="26" viewBox="0 0 34 26" fill="none" xmlns="http://www.w3.org/2000/svg">
    <path d="M5.82857 1.85545C6.65281 0.755342 7.56537 0.147385 8.56623 0.0315814C9.5671 -0.0842183 10.4208 0.118435 11.1273 0.63954C11.8926 1.10275 12.3048 1.8265 12.3636 2.81081C12.4814 3.79512 12.0693 4.83733 11.1273 5.93744C9.77316 7.50076 8.86061 9.06408 8.38961 10.6274C7.91861 12.1907 7.68312 13.5803 7.68312 14.7962L7.32987 11.3222C9.68485 11.3222 11.5983 11.9881 13.0701 13.3198C14.542 14.6515 15.2779 16.4464 15.2779 18.7045C15.2779 20.8468 14.6009 22.6128 13.2468 24.0024C11.8926 25.3341 10.0381 26 7.68312 26C5.26926 26 3.38528 25.2183 2.03117 23.655C0.677056 22.0338 0 19.8046 0 16.9675C0 15.4621 0.147186 13.9277 0.441558 12.3644C0.735931 10.7432 1.29524 9.09303 2.11948 7.41391C3.0026 5.67689 4.23896 3.82407 5.82857 1.85545ZM24.5506 1.85545C25.3749 0.755342 26.2874 0.147385 27.2883 0.0315814C28.2892 -0.0842183 29.1429 0.118435 29.8494 0.63954C30.6147 1.10275 31.0268 1.8265 31.0857 2.81081C31.2035 3.79512 30.7913 4.83733 29.8494 5.93744C28.4952 7.50076 27.5827 9.06408 27.1117 10.6274C26.6407 12.1907 26.4052 13.5803 26.4052 14.7962L26.0519 11.3222C28.4069 11.3222 30.3203 11.9881 31.7922 13.3198C33.2641 14.6515 34 16.4464 34 18.7045C34 20.8468 33.3229 22.6128 31.9688 24.0024C30.6147 25.3341 28.7602 26 26.4052 26C23.9913 26 22.1074 25.2183 20.7532 23.655C19.3991 22.0338 18.7221 19.8046 18.7221 16.9675C18.7221 15.4621 18.8693 13.9277 19.1636 12.3644C19.458 10.7432 20.0173 9.09303 20.8416 7.41391C21.7247 5.67689 22.961 3.82407 24.5506 1.85545Z" fill="#1C7597"/>
</svg>
